<?xml version="1.0" encoding="utf-8"?>
<!-- Generator: Adobe Illustrator 19.0.0, SVG Export Plug-In . SVG Version: 6.00 Build 0)  -->
<svg version="1.1" id="Layer_1" xmlns="http://www.w3.org/2000/svg" xmlns:xlink="http://www.w3.org/1999/xlink" x="0px" y="0px"
	 viewBox="-225.1 387.2 68.3 68.4" style="enable-background:new -225.1 387.2 68.3 68.4;" xml:space="preserve">
<style type="text/css">
	.st0{fill:none;stroke:#F5C976;stroke-width:5;stroke-miterlimit:10;}
	.st1{fill:#F5C976;stroke:#F5C976;stroke-width:2;stroke-miterlimit:10;}
	.st2{fill:none;stroke:#F5C976;stroke-width:4;stroke-miterlimit:10;}
</style>
<g>
	<path class="st0" d="M-159.9,415c0.4,2.1,0.6,4.2,0.6,6.4c0,17.5-14.2,31.7-31.7,31.7s-31.6-14.2-31.6-31.7s14.2-31.7,31.6-31.7
		c4.1,0,8.1,0.8,11.7,2.2"/>
	<g>
		<path class="st1" d="M-203.5,410.2L-203.5,410.2l-5.3,2.8l-0.8-3.1l6.6-3.4h3.5v29.9h-3.9L-203.5,410.2L-203.5,410.2z"/>
		<path class="st1" d="M-194.5,428.8c0-3.8,2.3-6.4,5.9-8v-0.1c-3.3-1.6-4.7-4.1-4.7-6.7c0-4.7,4-8,9.2-8c5.8,0,8.7,3.6,8.7,7.4
			c0,2.5-1.2,5.2-4.9,7v0.1c3.7,1.5,6,4.1,6,7.7c0,5.2-4.5,8.7-10.2,8.7C-190.8,436.9-194.5,433.2-194.5,428.8z M-178.4,428.6
			c0-3.6-2.5-5.4-6.6-6.5c-3.5,1-5.4,3.3-5.4,6.2c-0.1,3,2.2,5.7,6,5.7C-180.8,433.9-178.4,431.7-178.4,428.6z M-189.6,413.6
			c0,3,2.3,4.6,5.7,5.5c2.6-0.9,4.6-2.7,4.6-5.4c0-2.4-1.4-4.9-5.1-4.9C-187.7,408.9-189.6,411.1-189.6,413.6z"/>
	</g>
	<g>
		<path class="st2" d="M-165.9,393.2v5.3h5.1v1.3h-5.1v5.3h-1.4v-5.3h-5.1v-1.3h5.1v-5.3H-165.9z"/>
	</g>
</g>
</svg>
