<?xml version="1.0" encoding="utf-8"?>
<!-- Generator: Adobe Illustrator 24.0.1, SVG Export Plug-In . SVG Version: 6.00 Build 0)  -->
<svg version="1.1" id="Layer_1" xmlns="http://www.w3.org/2000/svg" xmlns:xlink="http://www.w3.org/1999/xlink" x="0px" y="0px"
	 viewBox="0 0 48 48" style="enable-background:new 0 0 48 48;" xml:space="preserve">
<style type="text/css">
	.st0{fill:#FFFFFF;}
</style>
<g id="XMLID_3_">
	<g id="XMLID_27_">
		<rect class="st0" width="48" height="48"/>
		<path d="M29.9,40c-0.1,0-0.1,0-0.2,0c-0.4-0.1-0.8-0.1-1.2-0.2c-0.6-0.1-1-0.7-0.7-1.3c0.3-0.7,0.2-1.3,0.1-1.9
			c-0.4-2.2-0.9-4.4-1.4-6.6c-0.3-1.3-0.5-2.6-0.7-4c-0.1-0.7-0.2-1.3-0.4-2c-0.2-0.8-0.3-1.6-0.5-2.4c-0.1-0.6-0.2-1.2-0.3-1.8
			c-0.1,0-0.1,0-0.2,0c0,0.1-0.1,0.3-0.1,0.3c-0.4,2.3-0.9,4.6-1.4,7c-0.5,2.6-1,5.3-1.5,7.9c-0.2,1-0.4,2.1-0.4,3.2
			c0,0.7,0,0.8-0.7,0.8c-1.4,0.1-2.8,0.2-4.2,0.3c-0.5,0-1.1,0.1-1.7,0c-0.7-0.1-0.9-0.5-0.7-1.1c0-0.1,0.1-0.2,0.1-0.3
			c-0.1-0.8-0.1-1.6-0.3-2.5c-0.3-1.4-0.7-2.8-1-4.1c-0.4-2-0.7-3.9-1.1-5.8c-0.5-2.5-1-5-1.5-7.4c-0.5-2.5-1.1-4.9-1.7-7.4
			c-0.1-0.6-0.3-1.2-0.6-1.8C7.4,8.7,7.5,8.4,7.9,8.1C8.2,8,8.5,7.9,8.8,7.8c0.3,0,0.6,0,1,0c1.2,0.4,2.3,0.1,3.5,0c0,0,0.1,0,0.1,0
			c0.3,0.1,0.5,0.1,0.8,0.2c0.5,0.1,0.5,0.3,0.4,0.7c-0.1,0.5-0.1,0.9-0.1,1.4c0.4,1.8,0.8,3.5,1.2,5.3c0.5,2.6,1.1,5.2,1.5,7.9
			c0.2,1.3,0.4,2.6,0.7,4c0.1,0.5,0.1,0.9,0.6,1.3c0-0.2,0.1-0.3,0.1-0.3c0.3-1.7,0.5-3.5,0.8-5.2c0.5-2.9,1-5.8,1.5-8.7
			c0.2-1.5,0.6-3.1,0.4-4.6c0-0.2,0.2-0.5,0.4-0.6c0.2-0.1,0.5-0.1,0.8-0.1c0.7,0,1.4-0.1,2.1-0.1c0.7,0,1.5-0.1,2.2-0.1
			c0.6,0,0.7,0.3,0.6,0.8c-0.1,0.3-0.1,0.6-0.1,0.9c0.2,1.1,0.5,2.3,0.7,3.4c0.7,3.1,1.4,6.3,2.1,9.4c0.2,1.1,0.4,2.3,0.6,3.4
			c0.1,0.4,0.2,0.7,0.3,1.1c0,0.1,0.2,0.1,0.3,0.2c0,0,0.1-0.1,0.1-0.2c0.1-0.5,0.2-0.9,0.2-1.4c0-0.4,0-0.8,0.1-1.1
			c0.3-1.8,0.6-3.5,1-5.3c0.4-2.5,0.9-4.9,1.3-7.4c0.2-1.2,0.4-2.4,0.5-3.6c0.1-0.7,0.2-0.9,0.8-0.7c1,0.2,1.9,0.1,2.9,0
			C39,8,39.6,7.9,40.3,8C41,8,41.1,8.4,40.7,9c-0.1,0.2-0.3,0.5-0.4,0.7c-0.3,1.4-0.5,2.8-0.8,4.1c-0.5,2.9-1.1,5.7-1.7,8.6
			c-0.4,1.9-0.8,3.8-1.3,5.7c-0.6,3-1.2,6-1.8,9c-0.1,0.6-0.1,1.3-0.1,1.8c0,0.5-0.2,0.8-0.7,0.7C32.7,39.5,31.3,39.8,29.9,40z"/>
	</g>
</g>
</svg>
