<?xml version="1.0" encoding="utf-8"?>
<!-- Generator: Adobe Illustrator 19.0.0, SVG Export Plug-In . SVG Version: 6.00 Build 0)  -->
<svg version="1.1" id="Layer_1" xmlns="http://www.w3.org/2000/svg" xmlns:xlink="http://www.w3.org/1999/xlink" x="0px" y="0px"
	 viewBox="-609.8 316 81.4 81.4" style="enable-background:new -609.8 316 81.4 81.4;" xml:space="preserve">
<style type="text/css">
	.st0{fill:#FFFFFF;}
</style>
<g>
	<path class="st0" d="M-569.1,320c20.3,0,36.7,16.5,36.7,36.7c0,20.2-16.4,36.7-36.7,36.7c-20.3,0-36.7-16.5-36.7-36.7
		C-605.8,336.5-589.4,320-569.1,320 M-569.1,316c-22.5,0-40.7,18.2-40.7,40.7s18.2,40.7,40.7,40.7s40.7-18.2,40.7-40.7
		S-546.6,316-569.1,316L-569.1,316z"/>
</g>
<path class="st0" d="M-569.1,376.1c-1.6,0-2.9-1.3-2.9-2.9v-19c0-1.6,1.3-2.9,2.9-2.9c1.6,0,2.9,1.3,2.9,2.9v19.1
	C-566.2,374.8-567.5,376.1-569.1,376.1z"/>
<path class="st0" d="M-569.1,343c-1.6,0-2.9-1.3-2.9-2.9s1.3-2.9,2.9-2.9c1.6,0,2.9,1.3,2.9,2.9S-567.5,343-569.1,343z"/>
</svg>
