<?xml version="1.0" encoding="utf-8"?>
<!-- Generator: Adobe Illustrator 23.0.1, SVG Export Plug-In . SVG Version: 6.00 Build 0)  -->
<svg version="1.1" xmlns="http://www.w3.org/2000/svg" xmlns:xlink="http://www.w3.org/1999/xlink" x="0px" y="0px"
	 viewBox="0 0 459.2 190" style="enable-background:new 0 0 459.2 190;" xml:space="preserve">
<style type="text/css">
	.st0{fill:#FFFFFF;}
	.st1{display:none;fill:#050505;}
	.st2{fill:#ED9E00;}
	.st3{display:none;}
</style>
<g id="Layer_1">
	<path id="XMLID_25_" class="st0" d="M1314.4,675.3c-1.1-0.3-2.2,0.3-2.7,1.3c-0.6,1.4-1.2,2.7-1.9,4.1c-0.3,0.8-1,1.4-1.6,2
		c-0.9,0.9-2.4,1.3-2.9,2.3c-3.5,6.4-4.2,13.5-8.4,19.2c-0.3,0.3-0.4,0.8-0.4,1.3l-0.2,5.1c8.2-10.3,13.7-21.3,18.9-34.1
		L1314.4,675.3z"/>
	<path id="XMLID_7_" class="st0" d="M1314.4,675.3c-1.1-0.3-2.2,0.3-2.7,1.3c-0.6,1.4-1.2,2.7-1.9,4.1c-0.3,0.8-1,1.4-1.6,2
		c-0.9,0.9-2.4,1.3-2.9,2.3c-3.5,6.4-4.2,13.5-8.4,19.2c-0.3,0.3-0.4,0.8-0.4,1.3l-0.2,5.1c8.2-10.3,13.7-21.3,18.9-34.1
		L1314.4,675.3z"/>
	<line class="st1" x1="-13" y1="118.5" x2="489" y2="118.5"/>
	<path class="st2" d="M459.2,0h-69C283.2,0,176.1,0,69,0C46,0,23,0,0,0l23.3,95L0,190h69h321.2c23,0,46,0,69,0l-23.3-95L459.2,0z"/>
</g>
<g id="Layer_2" class="st3">
	<line class="st0" x1="-6" y1="116.8" x2="482" y2="116.8"/>
</g>
</svg>
