<?xml version="1.0" encoding="utf-8"?>
<!-- Generator: Adobe Illustrator 19.0.0, SVG Export Plug-In . SVG Version: 6.00 Build 0)  -->
<svg version="1.1" id="Layer_1" xmlns="http://www.w3.org/2000/svg" xmlns:xlink="http://www.w3.org/1999/xlink" x="0px" y="0px"
	 viewBox="182 318.1 960 205.8" style="enable-background:new 182 318.1 960 205.8;" xml:space="preserve">
<style type="text/css">
	.st0{fill:#FFFFFF;}
</style>
<g>
	<g>
		<path class="st0" d="M381.8,523.9h-190c-5.4,0-9.8-4.4-9.8-9.8V327.9c0-5.4,4.4-9.8,9.8-9.8h95c5.4,0,9.8,4.4,9.8,9.8v28.7
			c0,5.4-4.4,9.8-9.8,9.8c-5.4,0-9.8-4.4-9.8-9.8v-18.7h-75.2v166.2h170V337.9h-24.2c-5.4,0-9.8-4.4-9.8-9.8c0-5.4,4.4-9.8,9.8-9.8
			h34.2c5.4,0,9.8,4.4,9.8,9.8v186C391.6,519.5,387.2,523.9,381.8,523.9z"/>
	</g>
	
		<g id="svg1_copy_3_4_" xmlns:rdf="http://www.w3.org/1999/02/22-rdf-syntax-ns#" xmlns:svg="http://www.w3.org/2000/svg" xmlns:cc="http://creativecommons.org/ns#" xmlns:dc="http://purl.org/dc/elements/1.1/" xmlns:sodipodi="http://sodipodi.sourceforge.net/DTD/sodipodi-0.dtd" xmlns:inkscape="http://www.inkscape.org/namespaces/inkscape" sodipodi:version="0.32" inkscape:output_extension="org.inkscape.output.svg.inkscape" inkscape:version="0.46" sodipodi:docbase="C:\Documents and Settings\Jon Phillips\My Documents\projects\clipart-project\submissions" sodipodi:docname="heart_jon_phillips_01.svg">
		<defs>
			
			
				<inkscape:perspective  inkscape:vp_y="0 : 1000 : 0" inkscape:vp_x="0 : 526.18109 : 1" id="perspective9" inkscape:vp_z="744.09448 : 526.18109 : 1" sodipodi:type="inkscape:persp3d" inkscape:persp3d-origin="372.04724 : 350.78739 : 1">
				</inkscape:perspective>
		</defs>
		
			<sodipodi:namedview  inkscape:zoom="0.35" showguides="true" id="base" borderopacity="1.0" showgrid="false" inkscape:cx="549.40674" bordercolor="#666666" pagecolor="#ffffff" inkscape:cy="596.00159" inkscape:current-layer="layer1" inkscape:window-x="88" inkscape:guide-bbox="true" inkscape:window-height="667" inkscape:pageopacity="0.0" inkscape:window-y="116" inkscape:document-units="px" inkscape:pageshadow="2" inkscape:window-width="866">
			</sodipodi:namedview>
		<g id="layer1_5_" transform="translate(-134.06575,-225.79588)" inkscape:label="Layer 1" inkscape:groupmode="layer">
			<g id="path7_5_">
				<path sodipodi:nodetypes="ccccccc" class="st0" d="M402.2,612.5c-11.3,0-20.5,9.2-20.5,20.5c0,23.1,23.3,29.1,39.1,51.9
					C436,662.3,460,655.2,460,633c0-11.3-9.2-20.5-20.5-20.5c-8.2,0-15.2,4.9-18.5,11.8C417.6,617.2,410.6,612.5,402.2,612.5z"/>
				<path class="st0" d="M420.9,686c-0.3,0-0.8-0.2-1-0.5c-6.1-8.7-13.3-14.9-19.5-20.5c-10.6-9.3-19.8-17.4-19.8-32.1
					c0-12,9.8-21.8,21.8-21.8c7.5,0,14.6,4.1,18.5,10.5c3.9-6.4,11-10.5,18.5-10.5c12,0,21.8,9.8,21.8,21.8
					c0,14.1-9.2,22.1-19.6,31.4c-6.5,5.7-13.9,12.3-19.6,21C421.7,685.9,421.2,686,420.9,686L420.9,686z M402.2,613.6
					c-10.6,0-19.3,8.7-19.3,19.3c0,13.6,8.4,21,18.8,30.1c6.1,5.4,12.9,11.3,18.8,19.5c5.7-8.4,12.8-14.6,19-20
					c10.2-9,18.8-16.7,18.8-29.6c0-10.6-8.7-19.3-19.3-19.3c-7.4,0-14.2,4.4-17.5,11.1c-0.2,0.5-0.7,0.7-1.1,0.7l0,0
					c-0.5,0-1-0.3-1.1-0.7C416.7,618.1,409.8,613.6,402.2,613.6z"/>
			</g>
		</g>
	</g>
	<path class="st0" d="M516.6,463.3c0,6.1-4.9,11-11,11s-11-4.9-11-11v-1c-5.4,7.2-12.8,12.6-24.2,12.6c-18.2,0-35.5-14.2-35.5-40.3
		v-0.3c0-26,17-40.3,35.5-40.3c11.8,0,19,5.4,24.2,11.6v-28.2c0-6.1,4.9-11,11-11s11,4.9,11,11V463.3z M456.8,434.3v0.3
		c0,12.9,8.7,21.4,19,21.4s18.8-8.5,18.8-21.4v-0.3c0-12.9-8.5-21.4-18.8-21.4S456.8,421.2,456.8,434.3z"/>
	<path class="st0" d="M532.5,435v-0.3c0-22.4,18-40.6,42.2-40.6c24.1,0,41.9,17.8,41.9,40.3v0.3c0,22.4-18,40.6-42.2,40.6
		C550.3,475.3,532.5,457.4,532.5,435z M595,435v-0.3c0-11.5-8.4-21.4-20.5-21.4c-12.6,0-20.1,9.7-20.1,21.3v0.3
		c0,11.5,8.4,21.4,20.5,21.4C587.5,456.1,595,446.5,595,435z"/>
	<path class="st0" d="M632.8,405.9c0-6.1,4.9-11,11-11c6.1,0,11,4.9,11,11v0.8c5.1-6.5,11.6-12.4,22.8-12.4c16.7,0,26.5,11,26.5,29
		v40.3c0,6.1-4.9,11-11,11s-11-4.9-11-11v-33.4c0-10.5-4.9-15.9-13.4-15.9c-8.4,0-13.8,5.4-13.8,15.9v33.2c0,6.1-4.9,11-11,11
		s-11-4.9-11-11L632.8,405.9L632.8,405.9z"/>
	<path class="st0" d="M719.6,435v-0.3c0-22.4,18-40.6,42.2-40.6c24.1,0,41.9,17.8,41.9,40.3v0.3c0,22.4-18,40.6-42.2,40.6
		C737.5,475.3,719.6,457.4,719.6,435z M782,435v-0.3c0-11.5-8.4-21.4-20.5-21.4c-12.6,0-20.1,9.7-20.1,21.3v0.3
		c0,11.5,8.4,21.4,20.5,21.4C774.5,456.1,782,446.5,782,435z"/>
	<path class="st0" d="M819.8,405.9c0-6.1,4.9-11,11-11s11,4.9,11,11v3.4c3.3-7.5,8.4-14.6,14.9-14.6c6.9,0,10.8,4.6,10.8,10.8
		c0,5.9-3.8,9.3-8.4,10.3c-11.1,2.6-17.5,11.1-17.5,26.9v20.6c0,6.1-4.9,11-11,11s-11-4.9-11-11v-57.5h0.2V405.9z"/>
	<path class="st0" d="M881.9,377.9c0-6.1,4.9-11,11-11s11,4.9,11,11V407c5.4-7.2,12.8-12.6,24.2-12.6c18.2,0,35.5,14.2,35.5,40.3
		v0.3c0,26-17,40.3-35.5,40.3c-11.8,0-19-5.4-24.2-11.6v0.2c0,5.9-4.9,11-11,11s-11-4.9-11-11V377.9z M941.4,435v-0.3
		c0-12.9-8.7-21.4-19-21.4c-10.3,0-18.8,8.5-18.8,21.4v0.3c0,12.9,8.5,21.4,18.8,21.4C932.7,456.4,941.4,447.9,941.4,435z"/>
	<path class="st0" d="M976.1,435.2v-0.3c0-22.4,18-40.6,42.2-40.6c24.1,0,41.9,17.8,41.9,40.3v0.3c0,22.4-18,40.6-42.2,40.6
		C993.9,475.4,976.1,457.6,976.1,435.2z M1038.5,435.2v-0.3c0-11.5-8.4-21.4-20.5-21.4c-12.6,0-20.1,9.7-20.1,21.3v0.3
		c0,11.5,8.4,21.4,20.5,21.4C1030.9,456.4,1038.5,446.8,1038.5,435.2z"/>
	<path class="st0" d="M1073,457.8l20-23.6l-18.2-21c-2.5-2.9-3.6-5.6-3.6-8.4c0-6.2,4.6-10.2,10.2-10.2c4.4,0,7.4,2,10.3,5.7
		l14.4,19.2l14.7-19.2c2.6-3.3,5.7-5.7,9.7-5.7c5.9,0,10.3,4.1,10.3,9.7c0,3.1-1.3,5.4-3.1,7.5l-18.8,22.2l19.5,22.4
		c2.5,2.9,3.6,5.6,3.6,8.4c0,6.2-4.6,10.2-10.2,10.2c-4.4,0-7.4-2-10.3-5.7l-15.7-20.7l-15.7,20.6c-2.6,3.3-5.7,5.7-9.7,5.7
		c-5.9,0-10.3-4.1-10.3-9.7C1070.1,462.2,1071.2,459.9,1073,457.8z"/>
</g>
</svg>
