<?xml version="1.0" encoding="utf-8"?>
<!-- Generator: Adobe Illustrator 24.0.1, SVG Export Plug-In . SVG Version: 6.00 Build 0)  -->
<svg version="1.1" id="Layer_1" xmlns="http://www.w3.org/2000/svg" xmlns:xlink="http://www.w3.org/1999/xlink" x="0px" y="0px"
	 viewBox="0 0 72.3 59.3" style="enable-background:new 0 0 72.3 59.3;" xml:space="preserve">
<style type="text/css">
	.st0{fill:#FFFFFF;}
</style>
<rect class="st0" width="0.7" height="59.3"/>
<g>
	<g>
		<path class="st0" d="M49.8,33.1c0.1,0.1,0.2,0.1,0.4,0.2c-0.7,2.7-2.1,5.1-4,6.9c-0.6-0.5-1.4-0.7-2.2-0.7c-2.1,0-3.8,1.7-3.8,3.8
			c0,0.1,0,0.3,0,0.4c-1.3,0.4-2.6,0.6-4,0.6s-2.7-0.2-4-0.6c0.1-0.8-0.1-1.6-0.5-2.3c-1-1.8-3.4-2.4-5.2-1.4
			c-0.1,0.1-0.2,0.1-0.3,0.2c-1.9-1.9-3.3-4.2-4-6.9c0.7-0.3,1.3-0.8,1.7-1.6c1-1.8,0.4-4.1-1.4-5.2c-0.1-0.1-0.2-0.1-0.4-0.2
			c0.7-2.7,2.1-5.1,4-6.9c0.6,0.5,1.4,0.7,2.2,0.7c2.1,0,3.8-1.7,3.8-3.8c0-0.1,0-0.3,0-0.4c1.3-0.4,2.6-0.6,4-0.6s2.7,0.2,4,0.6
			c-0.1,0.8,0.1,1.6,0.5,2.3c1,1.8,3.4,2.4,5.2,1.4c0.1-0.1,0.2-0.1,0.3-0.2c1.9,1.9,3.3,4.2,4,6.9c-0.7,0.3-1.3,0.8-1.7,1.6
			C47.4,29.7,48,32,49.8,33.1z M45.5,28.7c1.8-1,2.4-3.3,1.4-5.1s-3.3-2.4-5.1-1.4s-2.4,3.3-1.4,5.1S43.7,29.7,45.5,28.7z M46.9,36
			c1-1.8,0.4-4.1-1.4-5.1s-4.1-0.4-5.1,1.4s-0.4,4.1,1.4,5.1S45.8,37.8,46.9,36z M39.9,21.1c0-2.1-1.7-3.7-3.7-3.7
			c-2.1,0-3.7,1.7-3.7,3.7c0,2.1,1.7,3.7,3.7,3.7C38.2,24.9,39.9,23.2,39.9,21.1z M39.9,38.5c0-2.1-1.7-3.7-3.7-3.7
			c-2.1,0-3.7,1.7-3.7,3.7s1.7,3.7,3.7,3.7S39.9,40.5,39.9,38.5z M38.6,29.8c0-1.3-1.1-2.4-2.4-2.4s-2.4,1.1-2.4,2.4
			s1.1,2.4,2.4,2.4S38.6,31.1,38.6,29.8z M31.9,27.3c1-1.8,0.4-4.1-1.4-5.1s-4.1-0.4-5.1,1.4s-0.4,4.1,1.4,5.1S30.8,29.1,31.9,27.3z
			 M30.5,37.4c1.8-1,2.4-3.3,1.4-5.1c-1-1.8-3.3-2.4-5.1-1.4s-2.4,3.3-1.4,5.1C26.4,37.8,28.7,38.4,30.5,37.4z"/>
	</g>
</g>
<rect x="50.2" y="18.7" class="st0" width="22.1" height="22.1"/>
</svg>
