<?xml version="1.0" encoding="utf-8"?>
<!-- Generator: Adobe Illustrator 19.0.0, SVG Export Plug-In . SVG Version: 6.00 Build 0)  -->
<svg version="1.1" id="Layer_1" xmlns="http://www.w3.org/2000/svg" xmlns:xlink="http://www.w3.org/1999/xlink" x="0px" y="0px"
	 viewBox="773.6 298.6 1803.6 246.6" style="enable-background:new 773.6 298.6 1803.6 246.6;" xml:space="preserve">
<style type="text/css">
	.st0{fill:#FFFFFF;}
	.st1{fill:none;stroke:#FFFFFF;stroke-width:9;stroke-miterlimit:10;}
</style>
<g>
	<g id="XMLID_6_">
		<path id="XMLID_15_" class="st0" d="M1037.1,316.1c-0.3-1-0.3-2-0.3-2.8s0-1.3-0.5-1.8c-1-1.8-1.3-3-0.3-3.8s2-1.3,3.8-1.3
			c1.5,0,3.3,0,5,0.3c1.8,0.3,3,0.5,3.8,0.5c3.8,0,7.3-0.3,10.6-0.8c3.3-0.5,6.5-1,9.8-1.3c3.3-0.5,6.3-0.8,9.5-0.8
			c3,0,6.3,0.3,9.5,0.8c1,0,1.5,0.5,1.8,1.8c0.3,1,0,2.3-1,3.3c-1.3,2-2,3.8-2,5.3c0,0.3,0,0.5-0.3,0.8c-0.3,0.3-0.3,0.5-0.3,0.8
			v4.3h-0.3c0,1,0,2.3,0.3,3.3c0,1,0.3,2,0.3,3.3v10.3c0,1.3,0,2.8-0.3,4.3c0,1.5,0,3,0.3,4.5c0,1.8,0,3.5,0,5.3s0,3.5,0.3,5.3v11.1
			c-0.5,4.5-0.8,8.5-0.8,12.6c0,3.8,0,8,0.3,12.1c0.3,2.5,0.5,4.5,0.5,6.3s0,3.8-0.5,6.3v6c0,1,0,2-0.3,3c0,1-0.3,2-0.3,3
			c0,2.3,0,4.3-0.3,6.3c0,2,0,4,0.5,6v2.8c-0.8,3.8-1,7.5-1,11.3v2c-0.3,0.3-0.3,0.8-0.3,1.3c0.3,1.8,0.3,3.5,0.3,5s-0.3,3.3-0.3,5
			l-0.3,22.4v15.3l-0.3,23.1v4.8h0.8l0.8,3.3c0.3,1,0.3,2,0.3,2.8s0,1.3,0.5,1.8c1,1.8,1.3,3,0.3,3.8s-2,1.3-3.8,1.3
			c-1.5,0-3.3,0-5-0.3c-1.8-0.3-3-0.5-3.8-0.5c-3.8,0-7,0.3-10.1,0.8c-3,0.5-5.8,0.8-8.5,1.3c-2.8,0.3-5.8,0.5-9,0.5
			c-3.3,0-7.3-0.5-12.1-1.3c-1,0-1.5-0.5-1.8-1.5c-0.3-1,0-2,1-2.8v-0.8c1.3-1.5,2-3.3,2-5.3v-0.3c0-0.3,0-0.3,0.3-0.3
			c0,0,0.3,0,0.3-0.3c0-0.5,0-0.8,0.3-0.8c0,0,0.3-0.5,0.3-0.8v-3h0.3c0-0.5,0-0.8,0.3-1c0.5-1.8,0.5-3.5,0.5-5.3s0-3.3,0.3-5.3
			v-5.3l0.3-10.1v-4.8c0-2.3,0-4.3-0.3-6.3c0-2-0.3-4-0.3-6.3c-0.3-0.5-0.3-1-0.3-1.3c0-0.5,0.3-1,0.3-1.3c0-2.3,0-4.5,0.3-6.8
			c0.3-2.3,0.3-4.5,0.3-6.8c0-1.5,0-3-0.3-4.8c0-1.5,0-3,0.3-4.8c0.3-0.8,0.3-1.3,0.3-1.8s0-1,0.3-1.3c0-3.3,0-6.5,0.3-9.8
			c0.3-3.3,0.5-6.3,0.8-9.5v-7.8c-0.3-0.3-0.3-0.5-0.3-1l0.8-9v-1.3c0-1,0-2-0.3-2.8c0-0.8,0-1.8,0.3-2.8c0-0.5,0-0.8,0.3-1.3
			c0-0.3,0.3-0.8,0.3-1.5c0-1.3,0-2.8-0.3-4.3c0-1.5-0.3-3-0.5-4.5c0-1.8,0-3.5,0.3-5c0-1.5,0.3-3.3,0.3-5v-19.3c0-1.5,0-3,0-4.5
			s0-3-0.3-4.5c0-1.5-0.3-3-0.5-4.3c-0.3-1.3-0.5-2.8-0.5-4l0.3-6c0-1,0-1.8-0.3-2.5c0-0.8,0-1.5,0.3-2.5c0-1,0-2.3-0.3-3.5
			c0-1.3,0-2.3,0.3-3.5c0-1,0-1.8-0.3-2.5c-0.3-0.8-0.3-1.8-0.3-2.8c-0.3-0.5-0.3-1.3-0.3-2.8L1037.1,316.1z"/>
	</g>
	<g id="XMLID_9_">
		<path id="XMLID_13_" class="st0" d="M1179.3,540c-7.3,0-12.3,0-15.1-0.3c-2.8,0-4.8-0.3-6.3-0.3s-3,0-4.8,0c-1.8,0-5,0-10.1,0
			c-3,0-8,0.3-15.1,1c-7,0.8-15.6,0-25.9-1.5c-0.8,0.3-1.3-0.3-2-1.5c-0.8-1.3-1-2.5-1-4s0-3,0.8-4.5c0.5-1.5,1.5-2.8,2.8-3.8h0.3
			c0.5-0.8,0.8-1,1-1v-0.3l0,0c0-0.3,0-0.3,0.3-0.5c0,0,0.3-0.3,0.3-0.5c0-0.3,0-0.5,0.3-0.8c0-0.3,0.3-0.5,0.3-1l-0.3-1.5h0.3
			l0.8-0.3c0.5-2,0.5-3,0.5-3.8c0-0.5,0-1.8,0.3-4v-5l0.3-10.6v-4.5c0-2.3,0-4.5-0.3-6.5c0-2-0.3-4-0.3-6c-0.3-0.8-0.3-1.3-0.3-1.8
			s0.3-1,0.3-1.5c0-2,0-4.3,0.3-6.5c0.3-2.3,0.3-4.5,0.3-7c0-1.5,0-3-0.3-4.8c0-1.8,0-3.3,0.3-4.5c0.3-0.8,0.3-1.5,0.3-2
			s0-0.8,0.3-1.3c0-3.3,0.3-6.8,0.5-10.1c0.2-3.3,0.5-6.5,0.8-10.1v-7.3c-0.3-0.3-0.3-0.8-0.3-1.8s0.3-3.8,0.8-8.8V410
			c0-1.8,0-3.3,0.3-4.5c0-1.3,0.3-2.8,0.3-4c0-0.8,0-1.8-0.3-3.3c0-1.5-0.3-3-0.3-4.8s-0.3-3.3-0.5-5c-0.3-1.5-0.3-2.8-0.3-3.3
			c0-1.8,0-3.3,0.3-5c0-1.8,0.3-3.3,0.3-5c0-5.8,0-9.8,0.3-12.6c0-2.8,0.3-4.5,0.3-5.5s0-1.8,0-2c0-0.3,0-0.8,0-1.5
			c0-1.5,0-2.8-0.3-4c-0.3-1.3-0.3-2.8-0.3-4.5v-6c0-1,0-2-0.3-2.8c-0.3-0.8,0-1.5,0.3-2.3c0-1,0-2.3-0.3-3.3
			c-0.3-1.3,0-2.3,0.3-3.3c0-1-0.3-2-0.5-2.8c-0.3-0.8-0.5-1.8-0.5-2.5c-0.3-0.5-0.3-1.3-0.3-2.8l-2-3c-0.3-1-0.3-2-0.3-3
			s-0.3-1.8-0.8-2c-1-1.8-1-3-0.3-3.8c1-0.8,2.3-1.3,4-1.3c1.8,0,3.5,0,5.3,0.3c2,0.3,3.3,0.5,4,0.5c4,0,7.5-0.3,10.8-1
			c3.3-0.7,6.3-1.5,9.3-2c3-0.8,5.8-1,8.5-1c2.8,0,5.8,0.5,9,1.8c1,0,2,0.8,2.5,2c0.8,1.3,0.5,2.5-0.3,3.8c-0.8,0.8-1.3,1.8-2,3.3
			c-0.8,1.5-1,2.8-1,3.3v5h-0.3c0,1,0,2,0.3,3c0,1,0.3,2,0.3,3.3v9.8c0,1.8,0,3.3-0.3,4.5c0,1.3,0,3,0.3,4.5c0,1.8,0,3.5,0,5.3
			c0,2,0,3.8,0.3,5.3v11.1c-0.5,4.8-0.8,9-1,12.8c-0.3,4,0,8,0.3,12.3c0.3,2.5,0.5,5,0.8,7.5c0.3,2.5,0,6.5-0.8,12.3
			c0,1,0,2-0.3,2.8c-0.3,0.8-0.3,1.8-0.3,2.8c0,2,0,4.3-0.3,6.3c-0.3,2,0,4,0.3,5.8v3.3c-0.5,1.8-0.8,3.8-0.8,5.8s0,4.8,0,7.5
			c-0.8,1.8-1,3.5-0.8,5.8c0.3,2,0.5,4,0.5,5.8l-0.3,22.9v15.6l-0.3,8l27.4-0.8v0.3c0.5,0,1,0,2,0c0.8,0,1.5,0,2.3-0.3
			c0.8-0.8,1.5-1,2-1.3s0.8-0.5,1-0.8c0.3-0.3,0.5-0.8,0.8-1.3c0.3-0.5,0.5-1.5,1-2.8c0.3-1,0.3-2.5,0.3-4.5v-14.3
			c0.3-1.3,0.3-2.5,0.3-3.8s0-2.3,0-3.8c0.3-1,0.3-2-0.3-2.8c-0.3-0.8-0.3-1.5-0.3-2.3c-0.3-1-0.3-2-0.3-2.8s-0.3-1.8-1-2.5
			c-1-2-1.5-3.8-1.3-5.5c0.3-1.8,1.5-3,3.8-3.3l7.3-0.8c1.3-0.5,2.8-0.8,4.5-0.8c1.7,0,3.3-0.3,4.5-0.8l7.5-2.3
			c0.5-0.5,0.8-0.5,1.3-0.3c0.5,0.3,0.8,0.3,1.3-0.3c1.5-1,3-1.8,4.5-1.8s3.3-0.3,5-0.8c1.8-0.5,3.3-0.8,5-0.8c1.8,0,3,0.8,4.3,2.3
			c1.3,1.3,1.3,2.8,0,4c-0.5,0.5-0.8,1.3-1.3,2.3c-0.5,1.3-0.8,2-1,2.3l-1,3.8c-0.5,1.8-0.8,3.3-0.8,5s-0.3,3.3-0.3,5v1.3
			c-0.3,1-0.3,2.3-0.5,3.3c0,1.3,0,2.3,0.3,3.8c-0.3,2-0.5,3.8-0.8,5.5c-0.3,1.8-0.3,3.8,0,6.3c-0.3,1.5-0.3,3,0,4.5
			c0.3,1.5,0,3-0.8,4.8v1.5c0.3,2.8,0.3,5.3,0.5,8c0,2.5,0,5.3-0.5,8c-0.3,1-0.3,2-0.3,3.3c0,1-0.3,2-1,3.3c-0.5,0.8-0.5,2.5-0.5,5
			s-0.3,4-1,4.8c-1,1-2,2-2.8,2.8c-0.8,0.8-1.8,1-3.3,1l-7,1c-1.3,0-2.5,0-3.8,0c-1.3,0-2.8,0.3-4,0.8c-1.8,0.5-3.5,0.5-5.3,0.3
			c-2-0.3-3.8-0.3-5.8,0H1184l-5-0.3v1.4L1179.3,540L1179.3,540z"/>
	</g>
	<g id="XMLID_10_">
		<path id="XMLID_4_" class="st0" d="M1242.9,530.9c1,0,1.3-0.5,1-1.8c-0.3-1.3,0-2,0.3-2.5c0.8-0.8,1.3-1.5,1.8-2.3
			c0.5-0.5,1-1.3,1.3-2.5c0.5-1,0.8-1.8,0.8-2.3c0-0.3,0.3-1,0.3-2.3c0-2.5,0-4.5,0-6s-0.3-3.5-0.8-6v-10.4l1.3-14.3
			c0.5-7.3,0.5-14.6,0-22.1c0-1.8,0-3.5,0.3-5.5c0.3-1.8,0-3.8-0.3-5.5c-0.3-2.8-0.5-5.8-0.8-8.5c-0.3-2.8-0.5-5.5-0.5-8.5v-9.5
			c0-3.5,0-7,0.3-10.3c0-3.3,0.3-6.5,0.3-10.1c-0.3-1.3-0.5-2.8-0.5-4s-0.3-2.8-0.3-4c0-2.8,0-5.3,0.3-8c0-2.8,0.3-5.5,0.5-8
			c0-1.3,0-2.5,0.3-3.5c0-1,0.3-2.3,0.3-3.5s0-2.8-0.3-4c0-1.3-0.3-2.8-0.3-4c0-2.3,0.3-4.5,0.5-7c0.2-2.5,0.5-4.8,0.5-7.3
			c0-1,0-2.3,0.3-3.3c0-1,0.3-2,0.3-3.3c0.8-1.8,0.8-3.3,0-4.5c0.3-1,0.3-2,0.3-3.3c0-0.8,0-1.3,0.3-2c0-0.8,0-1.3-0.5-2
			c-0.3-1-0.3-1.8-0.3-2.3c0-0.3,0.3-1,0.3-1.8l-0.3-6.3c-0.5-1.5-0.8-2.8-1-3.8c-0.3-1-1-1.5-2-2c-0.3,0-0.3-0.3,0.3-0.8
			c0.3-0.5,0.5-0.8,0.3-0.8c-0.8,0-1-0.5-1.3-1.3c0-1,0-1.8,0.3-2.8c0.3-1,0.5-1.8,0.8-2.3c0.3-0.8,0.5-1,0.8-0.8
			c0-0.3,0.3-0.5,0.8-0.8c1-0.5,1.8-0.8,1.8-1.3s0.5-0.3,1.8,0.3c1,0.5,2.3,0.5,3.5,0.3c1.2-0.2,2.3-0.3,3.5-0.3
			c1.5-0.3,3-0.5,4.3-0.8c1.3-0.3,2.8-0.3,4,0.3c1,0.5,2.3,0.5,3.5,0.3c1.2-0.2,2.5-0.5,3.8-0.5c0.5,0,1.3,0,2.8,0s2.8,0,4,0
			c1.5,0,2.8,0,4,0.3c1.3,0,2.3,0.3,3,0.5c0.5,0,0.8,0,1.3,0.3c0.3,0,0.8,0.3,1.3,0.3c1,0,1.8,0,2.8-0.3s1.8,0,2.8,0.3
			c1,0,2.3,0,3.3-0.3c1,0,2-0.3,3.3-0.3c1,0.3,2.3,0.3,3.3,0.3s2.3,0,3.3,0l4.5-0.8c1,0,1.8,0,2.3,0.3c0.8,0,1.3,0.3,2,0.3
			c1.5,0.5,4,0.8,7,0.8c3.3,0,5.8,0,7.5-0.5c1-0.3,2.3,0,3.8,0.3c1.3,0.5,2.5,0.8,3.8,0.8c1.3,0,2.3,0,3.5,0c1.2,0,2.5,0,3.3,0.3
			c1.3,0.5,2.8,0.8,4,1c1.3,0.3,2.8,0.8,4.3,1.3c1,0.5,2.3,0.8,3.3,1.3c1,0.3,2.3,0.8,3.3,1.3c2,1,4,2,6,3.8c1.5,1,2.8,2.5,4,4
			c1,1.5,2,3,2.8,4.5c0.5,1,1,1.8,1.5,2.5c0.5,0.8,1,1.5,1.5,2.5l2.3,6.5c0.3,4.3,0.3,8.3,0,12.6v2c-0.5,4.5-0.5,8.3-0.3,11.8
			c0.3,3.5,0.3,7.3,0,11.3c-0.3,2.5-0.3,4.5,0,6.5c0.3,2,0.3,4.3,0,6.5c-0.3,2.2-0.5,4-0.8,5.8c-0.3,1.8-0.5,3.5-0.8,5.5v16.2
			c0.3,3.3,0.3,6.8,0.3,10.1c0,3.5-0.3,6.8-0.3,10.6v1.3c0,1.3,0,2.8,0,4.3s0,3-0.3,4.5c-0.5,3-0.3,6,0.3,8.5v2.3
			c0,2.5,0,4.5-0.3,6.3c0,1.8-0.3,3.8-0.3,6.3c0,0.8,0,1.3,0.3,2c0,0.8,0,1.5-0.3,2.3c-0.5,0.5-0.5,1,0,1.8c0.5,1.8,0.5,3.5,0.5,5.3
			s-0.3,3.5-0.3,5.5c0,1,0,1.5,0.3,2c0,1.5,0,3,0,4.3s0,2.5-0.3,3.5c-0.3,0.5-0.3,1-0.3,1.3c0,0.5,0.3,1,0.3,1.8c0,1,0,2.3,0.3,3.8
			c0,1.3,0,2.5-0.5,3.8c-0.5,1-0.8,2-0.8,3.8c0,0.8,0,1.3-0.3,2c0,0.8-0.3,1.3-0.3,2c-0.5,1-1,2-1.3,2.8c-0.5,0.8-1,1.5-1.3,2.5
			c-1,1.8-2.3,3.3-3.5,4.8c-1.3,1.5-2.5,3-3.8,4.8c-1.3,1.5-2.8,2.8-4.5,3.8c-1.8,1-3.3,2-4.8,3.3c-1,0.5-1.8,0.8-3,1
			c-1,0.3-2.3,0.5-3.3,1c-1,0.3-1.8,0.5-2.5,0.5c-0.7,0-1.8,0.3-2.8,0.3c-1,0.3-2.3,0.3-3.5,0.3c-1.2,0-2.3,0-3.5,0h-2.3
			c-0.8,0-1.3,0-2.3,0.3c-0.8,0.3-1.5,0.3-2.3,0c-1-0.3-2.5-0.3-4.5-0.3c-2.3,0-3.8,0-4.3,0h-1.8c-1-0.3-2-0.3-2.8-0.3
			c-0.8,0-1.8,0.3-2.8,0.5h-5.3c-1.8,0.5-3.3,0.8-4.8,0.8s-3-0.3-4.8-0.8c-1-0.5-2.3-0.5-4,0c-0.8,0.3-1.8,0.3-3,0.3h-1.3h-6
			c-0.8,0-1.8,0-3,0c-1.2,0-2.8,0-4,0.3c-1.5,0-2.8,0.3-4,0.3c-1.2,0-2.3,0.3-3,0.3c-1,0.3-2.3,0.3-3.5,0.3c-1.3,0-2.3,0-3.5,0
			c-1.5,0-3,0-4.5,0s-3,0-4.5,0.3c-1,0-2,0-2.8,0.3c-0.8,0-1.5,0-2.5-0.3h-5.3c-1,0.3-1.5,0.3-1.5-0.3c0-0.3-0.3-0.8-0.8-1.3
			c-0.3,0-0.3-0.3-0.3-1v-3L1242.9,530.9L1242.9,530.9z M1332.1,342.5c-1-0.5-1.8-0.8-3-0.8c-1.8-0.5-3.5-0.8-5-1.3s-3.3-0.5-5-0.3
			h-3c-0.8-0.3-1.5-0.3-2.3-0.3c-1,0-1.8,0-2.8,0c-2.5,0-5,0-7.5,0s-5,0-7.5,0.3c-0.5,0-1,0-1.5,0.3c-0.5,0-1.3,0.5-1.8,1.3
			c0,1.8,0,3.5-0.3,5.3c0,1.8-0.3,3.5-0.3,5.3l-0.8,5c-0.3,1.8-0.3,3.5-0.3,5s0.3,3.3,0.5,5c-0.5,2.3-0.5,4.3-0.5,6
			c0,1.8,0,4-0.3,6.5c0,2,0,4-0.3,6.3c0,2.3-0.3,4.3-0.5,6.3c0,3.3,0,6.5,0.3,10.1c0.3,3.3,0.5,6.5,0.8,10.1c0,2.8,0,5.8,0,8.5
			c0,2.8,0,5.8,0.3,9v6.5c0,1.8,0,3.3,0.3,4.8c0.3,1.5,0.3,3,0.3,4.8c-0.3,1.3-0.3,2.5-0.3,3.8s0.3,2.3,0.3,3.5c0,1.8,0,3.5-0.3,5
			c-0.3,1.8-0.3,3.3,0,5l1,26.9c0,1.5,0,3-0.3,4.5c0,1.5-0.3,2.8-0.5,4v1.3c0.8,0.3,1,0.3,1.3,0.3c0.3,0,0.5-0.3,1-0.3h3
			c1.5-0.3,3-0.3,4.5-0.3s3,0,4.5,0c0.5,0,1,0,1.3-0.3c0.5,0,1,0,1.3,0.3c1,0.5,1.8,0.5,2.5,0.5c0.8,0,1.5-0.3,2.5-0.3
			c0.8-0.3,1.8-0.3,3.3-0.3c1.5,0.5,3,0.5,4.5,0s3-0.8,4.5-1.3c1.3-0.5,2.5-1,3.5-1.8s2-1.5,2.8-2.8c1.3-2.5,2-4.8,2.3-7.3l1.3-15.3
			c0.3-4.5,0-9.8-0.8-15.3c0-0.5,0-0.8,0.3-1.3c0-0.3,0.3-0.8,0.3-1.3v-12.8c0-2.3,0-4.3-0.3-6.3c0-2,0-4,0.3-6c0-2,0-4,0-6
			s0-4,0.3-6.3l0.8-13.8v-4c0-1,0-2.3,0-3.3s0-2-0.3-3.3c0.3-1,0.3-2.3,0.3-3.8s0-2.5,0-3.5c0-2,0-3.8,0-5.5c0-1.8,0-3.5-0.3-5.3
			v-3.8c0-1.3,0-2.8,0-4c0-1.5,0-3-0.3-4.5c0-2,0-4,0-6s-0.3-4.3-0.8-6.5c0-1.8-0.8-3.3-2-4.5L1332.1,342.5z"/>
	</g>
	<g id="XMLID_3_">
		<g id="XMLID_27_">
			<path class="st0" d="M938.4,539c-0.5,0-1,0-1.5,0c-3-0.5-5.8-0.8-8.8-1.3c-4.5-0.8-7.5-4.8-5.5-9c2.3-4.8,1.5-9.3,0.5-13.6
				c-3-15.8-6.8-31.7-10.1-47.5c-2-9.5-3.5-19.1-5.3-28.6c-0.8-4.8-1.8-9.3-2.8-14.1c-1.3-5.8-2.3-11.6-3.5-17.6
				c-0.8-4.3-1.8-8.5-2.5-12.8c-0.5,0-0.8,0.3-1.3,0.3c-0.3,0.8-0.8,1.8-0.8,2.5c-3.3,16.8-6.8,33.4-10.1,50.3
				c-3.8,19.1-7.3,38.2-10.8,57.3c-1.3,7.5-2.8,15.3-3.3,23.1c-0.3,5.3,0,5.5-5.5,5.8c-10.3,0.8-20.4,1.5-30.7,2.3
				c-4,0.3-8.3,0.8-12.3,0.3c-5.3-0.5-6.8-3.5-5.3-8.3c0.3-0.8,0.5-1.5,0.5-2.3c-0.5-6-0.8-11.8-2-17.8c-2-10.1-5-19.9-7-29.9
				c-2.8-14.1-5-28.1-7.8-42.2c-3.5-17.8-7-35.7-10.8-53.3c-4-17.8-8-35.7-12.6-53.3c-0.8-4.5-2.5-8.8-4.5-12.8
				c-1.8-3.5-1.5-6,2-7.8c2-1,4.3-1.8,6.3-2.5c2.3,0,4.8,0,7,0c8.5,2.8,17.1,1,25.6,0c0.3,0,0.5,0,0.8,0c2,0.5,4,1,6,1.3
				c3.5,0.5,3.8,2.3,3.3,5.3c-0.5,3.3-1,6.8-0.5,9.8c2.8,12.8,6.3,25.6,9,38.4c4,18.8,7.8,37.7,11.3,56.8c1.8,9.5,3.3,19.1,5,28.6
				c0.5,3.3,1,6.5,4.3,9c0.3-1.3,0.5-1.8,0.5-2.5c2-12.6,4-25.4,6-37.9c3.5-21.1,7.3-42,10.8-63.1c1.8-11.1,4.5-22.1,3.3-33.4
				c-0.3-1.3,1.5-3.3,2.8-4c1.8-0.8,4-0.8,6-1c5.3-0.3,10.6-0.5,15.8-0.8c5.5-0.3,11.1-0.8,16.6-0.5c4.8,0,5.3,1.8,4.3,5.8
				c-0.5,2.3-1,4.5-0.5,6.8c1.8,8.3,3.5,16.3,5.5,24.6c5,22.6,10.3,45.5,15.3,68.1c1.8,8,2.8,16.3,4.3,24.4c0.5,2.8,1.5,5.3,2.3,7.8
				c0.3,0.5,1.3,1,2,1.3c0.3,0,1-1,1-1.5c0.5-3.5,1.3-6.8,1.5-10.3c0.3-2.8,0-5.5,0.5-8c2.3-12.8,4.8-25.4,7.3-38.2
				c3.3-17.8,6.5-35.7,9.5-53.5c1.5-8.8,3-17.6,4-26.4c0.8-4.8,1.8-6.3,6.3-5.3c7,1.5,14.1,0.8,21.4,0c4.8-0.5,9.5-0.8,14.3-0.5
				c5.5,0.3,6.5,3.3,3.5,7.8c-1,1.5-2.5,3.3-2.8,5c-2,9.8-3.8,19.9-5.8,29.7c-4,20.6-8,41.5-12.3,62.1c-2.8,13.8-6.3,27.6-9.3,41.2
				c-4.5,21.6-9,43.2-13.3,64.8c-0.8,4.3-0.8,9-0.5,13.3c0,3.5-1.8,5.8-5.3,5.3C959.2,535.5,948.9,537.7,938.4,539z"/>
		</g>
		<g id="XMLID_24_">
			<path class="st0" d="M815.7,305.8c-8.5,1-17.1,2.8-25.6,0C798.6,305.8,807.2,305.8,815.7,305.8z"/>
		</g>
	</g>
	<path id="XMLID_127_" class="st0" d="M1577.4,527.7c10.3-2.3,19.9-6.8,29.2-11.8c1-0.5,2.3-0.3,3.3-0.5c0.8-0.3,1.5-0.3,2.3-0.8
		c7.8-5,15.3-10.6,21.1-18.1c1-1.3,1.8-2.5,2.8-4c2.5,3.3,2.3,5,0.3,7c-23.1,23.9-50.5,37.4-83.2,38.2c-45,1-79.9-19.1-106-57
		c-0.8-1.3-1-3.3-0.8-4.5c0.5-2.5,1.8-4.8,3-7.8c1.5,2.3,2.3,4,3.5,5.5c1,1.8,2.3,3.3,3.5,5c0.3-0.3,0.5-0.3,0.8-0.5
		c-2-3.8-4.3-7.3-6.3-11.1c0.3-0.3,0.5-0.5,0.8-0.5c24.4,40.2,58.8,61.1,105,60.1c-1.5,0.5-3,1.3-4.5,1.8s-3,1-4.5,1.5
		c0,0.3,0,0.5,0,0.8c4-0.5,8-0.8,11.8-1.5c5.3-1,10.3-2.3,15.6-3.3c0.8-0.3,1.5,0.5,2.5,0.5C1577.4,526.9,1577.4,527.2,1577.4,527.7
		z M1544.5,531.9c0,0.3,0,0.8,0,1c5.5-0.5,11.1-1,16.6-1.5c0-0.3,0-0.5,0-0.8C1555.5,531.2,1550,531.4,1544.5,531.9z"/>
	<path id="XMLID_18_" class="st0" d="M1657.3,372.9c-6.8-13.6-15.3-25.6-25.9-35.9c-26.9-25.9-58.6-37.4-94.2-32.9
		c-25.9,3.3-53.3,16.1-72.1,35.7c-17.1,17.8-26.6,38.4-33.4,63.3c-0.3,1-0.3,2.3-0.3,3.5c0.3,0,0.5,0.3,0.8,0.3c1-2,1.8-4,2.8-6
		c0.8-1.5,1.3-3.8,3.8-3.5c0.5,0,1.3-1.3,1.5-2.3c1.8-3.3,3.3-6.5,5-10.1c0.3,0.3,0.8,0.3,1,0.5c-1.8,5.3-3.5,10.8-5,16.1l0.3,0.3
		c0.5-0.5,1-1,1.3-1.8c12.1-23.6,21.1-44.7,43-61.1h-0.3c22.6-18.8,48.5-26.9,77.9-23.4c27.6,3.5,50.5,17.1,68.9,39.2
		c4.8,5.8,9.3,11.8,14.1,17.6c0.5,0.5,1,0.8,1.5,1.3c0-0.3,0.3-0.3,0.3-0.5c-2.5-4.5-5-9.3-7.8-13.8c0.3-0.3,0.5-0.5,0.8-0.5
		c2.3,2.8,4.3,5.5,6.5,8.3c0.5,0.8,1.5,1.8,1.8,1.8c2.5-1,3,1.3,4.3,2.5c1.3,1.5,2.5,3.3,3.8,5c0.3,0,0.5-0.3,0.8-0.3
		C1658.1,374.9,1657.8,373.9,1657.3,372.9z"/>
	<path id="XMLID_29_" class="st0" d="M1555,464.1c-0.3,0-0.5-0.3-1-0.3c-0.5-0.3-0.8-0.5-1-0.8l-0.8-1.3l-0.5-0.8h-0.3
		c-0.3-0.3-0.5-0.8-0.5-1c-0.3-0.3-0.5-0.5-0.5-0.8c-0.3-0.5-0.3-1-0.5-1.5c0-0.5-0.3-1-0.5-1.3l-1.8-3l-0.3-0.3c0,0,0-0.3-0.3-0.3
		c0-0.3-0.3-0.5-0.3-0.8s-0.3-0.5-0.3-0.8c-0.3-0.5-0.3-1-0.5-1.5c-0.3-0.5-0.5-1-1-1.5c0-0.5-0.3-0.8-0.5-1.3
		c-0.3-0.3-0.5-0.8-0.5-1s0-0.3-0.3-0.5l-2.3-4.3c-0.3-0.5-0.5-0.8-0.8-1c0,0-0.3-0.5-0.5-1c0-0.3,0-0.5-0.3-0.8
		c-0.3-0.3-0.3-0.3-0.3-0.5l-0.3-0.8c-0.3-0.8-0.8-1.5-1-2.3c-0.3-0.8-0.8-1.5-1-2.3c-0.3-0.5-0.5-1-0.8-1.8
		c-0.3-0.5-0.3-1.3-0.5-1.8c0,0-0.3-0.3-0.3-0.5c-0.3-0.8-0.5-1.3-0.5-1.3s0.3-0.5,0.5-1.3c0.3,0,0.5-0.3,0.5-0.3s0,0,0.5-0.3
		l-0.3-0.3c0.3-0.3,0.3-0.3,0.5-0.3c0,0,0.3,0,0.5-0.3c0.8-0.3,1.3-0.5,1.8-1s1-1,1.8-1.3c0.3-0.3,0.3-0.3,0.5-0.5
		c0,0,0.3-0.3,0.5-0.3c0.5-0.3,1-0.8,1.3-1.5c0.3-0.5,0.5-0.8,0.8-1.3c0.3-0.3,0.3-0.8,0.5-1.3v0.3c0.3-0.8,0.5-1.8,0.5-2.5
		c0-0.5,0-1.5-0.3-2.5c0-1,0-2,0-2.5s-0.3-1.5-0.3-2.8s0-2.5,0-3.8s0-2.5,0-3.5s0-1.5,0-1.8c0-0.5,0.3-1.5,0.3-2.5s0.3-2,0.3-2.5
		v-6.5c-0.3-1.8-0.5-3.3-1-4.8c-0.3-0.5-0.5-1-0.8-1.5c-0.3-0.5-0.5-1-0.8-1.5c-0.5-0.8-1.3-1.3-2-1.8l-0.3-0.3
		c-0.5-0.5-1-0.8-1.5-0.8l-3.3-0.8c0,0-0.5,0-1.3-0.3c-0.3,0-0.5,0-0.8-0.3c-0.3,0-0.3,0-0.5,0h-0.5c-0.3,0-0.5,0-0.5-0.3
		c-0.8,0-1.5,0-2.5,0s-1.8,0-2.3,0c-0.3,0-0.5,0-0.8,0c-0.3,0-0.5,0-0.8,0.3c-0.5,0-1,0-1.5,0s-1,0-1.5-0.3c-0.5,0-1,0-1.5,0
		c-0.5,0.3-1.3,0.3-1.5,0.3l-7.3,0.3c-0.8,0-1.3,0-2,0c-0.5,0-1.3,0-2-0.3c-0.5,0-0.8,0-0.8,0c-0.3,0-0.5,0.3-1,0.3
		c-0.8,0-1.8,0-2.8-0.3c-1.3-0.3-2.5-0.3-3.8-0.5c-1.5-0.3-2.8-0.3-4.3-0.3s-2.8,0.3-4,0.8c-0.3,0-0.3,0-0.3,0h0.8h0.3
		c0,0,0,0-0.3,0h0.3c0,0-0.3,0.3-0.3,0.5c0,0.3,0,0.3-0.3,0.5c-0.3,0.3-0.3,0.3-0.3,0.3c0.3,0.3,0.3,0.5,0.3,1.3c0,0.5,0,1,0.3,1.3
		c0,0.3,0.3,0.5,0.5,0.8c0.3,0.3,0.3,0.5,0.3,0.8s0,0.5,0.3,0.8c0,0.3,0,0.5,0,0.8s0,0.5,0,0.8c-0.3,0.5-0.3,0.8-0.3,0.8
		c0,0.3,0.3,0.5,0.3,0.8c0,1.5,0,2.8,0,4s0,2.5-0.3,4c0,0.8,0,1.5,0,2.3s0,1.5,0.3,2.3v5c0,0.8,0,1.5,0,2.3s0,1.5,0,2.3s0,1.5,0,2.3
		s0,1.5,0,2.3v2.8c0,0.3,0.3,0.8,0.3,1.5c0,1,0,2,0,3s0,2.3,0,3.3c0,0.5,0,0.8,0.3,1.3c0,0.5,0.3,0.8,0.3,1.3l-0.3,2
		c0,0.5-0.3,1.3-0.3,1.8s0,1.3,0,1.8v5.3c0,0.8,0,1.5,0,2c0,0.8,0,1.3,0.3,2c0,0.5,0,0.8,0,1.3c0,0.3,0,0.8,0,1.3c0,0.3,0,0.5,0,1
		c0,0.3,0,0.8,0,1.3c0,1.3,0,2.3,0,3.5c0,1,0.3,2.3,0.3,3.3c0,0.5,0.3,1,0.3,1.5s0,1,0,1.5c0,0.8,0.3,1,0.3,1s0,0.3,0,1v2.8
		c0,0.5,0,1,0,1.3v0.5h-0.6c0,0.3,0,0.3,0,0.5s0,0.3,0,0.5c0,0-0.3,0.3-0.3,0.5h0.3l-0.3,0.8c0,0.3-0.3,0.5-0.3,0.5
		c0,0.3-0.3,0.5-0.3,0.5l-0.1,0.6c0,0.5,0,0.8-0.3,0.8c-0.3,0-0.5,0.3-0.8,0.8l-0.3,1.3c-0.3,0.3-0.5,0.8-0.3,1
		c0.3,0.3,0.5,0.5,0.8,0.5c1.8,0.8,3.3,1,4.5,1.3c1.3,0,2.5,0,3.5,0c1-0.3,2.3-0.3,3.3-0.5s2.3-0.3,3.8-0.3c0.3,0,0.8,0,1.5,0.3
		c0.7,0.3,1.5,0.3,2.3,0.3c0.8,0,1.3-0.3,1.5-0.8c0.3-0.5,0.3-1.3-0.3-2.5c-0.3-0.3-0.3-0.3-0.5,0c-0.2,0.3-0.3,0-0.3-0.5l-0.5-3.3
		v-0.8h-0.3c0-0.5,0-1.3,0-1.8s0-1.3,0.3-1.8v-2c0-0.3,0-0.5,0.3-0.5V455h-0.3v-0.8c0-0.5,0-0.5,0-0.3s0,0.3,0-0.3c0-0.5,0-1,0-1.8
		c0-0.5,0-1.3,0.3-1.8c0-0.3,0-0.3,0-0.5s0-0.3-0.3-0.5l-0.3-0.3v-9.5c0-0.3,0-0.5,0-0.8s0-0.5,0-0.8c0-0.5,0.3-0.8,0.3-1s0-0.5,0-1
		s0-1.3,0-1.5c0-0.5,0-1,0.3-1.3v-0.3c0-0.3,0-0.3,0-0.5c0,0,0-0.3,0-0.5v-1c0-0.5,0.3-0.8,0.5-1c0.2-0.2,0.5-0.3,1-0.3
		c0.3-0.3,0.8-0.5,1.8-0.3c1,0,1.5,0,1.5,0.3c0.5,0,1,0,1.5,0.3c0.3,0,0.8,0.3,0.8,0.5c0.3,0.3,0.5,0.8,0.5,1.3
		c0.3,0.5,0.5,1.3,0.8,2.3c0.3,0.5,0.5,1.3,0.8,1.8c0,0.5,0.3,1.3,0.5,2c0.3,1,0.8,1.8,1.3,2c0.5,0.3,0.8,1,1,2
		c0.5,0.8,0.8,1.5,1.3,2.5c0.3,1,0.8,1.8,1,2.8c0.3,0.5,0.5,1,0.8,1.3c0.3,0.5,0.3,1,0.5,1.3l0.5,1c-0.3,0.3-0.3,0.5,0,0.5
		c0.3,0.3,0.3,0.5,0.5,0.5c0.3,0.5,0.5,1,0.8,1.5c0.3,0.5,0.5,1,0.8,1.5c0.5,1.3,1,2.3,1.3,2.8c0.5,0.5,1,1.5,1.5,2.8
		c0.3,0.8,0.5,1.5,1,2.5c0.5,0.8,1,1.8,1.5,2.5h0.5c0,0.3,0,0.3,0,0.5c0,0,0,0.3,0,0.5l-0.3,0.3c0.3,0.5,0.3,0.8,0.3,1
		s0,0.5-0.3,0.8l0.3,0.3c-0.5,0.3-0.5,0.5-0.3,1c0.3,0.5,0.5,0.5,0.8,0.5c2.5,0.8,4.3,1,5.5,1.3c0.5,0,1,0,1.5,0c0,0,0.3,0,0.5,0
		c2,0,3.8,0,5.8,0c1.5,0,4,0.5,5.3-0.3c0.8-0.3,2-1.8,2.5-2.5C1556,465.9,1555.8,465.1,1555,464.1z M1528.9,397c0,0.3-0.3,0.5-0.3,1
		c0,0.3,0,0.5,0,1s0,1,0,1.8c0,0.5,0,1.3,0,1.8s0,1,0,1l0.3,2c0,0.5,0,0.8,0,1.3c0,0.3,0,0.8-0.3,1.3v1.3l-0.3,0.3
		c0.3,0.8,0,1.5-0.5,2c-0.3,0.3-0.3,0.8-0.5,1c-0.2,0.2-0.5,0.5-0.8,0.8c-0.3,0.3-0.8,0.8-1,1c-0.2,0.2-0.8,0.5-1.3,0.5
		c-0.8,0.3-1.8,0.5-2.5,0.5h-1c-0.5,0-0.8,0-1.3,0.3c-0.3,0-0.3,0-0.5,0c-0.3,0-0.5,0-0.8,0c-0.5,0-1,0-1.5,0s-1,0-1.5,0.3
		c-0.3,0.3-0.3,0.3-0.5,0c-0.5,0-0.8-0.3-0.8-0.3c-0.3,0-0.3,0-0.5,0c-1.3-0.3-2-0.8-2.5-1.5c-0.3-0.8-0.5-1.5-0.5-2.3s0-1.3,0-2
		c0-0.5,0-1.3-0.3-2v-0.3c0,0,0-0.3,0.3-0.3c-0.3-0.3-0.3-0.5-0.3-0.5c0-0.3,0-0.5,0-0.8s0-1,0-1.8s0-1.5,0-2.5c0-0.8,0-1.8,0-2.5
		c0-0.8,0-1.5,0-1.8v-4.8c0-1,0.3-1.5,0.5-2c0.3-0.5,1-0.8,2.3-0.8h9.5c0.5,0,1,0,1.5,0s1,0,1.5,0.3c0.3,0,0.5,0.3,0.8,0.8l0.8,0.5
		c0.8,0.5,1,1.3,1,2.3c0.3,0.5,0.3,1,0.3,1.3c0,0.5,0,1,0,1.3C1529.1,396.5,1529.1,396.7,1528.9,397z"/>
	<g id="XMLID_2_">
		<path id="XMLID_21_" class="st0" d="M1580.9,463.1l0.3,1.3c0,0.3,0,0.3,0.3,0.5c0.3,0.3,0.3,0.8,0.5,1.8c0.3,0.5,0.3,0.8-0.3,1.3
			c-0.5,0.3-1,0.5-1.3,0.3c-0.8-0.3-1.3-0.3-1.8-0.3s-1.3,0.3-1.8,0.3c-1.5,0-3,0-4.3,0.3c-1.3,0.3-2.8,0.5-4,0.5
			c-1.3,0.3-2.5,0.3-3.8,0.3c-1.3,0-2.8-0.3-4-0.8c-0.3,0-0.5-0.3-0.8-0.5c0-0.5,0-0.8,0.5-1.3v-0.3c0.5-0.8,0.8-1.3,0.8-2.3
			c0,0,0-0.3,0.3-0.3l0.3-0.3l0.5-1.8v-0.3c0.3-0.5,0.3-1,0.3-1.5c0.3-0.5,0.3-0.8,0.5-1.3c0-0.3,0.3-0.8,0.3-1.3v-1.5
			c0-0.3,0-0.8,0-1.3v-2.8c0-0.8,0-1,0-1s0-0.3-0.3-1l-0.5-3c0-1,0-1.8,0-2c0-0.3,0-1,0-2.3c0-0.5,0-0.8,0-0.8c0-0.3,0-0.5,0-0.8
			c0-0.5,0.3-0.8,0.3-1.3c0-0.3,0-0.8,0-1.3c0-0.8-0.3-1.5-0.3-2c0-0.8,0-1.3,0-2l0.3-4.5c-1.3,0-2.8,0-4.3,0.3s-2.8,0.5-3.8,1
			c-0.3,0.5-1,0.8-2.3,1c-1.3,0.2-2-0.3-2.5-1.5c-0.3-1.5-0.3-2.8,0-4c0.3-1.3,0.8-2.3,1.3-3.3s1.3-1.8,1.8-2.5
			c0.8-0.8,1.3-1.3,2-1.5c1.3-0.8,2.5-1,3.5-1.3s2-0.3,3-0.5h1.3l0.3-3.3c0-0.3,0-0.5,0-0.8s0-0.5,0-0.8v-2.8c0-0.8,0-1.5,0-2.3
			s0-1.5,0-2.3s0-1.5,0-2.3s0-1.5,0-2.3l-0.3-4.8V383c0-0.5,0-0.8-0.3-1c-0.3-0.3,0-0.8,0-1s0-0.5,0-0.8s0-0.3,0-0.5
			c0-0.8,0-1.3-0.3-1.8c-0.3-0.5-0.5-0.8-0.5-1c-0.3-0.8-0.5-1.5-0.5-2s0-1,0.3-1.3c0.3-0.5,0.5-0.8,1-0.8c0,0,0.3,0,0.5,0
			c0.3,0,0.5,0,0.8,0c0.3,0,0.5,0.3,0.8,0.3h2.3c0.8,0,1.5,0,3,0c1.3,0,2.3,0,3,0c1,0,2,0,3,0s2,0,3,0c1.5,0.3,3,0.3,4.3,0h7.3
			c0.5,0,1,0,1.5,0s1,0,1.5,0s1,0.3,1.5,0.3s1,0,1.5,0c0.3,0,0.5,0,0.8,0c0.3,0,0.5,0,0.8,0c0.8,0,1.5,0,2.5,0s1.8,0,2.5,0
			c0,0,0.3,0.3,0.5,0.3h0.5c0.3,0,0.3,0,0.5,0c0.3,0,0.3,0.3,0.5,0.3c0.8,0.3,1.3,0.3,1.3,0.3l3,1c0.5,0,1,0.3,1.5,0.8l0.3,0.3
			c1,0.5,1.5,1,2,1.8c0.8,0.8,1.3,1.8,1.5,3c0.3,0.8,0.5,1.5,0.5,2.3c0.3,0.8,0.3,1.5,0.3,2.3s0,1.3,0,1.8s0,1,0,1.5v3.3
			c0,0.8,0,1.5-0.3,2.8c-0.3,1.3-0.3,2.3-0.3,3c0,0.5,0,1.3,0,2.5s0,2.8,0,4.3s0,3,0,4.3c0,1.5,0,2.5,0.3,3.3
			c-0.3,0.8-0.3,1.5-0.3,2.8s0,2,0,2.8c0,0.5,0,0.8,0,1.3s0,0.8-0.3,1.3v0.5c-0.3,0.5-0.5,1-0.5,1.5s-0.3,1-0.5,1.5
			c-0.5,0.8-1,1.3-1.3,1.5c-0.3,0-0.3,0.3-0.5,0.5c0,0.3-0.3,0.5-0.5,0.5c-1.3,1-2.5,1.8-3.8,2.3c-0.8,0.3-1.3,0.3-1.8,0.3
			s-0.8,0-0.8,0.3l-2,0.3h-2l-3.5,0.5l-2.8-0.3l-2.5,0.5l-4.5-0.3c-0.5,0-1,0-1.3,0c-0.3,0-0.8,0-1.5,0c0,0-0.5-0.3-1.3-0.3
			c-1,0-1.5,0-2,0.3c-0.3-0.3-0.8-0.3-1,0.3c-0.3,0.3-0.5,0.8-0.5,1v1c0,0.3,0,0.3,0,0.5c0,0,0,0.3,0,0.5v0.3c0,0.5-0.3,1-0.3,1.3
			c0,0.5,0,1,0,1.5s0,0.8,0,1.3c0,0.3,0,0.8-0.3,1.3c0,0.3,0,0.5-0.3,0.8c0,0.3-0.3,0.5-0.3,0.8v3.8l0.3,0.3c0,0.3,0.3,0.3,0.3,0.5
			s0,0.3,0,0.5c-0.3,0.5-0.3,1-0.3,1.8c0,0.5,0,1.3,0,1.8v0.3v-0.3v0.5v0.8h0.3v0.5c0,0-0.3,0.3-0.3,0.5v2c0,1-0.3,2-0.3,3
			s0,2,0.3,3c0.3,1,0.3,1.5,0.5,2L1580.9,463.1L1580.9,463.1z M1580.4,397c0,1-0.3,2-0.3,3c-0.3,1.3-0.3,2.3-0.3,3c0,0.3,0,0.5,0,1
			s0,1,0,1.5s0,1,0,1.5s0,0.8,0.3,0.8v1.8c0,0.8,0.3,1.5,0.3,2c0,0.8,0,1.3,0,2c-0.3,0.8-0.3,1.5,0,2.3c0.3,0.8,0.8,1.3,2,1.5
			c0.3,0,1,0,2,0.3c0,0.3,0.3,0.3,0.5,0c0.5,0,1-0.3,1.5-0.3s1,0,1.5,0c0.3,0,0.5,0,0.5,0c0.3,0,0.3,0,0.5,0c0.2,0,0.5,0,0.8,0
			c0.3,0,0.3,0.3,0.5,0.3l1,0.3c0.5,0,1-0.3,1.3-0.3c0.5,0,0.8-0.3,1.3-0.3c1,0,1.8-0.5,2.5-1c0.3-0.3,0.5-0.5,0.5-1
			c0.3-0.3,0.3-0.8,0.5-1c0.3-0.3,0.5-0.8,0.5-1.3s0-1,0-1.3v-1.5c0-0.5,0.3-0.8,0.3-1s0-0.5,0-1c-0.3-3.3-0.3-5.8,0-7.5
			c0.3-1.8,0.3-2.8,0.3-3s0.3-0.8,0.3-1.3s0-0.8,0-1.3s0-0.8,0-1.3c0-0.3,0-0.8-0.3-1.3c0-0.8-0.5-1.3-1.3-2.3l-0.5-0.5
			c-0.3-0.3-0.5-0.3-1-0.5c-0.5,0-1-0.3-1.5-0.3s-1,0-1.5,0l-9.3-0.3c-1.3,0-2,0.3-2.3,0.8c-0.3,0.5-0.5,1-0.5,2L1580.4,397
			L1580.4,397L1580.4,397z"/>
	</g>
	<path id="XMLID_1_" class="st0" d="M1659.8,458.1c-1-0.3-2,0.3-2.3,1.3c-0.5,1.3-1,2.5-1.8,3.5c-0.3,0.8-1,1.3-1.5,1.8
		c-0.8,0.8-2,1.3-2.5,2c-3,5.8-3.8,11.8-7.3,16.8c-0.3,0.3-0.5,0.8-0.5,1l-0.3,4.5c7.3-9,12.1-18.8,16.6-30.2L1659.8,458.1z"/>
</g>
<g>
	<polygon class="st0" points="1761.8,372.5 1786.5,372.5 1786.5,491.5 1805.5,491.5 1805.5,372.5 1830.2,372.5 1830.2,354.8 
		1761.8,354.8 	"/>
	<path class="st0" d="M1877.9,352.9c-11.9,0-21.1,3.6-27.3,10.8c-6.3,7.2-9.4,17.4-9.4,30.6v57.5c0,13.2,3.1,23.4,9.4,30.6
		s15.4,10.8,27.3,10.8c12.1,0,21.2-3.6,27.5-10.8c6.3-7.2,9.4-17.4,9.4-30.6v-57.7c0-13.2-3.1-23.4-9.4-30.5
		C1899.1,356.5,1890,352.9,1877.9,352.9z M1895.6,451.9c0,8.7-1.4,15-4.3,18.9c-2.9,4-7.4,5.9-13.4,5.9s-10.5-2-13.4-5.9
		c-2.9-4-4.3-10.3-4.3-18.9v-57.5c0-8.5,1.4-14.8,4.3-18.7c2.9-3.9,7.4-5.8,13.6-5.8c6,0,10.5,1.9,13.3,5.7
		c2.8,3.8,4.2,10.1,4.2,18.8L1895.6,451.9L1895.6,451.9z"/>
	<polygon class="st0" points="2019.7,464.9 2019.3,464.9 2000.5,354.8 1982.5,354.8 1963.3,464.5 1962.9,464.5 1945.8,354.8 
		1926.6,354.8 1951.8,491.5 1973.1,491.5 1991.2,391.2 1991.6,391.2 2009.5,491.5 2030.6,491.5 2056.2,354.8 2037.2,354.8 	"/>
	<polygon class="st0" points="2128.3,443 2127.9,443 2088.1,354.8 2073.8,354.8 2073.8,491.5 2090.6,491.5 2090.6,400.4 2091,400.4 
		2132,491.5 2145,491.5 2145,354.8 2128.3,354.8 	"/>
	<polygon class="st0" points="2222.8,412.9 2186.2,412.9 2186.2,357.3 2165.3,357.3 2165.3,489.3 2186.2,489.3 2186.2,429.8 
		2222.8,429.8 2222.8,489.3 2243.8,489.3 2243.8,357.3 2222.8,357.3 	"/>
	<path class="st0" d="M2296.8,357.3l-35.5,131.9h21.2l7.5-32.4h37.8l7.5,32.4h21.6l-35.5-131.9H2296.8z M2293.5,442.3l15.2-66.4h0.4
		l15.2,66.4H2293.5z"/>
	<polygon class="st0" points="2391.9,357.3 2371.4,357.3 2371.4,489.3 2435.2,489.3 2435.2,472.2 2391.9,472.2 	"/>
	<polygon class="st0" points="2474.9,472.2 2474.9,357.3 2454.3,357.3 2454.3,489.3 2518.1,489.3 2518.1,472.2 	"/>
</g>
<path class="st1" d="M2547.1,540.7H1740c-14,0-25.5-11.5-25.5-25.5V328.6c0-14,11.5-25.5,25.5-25.5h807.1c14,0,25.5,11.5,25.5,25.5
	v186.5C2572.7,529.2,2561.2,540.7,2547.1,540.7z"/>
</svg>
