<?xml version="1.0" encoding="utf-8"?>
<!-- Generator: Adobe Illustrator 24.0.1, SVG Export Plug-In . SVG Version: 6.00 Build 0)  -->
<svg version="1.1" id="Layer_1" xmlns="http://www.w3.org/2000/svg" xmlns:xlink="http://www.w3.org/1999/xlink" x="0px" y="0px"
	 viewBox="0 0 886.6 239.7" style="enable-background:new 0 0 886.6 239.7;" xml:space="preserve">
<style type="text/css">
	.st0{fill:#FFFFFF;}
</style>
<g>
	<g id="XMLID_6_">
		<path id="XMLID_15_" class="st0" d="M263.4,12c-0.3-1-0.3-2.1-0.3-2.9c0-0.8,0-1.3-0.5-1.8c-1-1.8-1.3-3.1-0.3-3.9s2-1.3,3.8-1.3
			c1.5,0,3.3,0,5,0.3c1.8,0.3,3,0.5,3.8,0.5c3.8,0,7.3-0.3,10.6-0.8s6.5-1,9.8-1.3c3.3-0.5,6.3-0.8,9.5-0.8c3,0,6.3,0.3,9.5,0.8
			c1,0,1.5,0.5,1.8,1.8c0.3,1,0,2.4-1,3.4c-1.3,2.1-2,3.9-2,5.4c0,0.3,0,0.5-0.3,0.8s-0.3,0.5-0.3,0.8v4.4h-0.3c0,1,0,2.4,0.3,3.4
			c0,1,0.3,2.1,0.3,3.4v10.6c0,1.3,0,2.9-0.3,4.4c0,1.5,0,3.1,0.3,4.6c0,1.8,0,3.6,0,5.4c0,1.8,0,3.6,0.3,5.4V66
			c-0.5,4.6-0.8,8.7-0.8,12.9c0,3.9,0,8.2,0.3,12.4c0.3,2.6,0.5,4.6,0.5,6.5c0,1.8,0,3.9-0.5,6.5v6.2c0,1,0,2.1-0.3,3.1
			c0,1-0.3,2.1-0.3,3.1c0,2.4,0,4.4-0.3,6.5c0,2.1,0,4.1,0.5,6.2v2.9c-0.8,3.9-1,7.7-1,11.6v2.1c-0.3,0.3-0.3,0.8-0.3,1.3
			c0.3,1.8,0.3,3.6,0.3,5.1s-0.3,3.4-0.3,5.1l-0.3,23v15.7l-0.3,23.7v4.9h0.8l0.8,3.4c0.3,1,0.3,2.1,0.3,2.9s0,1.3,0.5,1.8
			c1,1.8,1.3,3.1,0.3,3.9s-2,1.3-3.8,1.3c-1.5,0-3.3,0-5-0.3c-1.8-0.3-3-0.5-3.8-0.5c-3.8,0-7,0.3-10.1,0.8c-3,0.5-5.8,0.8-8.5,1.3
			c-2.8,0.3-5.8,0.5-9,0.5c-3.3,0-7.3-0.5-12.1-1.3c-1,0-1.5-0.5-1.8-1.5s0-2.1,1-2.9v-0.8c1.3-1.5,2-3.4,2-5.4v-0.3
			c0-0.3,0-0.3,0.3-0.3c0,0,0.3,0,0.3-0.3c0-0.5,0-0.8,0.3-0.8c0,0,0.3-0.5,0.3-0.8v-3.1h0.3c0-0.5,0-0.8,0.3-1
			c0.5-1.8,0.5-3.6,0.5-5.4s0-3.4,0.3-5.4v-5.4l0.3-10.4v-4.9c0-2.4,0-4.4-0.3-6.5c0-2.1-0.3-4.1-0.3-6.5c-0.3-0.5-0.3-1-0.3-1.3
			c0-0.5,0.3-1,0.3-1.3c0-2.4,0-4.6,0.3-7s0.3-4.6,0.3-7c0-1.5,0-3.1-0.3-4.9c0-1.5,0-3.1,0.3-4.9c0.3-0.8,0.3-1.3,0.3-1.8
			s0-1,0.3-1.3c0-3.4,0-6.7,0.3-10c0.3-3.4,0.5-6.5,0.8-9.7v-8c-0.3-0.3-0.3-0.5-0.3-1l0.8-9.2v-1.3c0-1,0-2.1-0.3-2.9
			c0-0.8,0-1.8,0.3-2.9c0-0.5,0-0.8,0.3-1.3c0-0.3,0.3-0.8,0.3-1.5c0-1.3,0-2.9-0.3-4.4c0-1.5-0.3-3.1-0.5-4.6c0-1.8,0-3.6,0.3-5.1
			c0-1.5,0.3-3.4,0.3-5.1V59.9c0-1.5,0-3.1,0-4.6s0-3.1-0.3-4.6c0-1.5-0.3-3.1-0.5-4.4c-0.3-1.3-0.5-2.9-0.5-4.1l0.3-6.2
			c0-1,0-1.8-0.3-2.6c0-0.8,0-1.5,0.3-2.6c0-1,0-2.4-0.3-3.6c0-1.3,0-2.4,0.3-3.6c0-1,0-1.8-0.3-2.6c-0.3-0.8-0.3-1.8-0.3-2.9
			c-0.3-0.5-0.3-1.3-0.3-2.9L263.4,12z"/>
	</g>
	<g id="XMLID_9_">
		<path id="XMLID_13_" class="st0" d="M405.6,238.9c-7.3,0-12.3,0-15.1-0.3c-2.8,0-4.8-0.3-6.3-0.3s-3,0-4.8,0s-5,0-10.1,0
			c-3,0-8,0.3-15.1,1c-7,0.8-15.6,0-25.8-1.5c-0.8,0.3-1.3-0.3-2-1.5c-0.8-1.3-1-2.5-1-4s0-3,0.8-4.5c0.5-1.5,1.5-2.8,2.8-3.8h0.3
			c0.5-0.8,0.8-1,1-1v-0.3l0,0c0-0.3,0-0.3,0.3-0.5c0,0,0.3-0.3,0.3-0.5c0-0.3,0-0.5,0.3-0.8c0-0.3,0.3-0.5,0.3-1l-0.3-1.5h0.3
			l0.8-0.3c0.5-2,0.5-3,0.5-3.8c0-0.5,0-1.8,0.3-4v-5l0.3-10.7V190c0-2.3,0-4.5-0.3-6.5c0-2-0.3-4-0.3-6c-0.3-0.8-0.3-1.3-0.3-1.8
			s0.3-1,0.3-1.5c0-2,0-4.3,0.3-6.5c0.3-2.3,0.3-4.5,0.3-7c0-1.5,0-3-0.3-4.8c0-1.8,0-3.3,0.3-4.5c0.3-0.8,0.3-1.5,0.3-2
			s0-0.8,0.3-1.3c0-3.3,0.3-6.8,0.5-10.1s0.5-6.5,0.8-10.1v-7.3c-0.3-0.3-0.3-0.8-0.3-1.8s0.3-3.8,0.8-8.8v-1.3c0-1.8,0-3.3,0.3-4.5
			c0-1.3,0.3-2.8,0.3-4c0-0.8,0-1.8-0.3-3.3c0-1.5-0.3-3-0.3-4.8s-0.3-3.3-0.5-5c-0.3-1.5-0.3-2.8-0.3-3.3c0-1.8,0-3.3,0.3-5
			c0-1.8,0.3-3.3,0.3-5c0-5.8,0-9.8,0.3-12.7c0-2.8,0.3-4.5,0.3-5.5s0-1.8,0-2c0-0.3,0-0.8,0-1.5c0-1.5,0-2.8-0.3-4
			c-0.3-1.3-0.3-2.8-0.3-4.5v-6c0-1,0-2-0.3-2.8s0-1.5,0.3-2.3c0-1,0-2.3-0.3-3.3c-0.3-1.3,0-2.3,0.3-3.3c0-1-0.3-2-0.5-2.8
			c-0.3-0.8-0.5-1.8-0.5-2.5c-0.3-0.5-0.3-1.3-0.3-2.8l-2-3c-0.3-1-0.3-2-0.3-3s-0.3-1.8-0.8-2c-1-1.8-1-3-0.3-3.8
			c1-0.8,2.3-1.3,4-1.3c1.8,0,3.5,0,5.3,0.3c2,0.3,3.3,0.5,4,0.5c4,0,7.5-0.3,10.8-1s6.3-1.5,9.3-2c3-0.8,5.8-1,8.5-1
			c2.8,0,5.8,0.5,9,1.8c1,0,2,0.8,2.5,2c0.8,1.3,0.5,2.5-0.3,3.8c-0.8,0.8-1.3,1.8-2,3.3c-0.8,1.5-1,2.8-1,3.3v5h-0.3c0,1,0,2,0.3,3
			c0,1,0.3,2,0.3,3.3v9.8c0,1.8,0,3.3-0.3,4.5c0,1.3,0,3,0.3,4.5c0,1.8,0,3.5,0,5.3c0,2,0,3.8,0.3,5.3V67c-0.5,4.8-0.8,9-1,12.9
			c-0.3,4,0,8,0.3,12.4c0.3,2.5,0.5,5,0.8,7.5s0,6.5-0.8,12.4c0,1,0,2-0.3,2.8s-0.3,1.8-0.3,2.8c0,2,0,4.3-0.3,6.3s0,4,0.3,5.8v3.3
			c-0.5,1.8-0.8,3.8-0.8,5.8s0,4.8,0,7.5c-0.8,1.8-1,3.5-0.8,5.8c0.3,2,0.5,4,0.5,5.8l-0.3,23v15.7l-0.3,8l27.3-0.8v0.3
			c0.5,0,1,0,2,0c0.8,0,1.5,0,2.3-0.3c0.8-0.8,1.5-1,2-1.3s0.8-0.5,1-0.8c0.3-0.3,0.5-0.8,0.8-1.3s0.5-1.5,1-2.8
			c0.3-1,0.3-2.5,0.3-4.5V179c0.3-1.3,0.3-2.5,0.3-3.8s0-2.3,0-3.8c0.3-1,0.3-2-0.3-2.8c-0.3-0.8-0.3-1.5-0.3-2.3
			c-0.3-1-0.3-2-0.3-2.8s-0.3-1.8-1-2.5c-1-2-1.5-3.8-1.3-5.5c0.3-1.8,1.5-3,3.8-3.3l7.3-0.8c1.3-0.5,2.8-0.8,4.5-0.8
			s3.3-0.3,4.5-0.8l7.5-2.3c0.5-0.5,0.8-0.5,1.3-0.3c0.5,0.3,0.8,0.3,1.3-0.3c1.5-1,3-1.8,4.5-1.8s3.3-0.3,5-0.8
			c1.8-0.5,3.3-0.8,5-0.8c1.8,0,3,0.8,4.3,2.3c1.3,1.3,1.3,2.8,0,4c-0.5,0.5-0.8,1.3-1.3,2.3c-0.5,1.3-0.8,2-1,2.3l-1,3.8
			c-0.5,1.8-0.8,3.3-0.8,5s-0.3,3.3-0.3,5v1.3c-0.3,1-0.3,2.3-0.5,3.3c0,1.3,0,2.3,0.3,3.8c-0.3,2-0.5,3.8-0.8,5.5
			c-0.3,1.8-0.3,3.8,0,6.3c-0.3,1.5-0.3,3,0,4.5s0,3-0.8,4.8v1.5c0.3,2.8,0.3,5.3,0.5,8c0,2.5,0,5.3-0.5,8c-0.3,1-0.3,2-0.3,3.3
			c0,1-0.3,2-1,3.3c-0.5,0.8-0.5,2.5-0.5,5s-0.3,4-1,4.8c-1,1-2,2-2.8,2.8s-1.8,1-3.3,1l-7,1c-1.3,0-2.5,0-3.8,0s-2.8,0.3-4,0.8
			c-1.8,0.5-3.5,0.5-5.3,0.3c-2-0.3-3.8-0.3-5.8,0h-10.1l-5-0.3v1.4h0.3V238.9z"/>
	</g>
	<g id="XMLID_10_">
		<path id="XMLID_4_" class="st0" d="M469.2,232.9c1,0,1.3-0.5,1-1.8s0-2,0.3-2.5c0.8-0.8,1.3-1.5,1.8-2.3c0.5-0.5,1-1.3,1.3-2.5
			c0.5-1,0.8-1.8,0.8-2.3c0-0.3,0.3-1,0.3-2.3c0-2.5,0-4.6,0-6.1s-0.3-3.5-0.8-6.1v-10.5l1.3-14.5c0.5-7.4,0.5-14.8,0-22.4
			c0-1.8,0-3.5,0.3-5.6c0.3-1.8,0-3.9-0.3-5.6c-0.3-2.8-0.5-5.9-0.8-8.6c-0.3-2.8-0.5-5.6-0.5-8.6v-9.6c0-3.5,0-7.1,0.3-10.4
			c0-3.3,0.3-6.6,0.3-10.2c-0.3-1.3-0.5-2.8-0.5-4.1c0-1.2-0.3-2.8-0.3-4.1c0-2.8,0-5.4,0.3-8.1c0-2.8,0.3-5.6,0.5-8.1
			c0-1.3,0-2.5,0.3-3.5c0-1,0.3-2.3,0.3-3.5s0-2.8-0.3-4.1c0-1.3-0.3-2.8-0.3-4.1c0-2.3,0.3-4.6,0.5-7.1s0.5-4.9,0.5-7.4
			c0-1,0-2.3,0.3-3.3c0-1,0.3-2,0.3-3.3c0.8-1.8,0.8-3.3,0-4.6c0.3-1,0.3-2,0.3-3.3c0-0.8,0-1.3,0.3-2c0-0.8,0-1.3-0.5-2
			c-0.3-1-0.3-1.8-0.3-2.3c0-0.3,0.3-1,0.3-1.8l-0.3-6.4c-0.5-1.5-0.8-2.8-1-3.9c-0.3-1-1-1.5-2-2c-0.3,0-0.3-0.3,0.3-0.8
			c0.3-0.5,0.5-0.8,0.3-0.8c-0.8,0-1-0.5-1.3-1.3c0-1,0-1.8,0.3-2.8s0.5-1.8,0.8-2.3c0.3-0.8,0.5-1,0.8-0.8c0-0.3,0.3-0.5,0.8-0.8
			c1-0.5,1.8-0.8,1.8-1.3s0.5-0.3,1.8,0.3c1,0.5,2.3,0.5,3.5,0.3s2.3-0.3,3.5-0.3c1.5-0.3,3-0.5,4.3-0.8s2.8-0.3,4,0.3
			c1,0.5,2.3,0.5,3.5,0.3s2.5-0.5,3.8-0.5c0.5,0,1.3,0,2.8,0s2.8,0,4,0c1.5,0,2.8,0,4,0.3c1.3,0,2.3,0.3,3,0.5c0.5,0,0.8,0,1.3,0.3
			c0.3,0,0.8,0.3,1.3,0.3c1,0,1.8,0,2.8-0.3s1.8,0,2.8,0.3c1,0,2.3,0,3.3-0.3c1,0,2-0.3,3.3-0.3c1,0.3,2.3,0.3,3.3,0.3s2.3,0,3.3,0
			l4.5-0.8c1,0,1.8,0,2.3,0.3c0.8,0,1.3,0.3,2,0.3c1.5,0.5,4,0.8,7,0.8c3.3,0,5.8,0,7.5-0.5c1-0.3,2.3,0,3.8,0.3
			c1.3,0.5,2.5,0.8,3.8,0.8s2.3,0,3.5,0s2.5,0,3.3,0.3c1.3,0.5,2.8,0.8,4,1c1.3,0.3,2.8,0.8,4.3,1.3c1,0.5,2.3,0.8,3.3,1.3
			c1,0.3,2.3,0.8,3.3,1.3c2,1,4,2,6,3.9c1.5,1,2.8,2.5,4,4.1c1,1.5,2,3,2.8,4.6c0.5,1,1,1.8,1.5,2.5c0.5,0.8,1,1.5,1.5,2.5l2.3,6.6
			c0.3,4.4,0.3,8.4,0,12.8v2c-0.5,4.6-0.5,8.4-0.3,12c0.3,3.5,0.3,7.4,0,11.5c-0.3,2.5-0.3,4.6,0,6.6s0.3,4.4,0,6.6
			s-0.5,4.1-0.8,5.9s-0.5,3.5-0.8,5.6v16.4c0.3,3.3,0.3,6.9,0.3,10.2c0,3.5-0.3,6.9-0.3,10.7v1.3c0,1.3,0,2.8,0,4.4s0,3-0.3,4.6
			c-0.5,3-0.3,6.1,0.3,8.6v2.3c0,2.5,0,4.6-0.3,6.4c0,1.8-0.3,3.9-0.3,6.4c0,0.8,0,1.3,0.3,2c0,0.8,0,1.5-0.3,2.3
			c-0.5,0.5-0.5,1,0,1.8c0.5,1.8,0.5,3.5,0.5,5.4c0,1.8-0.3,3.5-0.3,5.6c0,1,0,1.5,0.3,2c0,1.5,0,3,0,4.4c0,1.3,0,2.5-0.3,3.5
			c-0.3,0.5-0.3,1-0.3,1.3c0,0.5,0.3,1,0.3,1.8c0,1,0,2.3,0.3,3.9c0,1.3,0,2.5-0.5,3.9c-0.5,1-0.8,2-0.8,3.9c0,0.8,0,1.3-0.3,2
			c0,0.8-0.3,1.3-0.3,2c-0.5,1-1,2-1.3,2.8c-0.5,0.8-1,1.5-1.3,2.5c-1,1.8-2.3,3.3-3.5,4.9c-1.3,1.5-2.5,3-3.8,4.9
			c-1.3,1.5-2.8,2.8-4.5,3.9c-1.8,1-3.3,2-4.8,3.3c-1,0.5-1.8,0.8-3,1c-1,0.3-2.3,0.5-3.3,1c-1,0.3-1.8,0.5-2.5,0.5
			s-1.8,0.3-2.8,0.3c-1,0.3-2.3,0.3-3.5,0.3s-2.3,0-3.5,0H563c-0.8,0-1.3,0-2.3,0.3c-0.8,0.3-1.5,0.3-2.3,0c-1-0.3-2.5-0.3-4.5-0.3
			c-2.3,0-3.8,0-4.3,0h-1.8c-1-0.3-2-0.3-2.8-0.3s-1.8,0.3-2.8,0.5h-5.3c-1.8,0.5-3.3,0.8-4.8,0.8s-3-0.3-4.8-0.8
			c-1-0.5-2.3-0.5-4,0c-0.8,0.3-1.8,0.3-3,0.3H519h-6c-0.8,0-1.8,0-3,0s-2.8,0-4,0.3c-1.5,0-2.8,0.3-4,0.3s-2.3,0.3-3,0.3
			c-1,0.3-2.3,0.3-3.5,0.3c-1.3,0-2.3,0-3.5,0c-1.5,0-3,0-4.5,0s-3,0-4.5,0.3c-1,0-2,0-2.8,0.3c-0.8,0-1.5,0-2.5-0.3h-5.3
			c-1,0.3-1.5,0.3-1.5-0.3c0-0.3-0.3-0.8-0.8-1.3c-0.3,0-0.3-0.3-0.3-1v-3L469.2,232.9L469.2,232.9z M558.4,42c-1-0.5-1.8-0.8-3-0.8
			c-1.8-0.5-3.5-0.8-5-1.3s-3.3-0.5-5-0.3h-3c-0.8-0.3-1.5-0.3-2.3-0.3c-1,0-1.8,0-2.8,0c-2.5,0-5,0-7.5,0s-5,0-7.5,0.3
			c-0.5,0-1,0-1.5,0.3c-0.5,0-1.3,0.5-1.8,1.3c0,1.8,0,3.5-0.3,5.4c0,1.8-0.3,3.5-0.3,5.4l-0.8,5.1c-0.3,1.8-0.3,3.5-0.3,5.1
			s0.3,3.3,0.5,5.1c-0.5,2.3-0.5,4.4-0.5,6.1c0,1.8,0,4.1-0.3,6.6c0,2,0,4.1-0.3,6.4c0,2.3-0.3,4.4-0.5,6.4c0,3.3,0,6.6,0.3,10.2
			c0.3,3.3,0.5,6.6,0.8,10.2c0,2.8,0,5.9,0,8.6c0,2.8,0,5.9,0.3,9.1v6.6c0,1.8,0,3.3,0.3,4.9s0.3,3,0.3,4.9
			c-0.3,1.3-0.3,2.5-0.3,3.9c0,1.3,0.3,2.3,0.3,3.5c0,1.8,0,3.5-0.3,5.1c-0.3,1.8-0.3,3.3,0,5.1l1,27.3c0,1.5,0,3-0.3,4.6
			c0,1.5-0.3,2.8-0.5,4.1v1.3c0.8,0.3,1,0.3,1.3,0.3s0.5-0.3,1-0.3h3c1.5-0.3,3-0.3,4.5-0.3s3,0,4.5,0c0.5,0,1,0,1.3-0.3
			c0.5,0,1,0,1.3,0.3c1,0.5,1.8,0.5,2.5,0.5c0.8,0,1.5-0.3,2.5-0.3c0.8-0.3,1.8-0.3,3.3-0.3c1.5,0.5,3,0.5,4.5,0s3-0.8,4.5-1.3
			c1.3-0.5,2.5-1,3.5-1.8s2-1.5,2.8-2.8c1.3-2.5,2-4.9,2.3-7.4l1.3-15.5c0.3-4.6,0-9.9-0.8-15.5c0-0.5,0-0.8,0.3-1.3
			c0-0.3,0.3-0.8,0.3-1.3v-13c0-2.3,0-4.4-0.3-6.4c0-2,0-4.1,0.3-6.1c0-2,0-4.1,0-6.1s0-4.1,0.3-6.4l0.8-14v-4.1c0-1,0-2.3,0-3.3
			s0-2-0.3-3.3c0.3-1,0.3-2.3,0.3-3.9c0-1.5,0-2.5,0-3.5c0-2,0-3.9,0-5.6c0-1.8,0-3.5-0.3-5.4v-3.9c0-1.3,0-2.8,0-4.1
			c0-1.5,0-3-0.3-4.6c0-2,0-4.1,0-6.1s-0.3-4.4-0.8-6.6c0-1.8-0.8-3.3-2-4.6L558.4,42z"/>
	</g>
	<g id="XMLID_3_">
		<g id="XMLID_27_">
			<path class="st0" d="M165,239.7c-0.5,0-1,0-1.5,0c-3-0.5-5.8-0.8-8.9-1.3c-4.5-0.8-7.6-4.9-5.5-9.3c2.3-4.9,1.5-9.6,0.5-14
				c-3-16.2-6.9-32.6-10.2-48.8c-2-9.8-3.5-19.6-5.3-29.4c-0.8-4.9-1.8-9.6-2.8-14.5c-1.3-6-2.3-11.9-3.5-18.1
				c-0.8-4.4-1.8-8.7-2.5-13.2c-0.5,0-0.8,0.3-1.3,0.3c-0.3,0.8-0.8,1.9-0.8,2.6c-3.3,17.3-6.9,34.3-10.2,51.7
				c-3.8,19.6-7.4,39.3-10.9,58.9c-1.3,7.7-2.8,15.7-3.3,23.8c-0.3,5.4,0,5.7-5.5,6c-10.4,0.8-20.6,1.5-30.9,2.4
				c-4,0.3-8.4,0.8-12.4,0.3c-5.3-0.5-6.9-3.6-5.3-8.5c0.3-0.8,0.5-1.5,0.5-2.4c-0.5-6.2-0.8-12.1-2-18.3c-2-10.4-5-20.5-7.1-30.7
				c-2.8-14.5-5-28.9-7.9-43.4c-3.6-18.4-7.2-36.8-11-54.9c-4-18.3-8.1-36.7-12.7-54.8C3.7,19.4,2,15,0,10.9c-1.8-3.6-1.5-6.2,2-8
				c2-1,4.3-1.9,6.3-2.6c2.3,0,4.8,0,7.1,0c8.6,2.9,17.2,1,25.8,0c0.3,0,0.5,0,0.8,0c2,0.5,4,1,6,1.3C51.5,2.1,51.8,4,51.3,7
				c-0.5,3.4-1,7-0.5,10.1c2.8,13.2,6.3,26.3,9.1,39.5c4,19.3,7.9,38.8,11.4,58.4c1.8,9.8,3.3,19.6,5,29.4c0.5,3.4,1,6.7,4.3,9.3
				c0.3-1.3,0.5-1.9,0.5-2.6c2-13,4-26.1,6-39c3.5-21.7,7.4-43.2,10.9-64.9c1.8-11.4,4.5-22.7,3.3-34.3c-0.3-1.3,1.5-3.4,2.8-4.1
				c1.8-0.8,4-0.8,6-1c5.3-0.3,10.7-0.5,15.9-0.8c5.5-0.3,11.2-0.8,16.7-0.5c4.8,0,5.3,1.9,4.3,6c-0.5,2.4-1,4.6-0.5,7
				c1.8,8.5,3.5,16.8,5.5,25.3c5,23.2,10.4,46.8,15.4,70c1.8,8.2,2.8,16.8,4.3,25.1c0.5,2.9,1.5,5.4,2.3,8c0.3,0.5,1.3,1,2,1.3
				c0.3,0,1-1,1-1.5c0.5-3.6,1.3-7,1.5-10.6c0.3-2.9,0-5.7,0.5-8.2c2.3-13.2,4.8-26.1,7.4-39.3c3.3-18.3,6.5-36.7,9.6-55
				c1.5-9,3-18.1,4-27.1c0.8-4.9,1.8-6.5,6.3-5.4c7.1,1.5,14.2,0.8,21.6,0c4.8-0.5,9.6-0.8,14.4-0.5c5.5,0.3,6.5,3.4,3.5,8
				c-1,1.5-2.5,3.4-2.8,5.1c-2,10.1-3.8,20.5-5.8,30.5c-4,21.2-8.1,42.7-12.4,63.9c-2.8,14.2-6.3,28.4-9.4,42.4
				c-4.5,22.2-9.1,44.4-13.4,66.6c-0.8,4.4-0.8,9.3-0.5,13.7c0,3.6-1.8,6-5.3,5.4C186,236.1,175.6,238.4,165,239.7z"/>
		</g>
	</g>
	<path id="XMLID_127_" class="st0" d="M803.7,229.5c10.3-2.3,19.9-6.9,29.2-12c1-0.5,2.3-0.3,3.3-0.5c0.8-0.3,1.5-0.3,2.3-0.8
		c7.8-5.1,15.3-10.7,21.1-18.3c1-1.3,1.8-2.5,2.8-4.1c2.5,3.3,2.3,5.1,0.3,7.1c-23.1,24.2-50.5,37.9-83.2,38.7
		c-45,1-79.9-19.3-106-57.7c-0.8-1.3-1-3.3-0.8-4.6c0.5-2.5,1.8-4.9,3-7.9c1.5,2.3,2.3,4.1,3.5,5.6c1,1.8,2.3,3.3,3.5,5.1
		c0.3-0.3,0.5-0.3,0.8-0.5c-2-3.8-4.3-7.4-6.3-11.2c0.3-0.3,0.5-0.5,0.8-0.5c24.4,40.7,58.8,61.9,105,60.9c-1.5,0.5-3,1.3-4.5,1.8
		s-3,1-4.5,1.5c0,0.3,0,0.5,0,0.8c4-0.5,8-0.8,11.8-1.5c5.3-1,10.3-2.3,15.6-3.3c0.8-0.3,1.5,0.5,2.5,0.5
		C803.7,228.7,803.7,229,803.7,229.5z M770.8,233.8c0,0.3,0,0.8,0,1c5.5-0.5,11.1-1,16.6-1.5c0-0.3,0-0.5,0-0.8
		C781.8,233.1,776.3,233.3,770.8,233.8z"/>
	<path id="XMLID_18_" class="st0" d="M883.6,72.7c-6.8-13.8-15.3-25.9-25.9-36.4C830.8,10.1,799.1-1.5,763.5,3
		c-25.9,3.3-53.3,16.3-72.1,36.2c-17.1,18-26.6,38.9-33.4,64.1c-0.3,1-0.3,2.3-0.3,3.5c0.3,0,0.5,0.3,0.8,0.3c1-2,1.8-4.1,2.8-6.1
		c0.8-1.5,1.3-3.8,3.8-3.5c0.5,0,1.3-1.3,1.5-2.3c1.8-3.3,3.3-6.6,5-10.2c0.3,0.3,0.8,0.3,1,0.5c-1.8,5.4-3.5,10.9-5,16.3l0.3,0.3
		c0.5-0.5,1-1,1.3-1.8c12.1-23.9,21.1-45.3,43-61.9h-0.3c22.6-19,48.5-27.3,77.9-23.7c27.6,3.5,50.5,17.3,68.9,39.7
		c4.8,5.9,9.3,12,14.1,17.8c0.5,0.5,1,0.8,1.5,1.3c0-0.3,0.3-0.3,0.3-0.5c-2.5-4.6-5-9.4-7.8-14c0.3-0.3,0.5-0.5,0.8-0.5
		c2.3,2.8,4.3,5.6,6.5,8.4c0.5,0.8,1.5,1.8,1.8,1.8c2.5-1,3,1.3,4.3,2.5c1.3,1.5,2.5,3.3,3.8,5.1c0.3,0,0.5-0.3,0.8-0.3
		C884.4,74.7,884.1,73.7,883.6,72.7z"/>
	<path id="XMLID_29_" class="st0" d="M781.3,165.1c-0.3,0-0.5-0.3-1-0.3c-0.5-0.3-0.8-0.5-1-0.8l-0.8-1.3l-0.5-0.8h-0.3
		c-0.3-0.3-0.5-0.8-0.5-1c-0.3-0.3-0.5-0.5-0.5-0.8c-0.3-0.5-0.3-1-0.5-1.5c0-0.5-0.3-1-0.5-1.3l-1.8-3l-0.3-0.3c0,0,0-0.3-0.3-0.3
		c0-0.3-0.3-0.5-0.3-0.8s-0.3-0.5-0.3-0.8c-0.3-0.5-0.3-1-0.5-1.5c-0.3-0.5-0.5-1-1-1.5c0-0.5-0.3-0.8-0.5-1.3
		c-0.3-0.3-0.5-0.8-0.5-1s0-0.3-0.3-0.5l-2.3-4.4c-0.3-0.5-0.5-0.8-0.8-1c0,0-0.3-0.5-0.5-1c0-0.3,0-0.5-0.3-0.8s-0.3-0.3-0.3-0.5
		l-0.3-0.8c-0.3-0.8-0.8-1.5-1-2.3c-0.3-0.8-0.8-1.5-1-2.3c-0.3-0.5-0.5-1-0.8-1.8c-0.3-0.5-0.3-1.3-0.5-1.8c0,0-0.3-0.3-0.3-0.5
		c-0.3-0.8-0.5-1.3-0.5-1.3s0.3-0.5,0.5-1.3c0.3,0,0.5-0.3,0.5-0.3s0,0,0.5-0.3l-0.3-0.3c0.3-0.3,0.3-0.3,0.5-0.3c0,0,0.3,0,0.5-0.3
		c0.8-0.3,1.3-0.5,1.8-1s1-1,1.8-1.3c0.3-0.3,0.3-0.3,0.5-0.5c0,0,0.3-0.3,0.5-0.3c0.5-0.3,1-0.8,1.3-1.5c0.3-0.5,0.5-0.8,0.8-1.3
		c0.3-0.3,0.3-0.8,0.5-1.3v0.3c0.3-0.8,0.5-1.8,0.5-2.5c0-0.5,0-1.5-0.3-2.5c0-1,0-2,0-2.5s-0.3-1.5-0.3-2.8s0-2.5,0-3.8
		s0-2.5,0-3.5s0-1.5,0-1.8c0-0.5,0.3-1.5,0.3-2.5s0.3-2,0.3-2.5v-6.6c-0.3-1.8-0.5-3.3-1-4.9c-0.3-0.5-0.5-1-0.8-1.5s-0.5-1-0.8-1.5
		c-0.5-0.8-1.3-1.3-2-1.8l-0.3-0.3c-0.5-0.5-1-0.8-1.5-0.8l-3.3-0.8c0,0-0.5,0-1.3-0.3c-0.3,0-0.5,0-0.8-0.3c-0.3,0-0.3,0-0.5,0
		h-0.5c-0.3,0-0.5,0-0.5-0.3c-0.8,0-1.5,0-2.5,0s-1.8,0-2.3,0c-0.3,0-0.5,0-0.8,0s-0.5,0-0.8,0.3c-0.5,0-1,0-1.5,0s-1,0-1.5-0.3
		c-0.5,0-1,0-1.5,0c-0.5,0.3-1.3,0.3-1.5,0.3l-7.3,0.3c-0.8,0-1.3,0-2,0c-0.5,0-1.3,0-2-0.3c-0.5,0-0.8,0-0.8,0
		c-0.3,0-0.5,0.3-1,0.3c-0.8,0-1.8,0-2.8-0.3c-1.3-0.3-2.5-0.3-3.8-0.5c-1.5-0.3-2.8-0.3-4.3-0.3s-2.8,0.3-4,0.8c-0.3,0-0.3,0-0.3,0
		h0.8h0.3c0,0,0,0-0.3,0h0.3c0,0-0.3,0.3-0.3,0.5c0,0.3,0,0.3-0.3,0.5c-0.3,0.3-0.3,0.3-0.3,0.3c0.3,0.3,0.3,0.5,0.3,1.3
		c0,0.5,0,1,0.3,1.3c0,0.3,0.3,0.5,0.5,0.8c0.3,0.3,0.3,0.5,0.3,0.8s0,0.5,0.3,0.8c0,0.3,0,0.5,0,0.8s0,0.5,0,0.8
		c-0.3,0.5-0.3,0.8-0.3,0.8c0,0.3,0.3,0.5,0.3,0.8c0,1.5,0,2.8,0,4.1c0,1.2,0,2.5-0.3,4.1c0,0.8,0,1.5,0,2.3s0,1.5,0.3,2.3v5.1
		c0,0.8,0,1.5,0,2.3s0,1.5,0,2.3s0,1.5,0,2.3s0,1.5,0,2.3v2.8c0,0.3,0.3,0.8,0.3,1.5c0,1,0,2,0,3s0,2.3,0,3.3c0,0.5,0,0.8,0.3,1.3
		c0,0.5,0.3,0.8,0.3,1.3l-0.3,2c0,0.5-0.3,1.3-0.3,1.8c0,0.5,0,1.3,0,1.8v5.4c0,0.8,0,1.5,0,2c0,0.8,0,1.3,0.3,2c0,0.5,0,0.8,0,1.3
		c0,0.3,0,0.8,0,1.3c0,0.3,0,0.5,0,1c0,0.3,0,0.8,0,1.3c0,1.3,0,2.3,0,3.5c0,1,0.3,2.3,0.3,3.3c0,0.5,0.3,1,0.3,1.5s0,1,0,1.5
		c0,0.8,0.3,1,0.3,1s0,0.3,0,1v2.8c0,0.5,0,1,0,1.3v0.5H720c0,0.3,0,0.3,0,0.5s0,0.3,0,0.5c0,0-0.3,0.3-0.3,0.5h0.3l-0.3,0.8
		c0,0.3-0.3,0.5-0.3,0.5c0,0.3-0.3,0.5-0.3,0.5l-0.1,0.6c0,0.5,0,0.8-0.3,0.8s-0.5,0.3-0.8,0.8l-0.3,1.3c-0.3,0.3-0.5,0.8-0.3,1
		c0.3,0.3,0.5,0.5,0.8,0.5c1.8,0.8,3.3,1,4.5,1.3c1.3,0,2.5,0,3.5,0c1-0.3,2.3-0.3,3.3-0.5s2.3-0.3,3.8-0.3c0.3,0,0.8,0,1.5,0.3
		s1.5,0.3,2.3,0.3s1.3-0.3,1.5-0.8c0.3-0.5,0.3-1.3-0.3-2.5c-0.3-0.3-0.3-0.3-0.5,0s-0.3,0-0.3-0.5l-0.5-3.3v-0.8h-0.3
		c0-0.5,0-1.3,0-1.8s0-1.3,0.3-1.8v-2c0-0.3,0-0.5,0.3-0.5v-0.3h-0.3v-0.8c0-0.5,0-0.5,0-0.3s0,0.3,0-0.3c0-0.5,0-1,0-1.8
		c0-0.5,0-1.3,0.3-1.8c0-0.3,0-0.3,0-0.5s0-0.3-0.3-0.5l-0.3-0.3v-9.6c0-0.3,0-0.5,0-0.8s0-0.5,0-0.8c0-0.5,0.3-0.8,0.3-1s0-0.5,0-1
		s0-1.3,0-1.5c0-0.5,0-1,0.3-1.3v-0.3c0-0.3,0-0.3,0-0.5c0,0,0-0.3,0-0.5v-1c0-0.5,0.3-0.8,0.5-1s0.5-0.3,1-0.3
		c0.3-0.3,0.8-0.5,1.8-0.3c1,0,1.5,0,1.5,0.3c0.5,0,1,0,1.5,0.3c0.3,0,0.8,0.3,0.8,0.5c0.3,0.3,0.5,0.8,0.5,1.3
		c0.3,0.5,0.5,1.3,0.8,2.3c0.3,0.5,0.5,1.3,0.8,1.8c0,0.5,0.3,1.3,0.5,2c0.3,1,0.8,1.8,1.3,2c0.5,0.3,0.8,1,1,2
		c0.5,0.8,0.8,1.5,1.3,2.5c0.3,1,0.8,1.8,1,2.8c0.3,0.5,0.5,1,0.8,1.3c0.3,0.5,0.3,1,0.5,1.3l0.5,1c-0.3,0.3-0.3,0.5,0,0.5
		c0.3,0.3,0.3,0.5,0.5,0.5c0.3,0.5,0.5,1,0.8,1.5s0.5,1,0.8,1.5c0.5,1.3,1,2.3,1.3,2.8c0.5,0.5,1,1.5,1.5,2.8c0.3,0.8,0.5,1.5,1,2.5
		c0.5,0.8,1,1.8,1.5,2.5h0.5c0,0.3,0,0.3,0,0.5c0,0,0,0.3,0,0.5l-0.3,0.3c0.3,0.5,0.3,0.8,0.3,1s0,0.5-0.3,0.8l0.3,0.3
		c-0.5,0.3-0.5,0.5-0.3,1c0.3,0.5,0.5,0.5,0.8,0.5c2.5,0.8,4.3,1,5.5,1.3c0.5,0,1,0,1.5,0c0,0,0.3,0,0.5,0c2,0,3.8,0,5.8,0
		c1.5,0,4,0.5,5.3-0.3c0.8-0.3,2-1.8,2.5-2.5C782.3,166.9,782.1,166.1,781.3,165.1z M755.2,97.1c0,0.3-0.3,0.5-0.3,1
		c0,0.3,0,0.5,0,1s0,1,0,1.8c0,0.5,0,1.3,0,1.8s0,1,0,1l0.3,2c0,0.5,0,0.8,0,1.3c0,0.3,0,0.8-0.3,1.3v1.3l-0.3,0.3
		c0.3,0.8,0,1.5-0.5,2c-0.3,0.3-0.3,0.8-0.5,1s-0.5,0.5-0.8,0.8s-0.8,0.8-1,1s-0.8,0.5-1.3,0.5c-0.8,0.3-1.8,0.5-2.5,0.5h-1
		c-0.5,0-0.8,0-1.3,0.3c-0.3,0-0.3,0-0.5,0c-0.3,0-0.5,0-0.8,0c-0.5,0-1,0-1.5,0s-1,0-1.5,0.3c-0.3,0.3-0.3,0.3-0.5,0
		c-0.5,0-0.8-0.3-0.8-0.3c-0.3,0-0.3,0-0.5,0c-1.3-0.3-2-0.8-2.5-1.5c-0.3-0.8-0.5-1.5-0.5-2.3s0-1.3,0-2c0-0.5,0-1.3-0.3-2v-0.3
		c0,0,0-0.3,0.3-0.3c-0.3-0.3-0.3-0.5-0.3-0.5c0-0.3,0-0.5,0-0.8s0-1,0-1.8s0-1.5,0-2.5c0-0.8,0-1.8,0-2.5c0-0.8,0-1.5,0-1.8v-4.9
		c0-1,0.3-1.5,0.5-2c0.3-0.5,1-0.8,2.3-0.8h9.5c0.5,0,1,0,1.5,0s1,0,1.5,0.3c0.3,0,0.5,0.3,0.8,0.8l0.8,0.5c0.8,0.5,1,1.3,1,2.3
		c0.3,0.5,0.3,1,0.3,1.3c0,0.5,0,1,0,1.3C755.4,96.6,755.4,96.8,755.2,97.1z"/>
	<g id="XMLID_2_">
		<path id="XMLID_21_" class="st0" d="M807.2,164.1l0.3,1.3c0,0.3,0,0.3,0.3,0.5c0.3,0.3,0.3,0.8,0.5,1.8c0.3,0.5,0.3,0.8-0.3,1.3
			c-0.5,0.3-1,0.5-1.3,0.3c-0.8-0.3-1.3-0.3-1.8-0.3s-1.3,0.3-1.8,0.3c-1.5,0-3,0-4.3,0.3s-2.8,0.5-4,0.5c-1.3,0.3-2.5,0.3-3.8,0.3
			s-2.8-0.3-4-0.8c-0.3,0-0.5-0.3-0.8-0.5c0-0.5,0-0.8,0.5-1.3v-0.3c0.5-0.8,0.8-1.3,0.8-2.3c0,0,0-0.3,0.3-0.3l0.3-0.3l0.5-1.8
			v-0.3c0.3-0.5,0.3-1,0.3-1.5c0.3-0.5,0.3-0.8,0.5-1.3c0-0.3,0.3-0.8,0.3-1.3v-1.5c0-0.3,0-0.8,0-1.3v-2.8c0-0.8,0-1,0-1
			s0-0.3-0.3-1l-0.5-3c0-1,0-1.8,0-2c0-0.3,0-1,0-2.3c0-0.5,0-0.8,0-0.8c0-0.3,0-0.5,0-0.8c0-0.5,0.3-0.8,0.3-1.3c0-0.3,0-0.8,0-1.3
			c0-0.8-0.3-1.5-0.3-2c0-0.8,0-1.3,0-2l0.3-4.6c-1.3,0-2.8,0-4.3,0.3s-2.8,0.5-3.8,1c-0.3,0.5-1,0.8-2.3,1s-2-0.3-2.5-1.5
			c-0.3-1.5-0.3-2.8,0-4.1c0.3-1.3,0.8-2.3,1.3-3.3s1.3-1.8,1.8-2.5c0.8-0.8,1.3-1.3,2-1.5c1.3-0.8,2.5-1,3.5-1.3s2-0.3,3-0.5h1.3
			l0.3-3.3c0-0.3,0-0.5,0-0.8s0-0.5,0-0.8v-2.8c0-0.8,0-1.5,0-2.3s0-1.5,0-2.3s0-1.5,0-2.3s0-1.5,0-2.3l-0.3-4.9v-13
			c0-0.5,0-0.8-0.3-1c-0.3-0.3,0-0.8,0-1s0-0.5,0-0.8s0-0.3,0-0.5c0-0.8,0-1.3-0.3-1.8s-0.5-0.8-0.5-1c-0.3-0.8-0.5-1.5-0.5-2
			s0-1,0.3-1.3c0.3-0.5,0.5-0.8,1-0.8c0,0,0.3,0,0.5,0c0.3,0,0.5,0,0.8,0s0.5,0.3,0.8,0.3h2.3c0.8,0,1.5,0,3,0c1.3,0,2.3,0,3,0
			c1,0,2,0,3,0s2,0,3,0c1.5,0.3,3,0.3,4.3,0h7.3c0.5,0,1,0,1.5,0s1,0,1.5,0s1,0.3,1.5,0.3s1,0,1.5,0c0.3,0,0.5,0,0.8,0s0.5,0,0.8,0
			c0.8,0,1.5,0,2.5,0s1.8,0,2.5,0c0,0,0.3,0.3,0.5,0.3h0.5c0.3,0,0.3,0,0.5,0c0.3,0,0.3,0.3,0.5,0.3c0.8,0.3,1.3,0.3,1.3,0.3l3,1
			c0.5,0,1,0.3,1.5,0.8l0.3,0.3c1,0.5,1.5,1,2,1.8c0.8,0.8,1.3,1.8,1.5,3c0.3,0.8,0.5,1.5,0.5,2.3c0.3,0.8,0.3,1.5,0.3,2.3
			s0,1.3,0,1.8s0,1,0,1.5v3.3c0,0.8,0,1.5-0.3,2.8s-0.3,2.3-0.3,3c0,0.5,0,1.3,0,2.5s0,2.8,0,4.4c0,1.5,0,3,0,4.4
			c0,1.5,0,2.5,0.3,3.3c-0.3,0.8-0.3,1.5-0.3,2.8s0,2,0,2.8c0,0.5,0,0.8,0,1.3s0,0.8-0.3,1.3v0.5c-0.3,0.5-0.5,1-0.5,1.5
			s-0.3,1-0.5,1.5c-0.5,0.8-1,1.3-1.3,1.5c-0.3,0-0.3,0.3-0.5,0.5c0,0.3-0.3,0.5-0.5,0.5c-1.3,1-2.5,1.8-3.8,2.3
			c-0.8,0.3-1.3,0.3-1.8,0.3s-0.8,0-0.8,0.3l-2,0.3h-2l-3.5,0.5l-2.8-0.3l-2.5,0.5L814,131c-0.5,0-1,0-1.3,0s-0.8,0-1.5,0
			c0,0-0.5-0.3-1.3-0.3c-1,0-1.5,0-2,0.3c-0.3-0.3-0.8-0.3-1,0.3c-0.3,0.3-0.5,0.8-0.5,1v1c0,0.3,0,0.3,0,0.5c0,0,0,0.3,0,0.5v0.3
			c0,0.5-0.3,1-0.3,1.3c0,0.5,0,1,0,1.5s0,0.8,0,1.3c0,0.3,0,0.8-0.3,1.3c0,0.3,0,0.5-0.3,0.8c0,0.3-0.3,0.5-0.3,0.8v3.8l0.3,0.3
			c0,0.3,0.3,0.3,0.3,0.5s0,0.3,0,0.5c-0.3,0.5-0.3,1-0.3,1.8c0,0.5,0,1.3,0,1.8v0.3v-0.3v0.5v0.8h0.3v0.5c0,0-0.3,0.3-0.3,0.5v2
			c0,1-0.3,2-0.3,3s0,2,0.3,3s0.3,1.5,0.5,2L807.2,164.1L807.2,164.1z M806.7,97.1c0,1-0.3,2-0.3,3c-0.3,1.3-0.3,2.3-0.3,3
			c0,0.3,0,0.5,0,1s0,1,0,1.5s0,1,0,1.5s0,0.8,0.3,0.8v1.8c0,0.8,0.3,1.5,0.3,2c0,0.8,0,1.3,0,2c-0.3,0.8-0.3,1.5,0,2.3
			s0.8,1.3,2,1.5c0.3,0,1,0,2,0.3c0,0.3,0.3,0.3,0.5,0c0.5,0,1-0.3,1.5-0.3s1,0,1.5,0c0.3,0,0.5,0,0.5,0c0.3,0,0.3,0,0.5,0
			s0.5,0,0.8,0s0.3,0.3,0.5,0.3l1,0.3c0.5,0,1-0.3,1.3-0.3c0.5,0,0.8-0.3,1.3-0.3c1,0,1.8-0.5,2.5-1c0.3-0.3,0.5-0.5,0.5-1
			c0.3-0.3,0.3-0.8,0.5-1c0.3-0.3,0.5-0.8,0.5-1.3s0-1,0-1.3v-1.5c0-0.5,0.3-0.8,0.3-1s0-0.5,0-1c-0.3-3.3-0.3-5.9,0-7.6
			c0.3-1.8,0.3-2.8,0.3-3s0.3-0.8,0.3-1.3s0-0.8,0-1.3s0-0.8,0-1.3c0-0.3,0-0.8-0.3-1.3c0-0.8-0.5-1.3-1.3-2.3l-0.5-0.5
			c-0.3-0.3-0.5-0.3-1-0.5c-0.5,0-1-0.3-1.5-0.3s-1,0-1.5,0l-9.3-0.3c-1.3,0-2,0.3-2.3,0.8s-0.5,1-0.5,2L806.7,97.1L806.7,97.1
			L806.7,97.1z"/>
	</g>
	<path id="XMLID_1_" class="st0" d="M886.1,159c-1-0.3-2,0.3-2.3,1.3c-0.5,1.3-1,2.5-1.8,3.5c-0.3,0.8-1,1.3-1.5,1.8
		c-0.8,0.8-2,1.3-2.5,2c-3,5.9-3.8,12-7.3,17c-0.3,0.3-0.5,0.8-0.5,1l-0.3,4.6c7.3-9.1,12.1-19,16.6-30.6L886.1,159z"/>
</g>
</svg>
