<?xml version="1.0" encoding="utf-8"?>
<!-- Generator: Adobe Illustrator 24.0.1, SVG Export Plug-In . SVG Version: 6.00 Build 0)  -->
<svg version="1.1" id="Layer_1" xmlns="http://www.w3.org/2000/svg" xmlns:xlink="http://www.w3.org/1999/xlink" x="0px" y="0px"
	 viewBox="0 0 675.1 182.7" style="enable-background:new 0 0 675.1 182.7;" xml:space="preserve">
<style type="text/css">
	.st0{fill:#FFFFFF;}
</style>
<g>
	<g id="XMLID_6_">
		<path id="XMLID_15_" class="st0" d="M201.2,9.1c-0.2-0.8-0.2-1.6-0.2-2.2s0-1-0.4-1.4c-0.8-1.4-1-2.4-0.2-3s1.5-1,2.9-1
			c1.1,0,2.5,0,3.8,0.2c1.4,0.2,2.3,0.4,2.9,0.4c2.9,0,5.6-0.2,8.1-0.6c2.5-0.4,4.9-0.8,7.5-1c2.5-0.4,4.8-0.6,7.2-0.6
			c2.3,0,4.8,0.2,7.2,0.6c0.8,0,1.1,0.4,1.4,1.4c0.2,0.8,0,1.8-0.8,2.6c-1,1.6-1.5,3-1.5,4.1c0,0.2,0,0.4-0.2,0.6
			c-0.2,0.2-0.2,0.4-0.2,0.6v3.3h-0.2c0,0.8,0,1.8,0.2,2.6c0,0.8,0.2,1.6,0.2,2.6v8.1c0,1,0,2.2-0.2,3.3c0,1.1,0,2.4,0.2,3.5
			c0,1.4,0,2.7,0,4.1c0,1.4,0,2.7,0.2,4.1v8.7c-0.4,3.5-0.6,6.6-0.6,9.8c0,3,0,6.2,0.2,9.4c0.2,2,0.4,3.5,0.4,4.9c0,1.4,0,3-0.4,4.9
			V84c0,0.8,0,1.6-0.2,2.4c0,0.8-0.2,1.6-0.2,2.4c0,1.8,0,3.3-0.2,4.9c0,1.6,0,3.1,0.4,4.7v2.2c-0.6,3-0.8,5.9-0.8,8.8v1.6
			c-0.2,0.2-0.2,0.6-0.2,1c0.2,1.4,0.2,2.7,0.2,3.9c0,1.1-0.2,2.6-0.2,3.9l-0.2,17.5v11.9l-0.2,18v3.7h0.6l0.6,2.6
			c0.2,0.8,0.2,1.6,0.2,2.2c0,0.6,0,1,0.4,1.4c0.8,1.4,1,2.4,0.2,3s-1.5,1-2.9,1c-1.1,0-2.5,0-3.8-0.2c-1.4-0.2-2.3-0.4-2.9-0.4
			c-2.9,0-5.3,0.2-7.7,0.6c-2.3,0.4-4.4,0.6-6.5,1c-2.1,0.2-4.4,0.4-6.8,0.4c-2.5,0-5.6-0.4-9.2-1c-0.8,0-1.1-0.4-1.4-1.1
			c-0.2-0.8,0-1.6,0.8-2.2v-0.6c1-1.1,1.5-2.6,1.5-4.1v-0.2c0-0.2,0-0.2,0.2-0.2c0,0,0.2,0,0.2-0.2c0-0.4,0-0.6,0.2-0.6
			c0,0,0.2-0.4,0.2-0.6v-2.4h0.2c0-0.4,0-0.6,0.2-0.8c0.4-1.4,0.4-2.7,0.4-4.1s0-2.6,0.2-4.1v-4.1l0.2-7.9v-3.7c0-1.8,0-3.3-0.2-4.9
			c0-1.6-0.2-3.1-0.2-4.9c-0.2-0.4-0.2-0.8-0.2-1c0-0.4,0.2-0.8,0.2-1c0-1.8,0-3.5,0.2-5.3c0.2-1.8,0.2-3.5,0.2-5.3
			c0-1.1,0-2.4-0.2-3.7c0-1.1,0-2.4,0.2-3.7c0.2-0.6,0.2-1,0.2-1.4s0-0.8,0.2-1c0-2.6,0-5.1,0.2-7.6c0.2-2.6,0.4-4.9,0.6-7.4V91
			c-0.2-0.2-0.2-0.4-0.2-0.8l0.6-7v-1c0-0.8,0-1.6-0.2-2.2c0-0.6,0-1.4,0.2-2.2c0-0.4,0-0.6,0.2-1c0-0.2,0.2-0.6,0.2-1.1
			c0-1,0-2.2-0.2-3.3c0-1.1-0.2-2.4-0.4-3.5c0-1.4,0-2.7,0.2-3.9c0-1.1,0.2-2.6,0.2-3.9V45.6c0-1.1,0-2.4,0-3.5s0-2.4-0.2-3.5
			c0-1.1-0.2-2.4-0.4-3.3c-0.2-1-0.4-2.2-0.4-3.1l0.2-4.7c0-0.8,0-1.4-0.2-2c0-0.6,0-1.1,0.2-2c0-0.8,0-1.8-0.2-2.7
			c0-1,0-1.8,0.2-2.7c0-0.8,0-1.4-0.2-2c-0.2-0.6-0.2-1.4-0.2-2.2c-0.2-0.4-0.2-1-0.2-2.2L201.2,9.1z"/>
	</g>
	<g id="XMLID_9_">
		<path id="XMLID_13_" class="st0" d="M309.3,181.7c-5.6,0-9.4,0-11.5-0.2c-2.1,0-3.7-0.2-4.8-0.2c-1.1,0-2.3,0-3.7,0
			c-1.4,0-3.8,0-7.7,0c-2.3,0-6.1,0.2-11.5,0.8c-5.3,0.6-11.9,0-19.6-1.1c-0.6,0.2-1-0.2-1.5-1.1c-0.6-1-0.8-1.9-0.8-3
			c0-1.1,0-2.3,0.6-3.4c0.4-1.1,1.1-2.1,2.1-2.9h0.2c0.4-0.6,0.6-0.8,0.8-0.8v-0.2l0,0c0-0.2,0-0.2,0.2-0.4c0,0,0.2-0.2,0.2-0.4
			c0-0.2,0-0.4,0.2-0.6c0-0.2,0.2-0.4,0.2-0.8l-0.2-1.1h0.2l0.6-0.2c0.4-1.5,0.4-2.3,0.4-2.9c0-0.4,0-1.4,0.2-3v-3.8l0.2-8.1v-3.5
			c0-1.7,0-3.4-0.2-4.9c0-1.5-0.2-3-0.2-4.6c-0.2-0.6-0.2-1-0.2-1.4s0.2-0.8,0.2-1.1c0-1.5,0-3.3,0.2-4.9c0.2-1.7,0.2-3.4,0.2-5.3
			c0-1.1,0-2.3-0.2-3.7c0-1.4,0-2.5,0.2-3.4c0.2-0.6,0.2-1.1,0.2-1.5s0-0.6,0.2-1c0-2.5,0.2-5.2,0.4-7.7c0.2-2.5,0.4-4.9,0.6-7.7
			v-5.6c-0.2-0.2-0.2-0.6-0.2-1.4s0.2-2.9,0.6-6.7v-1c0-1.4,0-2.5,0.2-3.4c0-1,0.2-2.1,0.2-3c0-0.6,0-1.4-0.2-2.5
			c0-1.1-0.2-2.3-0.2-3.7s-0.2-2.5-0.4-3.8c-0.2-1.1-0.2-2.1-0.2-2.5c0-1.4,0-2.5,0.2-3.8c0-1.4,0.2-2.5,0.2-3.8
			c0-4.4,0-7.5,0.2-9.7c0-2.1,0.2-3.4,0.2-4.2c0-0.8,0-1.4,0-1.5c0-0.2,0-0.6,0-1.1c0-1.1,0-2.1-0.2-3c-0.2-1-0.2-2.1-0.2-3.4v-4.6
			c0-0.8,0-1.5-0.2-2.1c-0.2-0.6,0-1.1,0.2-1.7c0-0.8,0-1.7-0.2-2.5c-0.2-1,0-1.7,0.2-2.5c0-0.8-0.2-1.5-0.4-2.1
			c-0.2-0.6-0.4-1.4-0.4-1.9c-0.2-0.4-0.2-1-0.2-2.1l-1.5-2.3c-0.2-0.8-0.2-1.5-0.2-2.3c0-0.8-0.2-1.4-0.6-1.5
			c-0.8-1.4-0.8-2.3-0.2-2.9c0.8-0.6,1.7-1,3-1c1.4,0,2.7,0,4,0.2c1.5,0.2,2.5,0.4,3,0.4c3,0,5.7-0.2,8.2-0.8
			c2.5-0.5,4.8-1.1,7.1-1.5c2.3-0.6,4.4-0.8,6.5-0.8c2.1,0,4.4,0.4,6.8,1.4c0.8,0,1.5,0.6,1.9,1.5c0.6,1,0.4,1.9-0.2,2.9
			c-0.6,0.6-1,1.4-1.5,2.5c-0.6,1.1-0.8,2.1-0.8,2.5v3.8h-0.2c0,0.8,0,1.5,0.2,2.3c0,0.8,0.2,1.5,0.2,2.5V28c0,1.4,0,2.5-0.2,3.4
			c0,1,0,2.3,0.2,3.4c0,1.4,0,2.7,0,4c0,1.5,0,2.9,0.2,4V51c-0.4,3.7-0.6,6.8-0.8,9.8c-0.2,3,0,6.1,0.2,9.4c0.2,1.9,0.4,3.8,0.6,5.7
			c0.2,1.9,0,4.9-0.6,9.4c0,0.8,0,1.5-0.2,2.1s-0.2,1.4-0.2,2.1c0,1.5,0,3.3-0.2,4.8c-0.2,1.5,0,3,0.2,4.4v2.5
			c-0.4,1.4-0.6,2.9-0.6,4.4s0,3.7,0,5.7c-0.6,1.4-0.8,2.7-0.6,4.4c0.2,1.5,0.4,3,0.4,4.4l-0.2,17.5v11.9l-0.2,6.1l20.8-0.6v0.2
			c0.4,0,0.8,0,1.5,0c0.6,0,1.1,0,1.7-0.2c0.6-0.6,1.1-0.8,1.5-1c0.4-0.2,0.6-0.4,0.8-0.6c0.2-0.2,0.4-0.6,0.6-1
			c0.2-0.4,0.4-1.1,0.8-2.1c0.2-0.8,0.2-1.9,0.2-3.4v-10.9c0.2-1,0.2-1.9,0.2-2.9c0-1,0-1.7,0-2.9c0.2-0.8,0.2-1.5-0.2-2.1
			c-0.2-0.6-0.2-1.1-0.2-1.7c-0.2-0.8-0.2-1.5-0.2-2.1s-0.2-1.4-0.8-1.9c-0.8-1.5-1.1-2.9-1-4.2c0.2-1.4,1.1-2.3,2.9-2.5l5.6-0.6
			c1-0.4,2.1-0.6,3.4-0.6c1.3,0,2.5-0.2,3.4-0.6l5.7-1.7c0.4-0.4,0.6-0.4,1-0.2c0.4,0.2,0.6,0.2,1-0.2c1.1-0.8,2.3-1.4,3.4-1.4
			s2.5-0.2,3.8-0.6c1.4-0.4,2.5-0.6,3.8-0.6c1.4,0,2.3,0.6,3.3,1.7c1,1,1,2.1,0,3c-0.4,0.4-0.6,1-1,1.7c-0.4,1-0.6,1.5-0.8,1.7
			l-0.8,2.9c-0.4,1.4-0.6,2.5-0.6,3.8s-0.2,2.5-0.2,3.8v1c-0.2,0.8-0.2,1.7-0.4,2.5c0,1,0,1.7,0.2,2.9c-0.2,1.5-0.4,2.9-0.6,4.2
			c-0.2,1.4-0.2,2.9,0,4.8c-0.2,1.1-0.2,2.3,0,3.4c0.2,1.1,0,2.3-0.6,3.7v1.1c0.2,2.1,0.2,4,0.4,6.1c0,1.9,0,4-0.4,6.1
			c-0.2,0.8-0.2,1.5-0.2,2.5c0,0.8-0.2,1.5-0.8,2.5c-0.4,0.6-0.4,1.9-0.4,3.8c0,1.9-0.2,3-0.8,3.7c-0.8,0.8-1.5,1.5-2.1,2.1
			c-0.6,0.6-1.4,0.8-2.5,0.8l-5.3,0.8c-1,0-1.9,0-2.9,0c-1,0-2.1,0.2-3,0.6c-1.4,0.4-2.7,0.4-4,0.2c-1.5-0.2-2.9-0.2-4.4,0h-7.7
			l-3.8-0.2v1.1h0.2L309.3,181.7L309.3,181.7z"/>
	</g>
	<g id="XMLID_10_">
		<path id="XMLID_4_" class="st0" d="M357.7,177.1c0.8,0,1-0.4,0.8-1.4c-0.2-1,0-1.5,0.2-1.9c0.6-0.6,1-1.1,1.4-1.7
			c0.4-0.4,0.8-1,1-1.9c0.4-0.8,0.6-1.4,0.6-1.7c0-0.2,0.2-0.8,0.2-1.7c0-1.9,0-3.5,0-4.6c0-1.1-0.2-2.7-0.6-4.6v-8l1-11
			c0.4-5.6,0.4-11.3,0-17c0-1.4,0-2.7,0.2-4.3c0.2-1.4,0-3-0.2-4.3c-0.2-2.1-0.4-4.5-0.6-6.5c-0.2-2.1-0.4-4.3-0.4-6.5v-7.3
			c0-2.7,0-5.4,0.2-7.9c0-2.5,0.2-5,0.2-7.8c-0.2-1-0.4-2.1-0.4-3.1c0-0.9-0.2-2.1-0.2-3.1c0-2.1,0-4.1,0.2-6.2
			c0-2.1,0.2-4.3,0.4-6.2c0-1,0-1.9,0.2-2.7c0-0.8,0.2-1.7,0.2-2.7c0-0.9,0-2.1-0.2-3.1c0-1-0.2-2.1-0.2-3.1c0-1.7,0.2-3.5,0.4-5.4
			s0.4-3.7,0.4-5.6c0-0.8,0-1.7,0.2-2.5c0-0.8,0.2-1.5,0.2-2.5c0.6-1.4,0.6-2.5,0-3.5c0.2-0.8,0.2-1.5,0.2-2.5c0-0.6,0-1,0.2-1.5
			c0-0.6,0-1-0.4-1.5c-0.2-0.8-0.2-1.4-0.2-1.7c0-0.2,0.2-0.8,0.2-1.4l-0.2-4.9c-0.4-1.1-0.6-2.1-0.8-3c-0.2-0.8-0.8-1.1-1.5-1.5
			c-0.2,0-0.2-0.2,0.2-0.6c0.2-0.4,0.4-0.6,0.2-0.6c-0.6,0-0.8-0.4-1-1c0-0.8,0-1.4,0.2-2.1c0.2-0.8,0.4-1.4,0.6-1.7
			c0.2-0.6,0.4-0.8,0.6-0.6c0-0.2,0.2-0.4,0.6-0.6c0.8-0.4,1.4-0.6,1.4-1s0.4-0.2,1.4,0.2c0.8,0.4,1.7,0.4,2.7,0.2
			c0.9-0.2,1.7-0.2,2.7-0.2c1.1-0.2,2.3-0.4,3.3-0.6c1-0.2,2.1-0.2,3,0.2c0.8,0.4,1.7,0.4,2.7,0.2s1.9-0.4,2.9-0.4c0.4,0,1,0,2.1,0
			s2.1,0,3,0c1.1,0,2.1,0,3,0.2c1,0,1.7,0.2,2.3,0.4c0.4,0,0.6,0,1,0.2c0.2,0,0.6,0.2,1,0.2c0.8,0,1.4,0,2.1-0.2
			c0.8-0.2,1.4,0,2.1,0.2c0.8,0,1.7,0,2.5-0.2c0.8,0,1.5-0.2,2.5-0.2c0.8,0.2,1.7,0.2,2.5,0.2s1.7,0,2.5,0l3.4-0.6
			c0.8,0,1.4,0,1.7,0.2c0.6,0,1,0.2,1.5,0.2c1.1,0.4,3,0.6,5.3,0.6c2.5,0,4.4,0,5.7-0.4c0.8-0.2,1.7,0,2.9,0.2
			c1,0.4,1.9,0.6,2.9,0.6s1.7,0,2.7,0s1.9,0,2.5,0.2c1,0.4,2.1,0.6,3,0.8c1,0.2,2.1,0.6,3.3,1c0.8,0.4,1.7,0.6,2.5,1
			c0.8,0.2,1.7,0.6,2.5,1c1.5,0.8,3,1.5,4.6,3c1.1,0.8,2.1,1.9,3,3.1c0.8,1.1,1.5,2.3,2.1,3.5c0.4,0.8,0.8,1.4,1.1,1.9
			c0.4,0.6,0.8,1.1,1.1,1.9l1.7,5c0.2,3.3,0.2,6.4,0,9.7v1.5c-0.4,3.5-0.4,6.4-0.2,9.1c0.2,2.7,0.2,5.6,0,8.7c-0.2,1.9-0.2,3.5,0,5
			c0.2,1.5,0.2,3.3,0,5c-0.2,1.7-0.4,3.1-0.6,4.5c-0.2,1.4-0.4,2.7-0.6,4.3V85c0.2,2.5,0.2,5.2,0.2,7.8c0,2.7-0.2,5.2-0.2,8.1v1
			c0,1,0,2.1,0,3.3c0,1.2,0,2.3-0.2,3.5c-0.4,2.3-0.2,4.6,0.2,6.5v1.7c0,1.9,0,3.5-0.2,4.9c0,1.4-0.2,3-0.2,4.9c0,0.6,0,1,0.2,1.5
			c0,0.6,0,1.1-0.2,1.7c-0.4,0.4-0.4,0.8,0,1.4c0.4,1.4,0.4,2.7,0.4,4.1c0,1.4-0.2,2.7-0.2,4.3c0,0.8,0,1.1,0.2,1.5
			c0,1.1,0,2.3,0,3.3c0,1,0,1.9-0.2,2.7c-0.2,0.4-0.2,0.8-0.2,1c0,0.4,0.2,0.8,0.2,1.4c0,0.8,0,1.7,0.2,3c0,1,0,1.9-0.4,3
			c-0.4,0.8-0.6,1.5-0.6,3c0,0.6,0,1-0.2,1.5c0,0.6-0.2,1-0.2,1.5c-0.4,0.8-0.8,1.5-1,2.1c-0.4,0.6-0.8,1.1-1,1.9
			c-0.8,1.4-1.7,2.5-2.7,3.7c-1,1.1-1.9,2.3-2.9,3.7c-1,1.1-2.1,2.1-3.4,3c-1.4,0.8-2.5,1.5-3.7,2.5c-0.8,0.4-1.4,0.6-2.3,0.8
			c-0.8,0.2-1.7,0.4-2.5,0.8c-0.8,0.2-1.4,0.4-1.9,0.4c-0.5,0-1.4,0.2-2.1,0.2c-0.8,0.2-1.7,0.2-2.7,0.2s-1.7,0-2.7,0H429
			c-0.6,0-1,0-1.7,0.2c-0.6,0.2-1.1,0.2-1.7,0c-0.8-0.2-1.9-0.2-3.4-0.2c-1.7,0-2.9,0-3.3,0h-1.4c-0.8-0.2-1.5-0.2-2.1-0.2
			s-1.4,0.2-2.1,0.4h-4c-1.4,0.4-2.5,0.6-3.7,0.6s-2.3-0.2-3.7-0.6c-0.8-0.4-1.7-0.4-3,0c-0.6,0.2-1.4,0.2-2.3,0.2h-1H391
			c-0.6,0-1.4,0-2.3,0c-0.9,0-2.1,0-3,0.2c-1.1,0-2.1,0.2-3,0.2s-1.7,0.2-2.3,0.2c-0.8,0.2-1.7,0.2-2.7,0.2c-1,0-1.7,0-2.7,0
			c-1.1,0-2.3,0-3.4,0c-1.1,0-2.3,0-3.4,0.2c-0.8,0-1.5,0-2.1,0.2c-0.6,0-1.1,0-1.9-0.2h-4c-0.8,0.2-1.1,0.2-1.1-0.2
			c0-0.2-0.2-0.6-0.6-1c-0.2,0-0.2-0.2-0.2-0.8v-2.3L357.7,177.1L357.7,177.1z M425.5,31.9c-0.8-0.4-1.4-0.6-2.3-0.6
			c-1.4-0.4-2.7-0.6-3.8-1s-2.5-0.4-3.8-0.2h-2.3c-0.6-0.2-1.1-0.2-1.7-0.2c-0.8,0-1.4,0-2.1,0c-1.9,0-3.8,0-5.7,0s-3.8,0-5.7,0.2
			c-0.4,0-0.8,0-1.1,0.2c-0.4,0-1,0.4-1.4,1c0,1.4,0,2.7-0.2,4.1c0,1.4-0.2,2.7-0.2,4.1l-0.6,3.9c-0.2,1.4-0.2,2.7-0.2,3.9
			s0.2,2.5,0.4,3.9c-0.4,1.7-0.4,3.3-0.4,4.6c0,1.4,0,3.1-0.2,5c0,1.5,0,3.1-0.2,4.9c0,1.7-0.2,3.3-0.4,4.9c0,2.5,0,5,0.2,7.8
			c0.2,2.5,0.4,5,0.6,7.8c0,2.1,0,4.5,0,6.5c0,2.1,0,4.5,0.2,6.9v5c0,1.4,0,2.5,0.2,3.7c0.2,1.2,0.2,2.3,0.2,3.7
			c-0.2,1-0.2,1.9-0.2,3c0,1,0.2,1.7,0.2,2.7c0,1.4,0,2.7-0.2,3.9c-0.2,1.4-0.2,2.5,0,3.9l0.8,20.8c0,1.1,0,2.3-0.2,3.5
			c0,1.1-0.2,2.1-0.4,3.1v1c0.6,0.2,0.8,0.2,1,0.2c0.2,0,0.4-0.2,0.8-0.2h2.3c1.1-0.2,2.3-0.2,3.4-0.2s2.3,0,3.4,0
			c0.4,0,0.8,0,1-0.2c0.4,0,0.8,0,1,0.2c0.8,0.4,1.4,0.4,1.9,0.4c0.6,0,1.1-0.2,1.9-0.2c0.6-0.2,1.4-0.2,2.5-0.2
			c1.1,0.4,2.3,0.4,3.4,0c1.1-0.4,2.3-0.6,3.4-1c1-0.4,1.9-0.8,2.7-1.4c0.8-0.6,1.5-1.1,2.1-2.1c1-1.9,1.5-3.7,1.7-5.6l1-11.8
			c0.2-3.5,0-7.5-0.6-11.8c0-0.4,0-0.6,0.2-1c0-0.2,0.2-0.6,0.2-1v-9.9c0-1.7,0-3.3-0.2-4.9c0-1.5,0-3.1,0.2-4.6c0-1.5,0-3.1,0-4.6
			s0-3.1,0.2-4.9l0.6-10.6v-3.1c0-0.8,0-1.7,0-2.5s0-1.5-0.2-2.5c0.2-0.8,0.2-1.7,0.2-3c0-1.1,0-1.9,0-2.7c0-1.5,0-3,0-4.3
			c0-1.4,0-2.7-0.2-4.1v-3c0-1,0-2.1,0-3.1c0-1.1,0-2.3-0.2-3.5c0-1.5,0-3.1,0-4.6c0-1.5-0.2-3.3-0.6-5c0-1.4-0.6-2.5-1.5-3.5
			L425.5,31.9z"/>
	</g>
	<g id="XMLID_3_">
		<g id="XMLID_27_">
			<path class="st0" d="M126.3,182.3c-0.4,0-0.8,0-1.1,0c-2.3-0.4-4.4-0.6-6.8-1c-3.4-0.6-5.8-3.7-4.2-7.1c1.7-3.7,1.1-7.3,0.4-10.6
				c-2.3-12.3-5.2-24.8-7.8-37.1c-1.5-7.5-2.7-14.9-4-22.4c-0.6-3.7-1.4-7.3-2.1-11c-1-4.6-1.7-9.1-2.7-13.8
				c-0.6-3.3-1.4-6.6-1.9-10c-0.4,0-0.6,0.2-1,0.2c-0.2,0.6-0.6,1.4-0.6,2c-2.5,13.2-5.2,26.1-7.8,39.3c-2.9,14.9-5.6,29.9-8.3,44.8
				c-1,5.9-2.1,11.9-2.5,18.1c-0.2,4.1,0,4.3-4.2,4.6c-7.9,0.6-15.7,1.1-23.5,1.8c-3,0.2-6.4,0.6-9.4,0.2c-4-0.4-5.2-2.7-4-6.5
				c0.2-0.6,0.4-1.1,0.4-1.8c-0.4-4.7-0.6-9.2-1.5-13.9c-1.5-7.9-3.8-15.6-5.4-23.3c-2.1-11-3.8-22-6-33c-2.7-14-5.5-28-8.4-41.8
				c-3-13.9-6.2-27.9-9.7-41.7c-0.6-3.6-1.9-6.9-3.4-10c-1.4-2.7-1.1-4.7,1.5-6.1c1.5-0.8,3.3-1.4,4.8-2c1.7,0,3.7,0,5.4,0
				c6.5,2.2,13.1,0.8,19.6,0c0.2,0,0.4,0,0.6,0c1.5,0.4,3,0.8,4.6,1C40,1.6,40.2,3,39.8,5.3c-0.4,2.6-0.8,5.3-0.4,7.7
				c2.1,10,4.8,20,6.9,30c3,14.7,6,29.5,8.7,44.4c1.4,7.5,2.5,14.9,3.8,22.4c0.4,2.6,0.8,5.1,3.3,7.1c0.2-1,0.4-1.4,0.4-2
				c1.5-9.9,3-19.9,4.6-29.7c2.7-16.5,5.6-32.9,8.3-49.4c1.4-8.7,3.4-17.3,2.5-26.1c-0.2-1,1.1-2.6,2.1-3.1c1.4-0.6,3-0.6,4.6-0.8
				c4-0.2,8.1-0.4,12.1-0.6c4.2-0.2,8.5-0.6,12.7-0.4c3.7,0,4,1.4,3.3,4.6c-0.4,1.8-0.8,3.5-0.4,5.3c1.4,6.5,2.7,12.8,4.2,19.2
				c3.8,17.6,7.9,35.6,11.7,53.2c1.4,6.2,2.1,12.8,3.3,19.1c0.4,2.2,1.1,4.1,1.7,6.1c0.2,0.4,1,0.8,1.5,1c0.2,0,0.8-0.8,0.8-1.1
				c0.4-2.7,1-5.3,1.1-8.1c0.2-2.2,0-4.3,0.4-6.2c1.7-10,3.7-19.9,5.6-29.9c2.5-13.9,4.9-27.9,7.3-41.8c1.1-6.8,2.3-13.8,3-20.6
				c0.6-3.7,1.4-4.9,4.8-4.1c5.4,1.1,10.8,0.6,16.4,0c3.7-0.4,7.3-0.6,11-0.4c4.2,0.2,4.9,2.6,2.7,6.1c-0.8,1.1-1.9,2.6-2.1,3.9
				c-1.5,7.7-2.9,15.6-4.4,23.2c-3,16.1-6.2,32.5-9.4,48.6c-2.1,10.8-4.8,21.6-7.1,32.2c-3.4,16.9-6.9,33.8-10.2,50.7
				c-0.6,3.3-0.6,7.1-0.4,10.4c0,2.7-1.4,4.6-4,4.1C142.3,179.6,134.4,181.3,126.3,182.3z"/>
		</g>
	</g>
	<path id="XMLID_127_" class="st0" d="M612.1,174.5c7.8-1.7,15.1-5.2,22.2-9.1c0.8-0.4,1.7-0.2,2.5-0.4c0.6-0.2,1.1-0.2,1.7-0.6
		c5.9-3.9,11.6-8.1,16-13.9c0.8-1,1.4-1.9,2.1-3.1c1.9,2.5,1.7,3.9,0.2,5.4c-17.6,18.4-38.4,28.8-63.3,29.4
		c-34.2,0.8-60.8-14.7-80.6-43.9c-0.6-1-0.8-2.5-0.6-3.5c0.4-1.9,1.4-3.7,2.3-6c1.1,1.7,1.7,3.1,2.7,4.3c0.8,1.4,1.7,2.5,2.7,3.9
		c0.2-0.2,0.4-0.2,0.6-0.4c-1.5-2.9-3.3-5.6-4.8-8.5c0.2-0.2,0.4-0.4,0.6-0.4c18.6,31,44.7,47.1,79.9,46.3c-1.1,0.4-2.3,1-3.4,1.4
		c-1.1,0.4-2.3,0.8-3.4,1.1c0,0.2,0,0.4,0,0.6c3-0.4,6.1-0.6,9-1.1c4-0.8,7.8-1.7,11.9-2.5c0.6-0.2,1.1,0.4,1.9,0.4
		C612.1,173.9,612.1,174.2,612.1,174.5z M587.1,177.8c0,0.2,0,0.6,0,0.8c4.2-0.4,8.4-0.8,12.6-1.1c0-0.2,0-0.4,0-0.6
		C595.4,177.3,591.2,177.4,587.1,177.8z"/>
	<path id="XMLID_18_" class="st0" d="M672.9,55.3c-5.2-10.5-11.6-19.7-19.7-27.7C632.7,7.7,608.6-1.1,581.5,2.3
		c-19.7,2.5-40.5,12.4-54.8,27.5c-13,13.7-20.2,29.6-25.4,48.8c-0.2,0.8-0.2,1.7-0.2,2.7c0.2,0,0.4,0.2,0.6,0.2
		c0.8-1.5,1.4-3.1,2.1-4.6c0.6-1.1,1-2.9,2.9-2.7c0.4,0,1-1,1.1-1.7c1.4-2.5,2.5-5,3.8-7.8c0.2,0.2,0.6,0.2,0.8,0.4
		c-1.4,4.1-2.7,8.3-3.8,12.4l0.2,0.2c0.4-0.4,0.8-0.8,1-1.4c9.2-18.2,16-34.5,32.7-47.1h-0.2c17.2-14.5,36.9-20.8,59.2-18
		c21,2.7,38.4,13.2,52.4,30.2c3.7,4.5,7.1,9.1,10.7,13.5c0.4,0.4,0.8,0.6,1.1,1c0-0.2,0.2-0.2,0.2-0.4c-1.9-3.5-3.8-7.1-5.9-10.6
		c0.2-0.2,0.4-0.4,0.6-0.4c1.7,2.1,3.3,4.3,4.9,6.4c0.4,0.6,1.1,1.4,1.4,1.4c1.9-0.8,2.3,1,3.3,1.9c1,1.1,1.9,2.5,2.9,3.9
		c0.2,0,0.4-0.2,0.6-0.2C673.5,56.8,673.2,56.1,672.9,55.3z"/>
	<path id="XMLID_29_" class="st0" d="M595.1,125.6c-0.2,0-0.4-0.2-0.8-0.2c-0.4-0.2-0.6-0.4-0.8-0.6l-0.6-1l-0.4-0.6h-0.2
		c-0.2-0.2-0.4-0.6-0.4-0.8c-0.2-0.2-0.4-0.4-0.4-0.6c-0.2-0.4-0.2-0.8-0.4-1.1c0-0.4-0.2-0.8-0.4-1l-1.4-2.3l-0.2-0.2
		c0,0,0-0.2-0.2-0.2c0-0.2-0.2-0.4-0.2-0.6c0-0.2-0.2-0.4-0.2-0.6c-0.2-0.4-0.2-0.8-0.4-1.1c-0.2-0.4-0.4-0.8-0.8-1.1
		c0-0.4-0.2-0.6-0.4-1c-0.2-0.2-0.4-0.6-0.4-0.8s0-0.2-0.2-0.4l-1.7-3.3c-0.2-0.4-0.4-0.6-0.6-0.8c0,0-0.2-0.4-0.4-0.8
		c0-0.2,0-0.4-0.2-0.6s-0.2-0.2-0.2-0.4l-0.2-0.6c-0.2-0.6-0.6-1.1-0.8-1.7c-0.2-0.6-0.6-1.1-0.8-1.7c-0.2-0.4-0.4-0.8-0.6-1.4
		c-0.2-0.4-0.2-1-0.4-1.4c0,0-0.2-0.2-0.2-0.4c-0.2-0.6-0.4-1-0.4-1s0.2-0.4,0.4-1c0.2,0,0.4-0.2,0.4-0.2s0,0,0.4-0.2l-0.2-0.2
		c0.2-0.2,0.2-0.2,0.4-0.2c0,0,0.2,0,0.4-0.2c0.6-0.2,1-0.4,1.4-0.8c0.4-0.4,0.8-0.8,1.4-1c0.2-0.2,0.2-0.2,0.4-0.4
		c0,0,0.2-0.2,0.4-0.2c0.4-0.2,0.8-0.6,1-1.1c0.2-0.4,0.4-0.6,0.6-1c0.2-0.2,0.2-0.6,0.4-1v0.2c0.2-0.6,0.4-1.4,0.4-1.9
		c0-0.4,0-1.1-0.2-1.9c0-0.8,0-1.5,0-1.9c0-0.4-0.2-1.1-0.2-2.1s0-1.9,0-2.9s0-1.9,0-2.7c0-0.8,0-1.1,0-1.4c0-0.4,0.2-1.1,0.2-1.9
		c0-0.8,0.2-1.5,0.2-1.9v-5c-0.2-1.4-0.4-2.5-0.8-3.7c-0.2-0.4-0.4-0.8-0.6-1.1c-0.2-0.4-0.4-0.8-0.6-1.1c-0.4-0.6-1-1-1.5-1.4
		l-0.2-0.2c-0.4-0.4-0.8-0.6-1.1-0.6l-2.5-0.6c0,0-0.4,0-1-0.2c-0.2,0-0.4,0-0.6-0.2c-0.2,0-0.2,0-0.4,0h-0.4c-0.2,0-0.4,0-0.4-0.2
		c-0.6,0-1.1,0-1.9,0s-1.4,0-1.7,0c-0.2,0-0.4,0-0.6,0s-0.4,0-0.6,0.2c-0.4,0-0.8,0-1.1,0c-0.4,0-0.8,0-1.1-0.2c-0.4,0-0.8,0-1.1,0
		c-0.4,0.2-1,0.2-1.1,0.2l-5.6,0.2c-0.6,0-1,0-1.5,0c-0.4,0-1,0-1.5-0.2c-0.4,0-0.6,0-0.6,0c-0.2,0-0.4,0.2-0.8,0.2
		c-0.6,0-1.4,0-2.1-0.2c-1-0.2-1.9-0.2-2.9-0.4c-1.1-0.2-2.1-0.2-3.3-0.2c-1.1,0-2.1,0.2-3,0.6c-0.2,0-0.2,0-0.2,0h0.6h0.2
		c0,0,0,0-0.2,0h0.2c0,0-0.2,0.2-0.2,0.4c0,0.2,0,0.2-0.2,0.4c-0.2,0.2-0.2,0.2-0.2,0.2c0.2,0.2,0.2,0.4,0.2,1c0,0.4,0,0.8,0.2,1
		c0,0.2,0.2,0.4,0.4,0.6c0.2,0.2,0.2,0.4,0.2,0.6s0,0.4,0.2,0.6c0,0.2,0,0.4,0,0.6s0,0.4,0,0.6c-0.2,0.4-0.2,0.6-0.2,0.6
		c0,0.2,0.2,0.4,0.2,0.6c0,1.1,0,2.1,0,3.1c0,0.9,0,1.9-0.2,3.1c0,0.6,0,1.1,0,1.7s0,1.1,0.2,1.7v3.9c0,0.6,0,1.1,0,1.7s0,1.1,0,1.7
		s0,1.1,0,1.7s0,1.1,0,1.7v2.1c0,0.2,0.2,0.6,0.2,1.1c0,0.8,0,1.5,0,2.3s0,1.7,0,2.5c0,0.4,0,0.6,0.2,1c0,0.4,0.2,0.6,0.2,1
		l-0.2,1.5c0,0.4-0.2,1-0.2,1.4c0,0.4,0,1,0,1.4v4.1c0,0.6,0,1.1,0,1.5c0,0.6,0,1,0.2,1.5c0,0.4,0,0.6,0,1c0,0.2,0,0.6,0,1
		c0,0.2,0,0.4,0,0.8c0,0.2,0,0.6,0,1c0,1,0,1.7,0,2.7c0,0.8,0.2,1.7,0.2,2.5c0,0.4,0.2,0.8,0.2,1.1s0,0.8,0,1.1
		c0,0.6,0.2,0.8,0.2,0.8s0,0.2,0,0.8v2.1c0,0.4,0,0.8,0,1v0.4h-0.5c0,0.2,0,0.2,0,0.4c0,0.2,0,0.2,0,0.4c0,0-0.2,0.2-0.2,0.4h0.2
		l-0.2,0.6c0,0.2-0.2,0.4-0.2,0.4c0,0.2-0.2,0.4-0.2,0.4l-0.1,0.5c0,0.4,0,0.6-0.2,0.6s-0.4,0.2-0.6,0.6l-0.2,1
		c-0.2,0.2-0.4,0.6-0.2,0.8c0.2,0.2,0.4,0.4,0.6,0.4c1.4,0.6,2.5,0.8,3.4,1c1,0,1.9,0,2.7,0c0.8-0.2,1.7-0.2,2.5-0.4
		s1.7-0.2,2.9-0.2c0.2,0,0.6,0,1.1,0.2c0.5,0.2,1.1,0.2,1.7,0.2c0.6,0,1-0.2,1.1-0.6c0.2-0.4,0.2-1-0.2-1.9c-0.2-0.2-0.2-0.2-0.4,0
		c-0.2,0.2-0.2,0-0.2-0.4l-0.4-2.5v-0.6h-0.2c0-0.4,0-1,0-1.4s0-1,0.2-1.4v-1.5c0-0.2,0-0.4,0.2-0.4v-0.2h-0.2v-0.6
		c0-0.4,0-0.4,0-0.2s0,0.2,0-0.2c0-0.4,0-0.8,0-1.4c0-0.4,0-1,0.2-1.4c0-0.2,0-0.2,0-0.4c0-0.2,0-0.2-0.2-0.4l-0.2-0.2v-7.3
		c0-0.2,0-0.4,0-0.6s0-0.4,0-0.6c0-0.4,0.2-0.6,0.2-0.8c0-0.2,0-0.4,0-0.8s0-1,0-1.1c0-0.4,0-0.8,0.2-1v-0.2c0-0.2,0-0.2,0-0.4
		c0,0,0-0.2,0-0.4V100c0-0.4,0.2-0.6,0.4-0.8c0.2-0.2,0.4-0.2,0.8-0.2c0.2-0.2,0.6-0.4,1.4-0.2c0.8,0,1.1,0,1.1,0.2
		c0.4,0,0.8,0,1.1,0.2c0.2,0,0.6,0.2,0.6,0.4c0.2,0.2,0.4,0.6,0.4,1c0.2,0.4,0.4,1,0.6,1.7c0.2,0.4,0.4,1,0.6,1.4
		c0,0.4,0.2,1,0.4,1.5c0.2,0.8,0.6,1.4,1,1.5c0.4,0.2,0.6,0.8,0.8,1.5c0.4,0.6,0.6,1.1,1,1.9c0.2,0.8,0.6,1.4,0.8,2.1
		c0.2,0.4,0.4,0.8,0.6,1c0.2,0.4,0.2,0.8,0.4,1l0.4,0.8c-0.2,0.2-0.2,0.4,0,0.4c0.2,0.2,0.2,0.4,0.4,0.4c0.2,0.4,0.4,0.8,0.6,1.1
		s0.4,0.8,0.6,1.1c0.4,1,0.8,1.7,1,2.1c0.4,0.4,0.8,1.1,1.1,2.1c0.2,0.6,0.4,1.1,0.8,1.9c0.4,0.6,0.8,1.4,1.1,1.9h0.4
		c0,0.2,0,0.2,0,0.4c0,0,0,0.2,0,0.4l-0.2,0.2c0.2,0.4,0.2,0.6,0.2,0.8s0,0.4-0.2,0.6l0.2,0.2c-0.4,0.2-0.4,0.4-0.2,0.8
		c0.2,0.4,0.4,0.4,0.6,0.4c1.9,0.6,3.3,0.8,4.2,1c0.4,0,0.8,0,1.1,0c0,0,0.2,0,0.4,0c1.5,0,2.9,0,4.4,0c1.1,0,3,0.4,4-0.2
		c0.6-0.2,1.5-1.4,1.9-1.9C595.8,126.9,595.7,126.3,595.1,125.6z M575.2,73.9c0,0.2-0.2,0.4-0.2,0.8c0,0.2,0,0.4,0,0.8
		c0,0.4,0,0.8,0,1.4c0,0.4,0,1,0,1.4s0,0.8,0,0.8l0.2,1.5c0,0.4,0,0.6,0,1c0,0.2,0,0.6-0.2,1v1l-0.2,0.2c0.2,0.6,0,1.1-0.4,1.5
		c-0.2,0.2-0.2,0.6-0.4,0.8c-0.2,0.2-0.4,0.4-0.6,0.6c-0.2,0.2-0.6,0.6-0.8,0.8c-0.2,0.2-0.6,0.4-1,0.4c-0.6,0.2-1.4,0.4-1.9,0.4
		H569c-0.4,0-0.6,0-1,0.2c-0.2,0-0.2,0-0.4,0c-0.2,0-0.4,0-0.6,0c-0.4,0-0.8,0-1.1,0c-0.4,0-0.8,0-1.1,0.2c-0.2,0.2-0.2,0.2-0.4,0
		c-0.4,0-0.6-0.2-0.6-0.2c-0.2,0-0.2,0-0.4,0c-1-0.2-1.5-0.6-1.9-1.1c-0.2-0.6-0.4-1.1-0.4-1.7s0-1,0-1.5c0-0.4,0-1-0.2-1.5v-0.2
		c0,0,0-0.2,0.2-0.2c-0.2-0.2-0.2-0.4-0.2-0.4c0-0.2,0-0.4,0-0.6s0-0.8,0-1.4c0-0.6,0-1.1,0-1.9c0-0.6,0-1.4,0-1.9
		c0-0.6,0-1.1,0-1.4v-3.7c0-0.8,0.2-1.1,0.4-1.5c0.2-0.4,0.8-0.6,1.7-0.6h7.2c0.4,0,0.8,0,1.1,0c0.4,0,0.8,0,1.1,0.2
		c0.2,0,0.4,0.2,0.6,0.6l0.6,0.4c0.6,0.4,0.8,1,0.8,1.7c0.2,0.4,0.2,0.8,0.2,1c0,0.4,0,0.8,0,1C575.4,73.5,575.4,73.6,575.2,73.9z"
		/>
	<g id="XMLID_2_">
		<path id="XMLID_21_" class="st0" d="M614.7,124.8l0.2,1c0,0.2,0,0.2,0.2,0.4c0.2,0.2,0.2,0.6,0.4,1.4c0.2,0.4,0.2,0.6-0.2,1
			c-0.4,0.2-0.8,0.4-1,0.2c-0.6-0.2-1-0.2-1.4-0.2c-0.4,0-1,0.2-1.4,0.2c-1.1,0-2.3,0-3.3,0.2c-1,0.2-2.1,0.4-3,0.4
			c-1,0.2-1.9,0.2-2.9,0.2s-2.1-0.2-3-0.6c-0.2,0-0.4-0.2-0.6-0.4c0-0.4,0-0.6,0.4-1v-0.2c0.4-0.6,0.6-1,0.6-1.7c0,0,0-0.2,0.2-0.2
			l0.2-0.2l0.4-1.4v-0.2c0.2-0.4,0.2-0.8,0.2-1.1c0.2-0.4,0.2-0.6,0.4-1c0-0.2,0.2-0.6,0.2-1v-1.1c0-0.2,0-0.6,0-1v-2.1
			c0-0.6,0-0.8,0-0.8s0-0.2-0.2-0.8l-0.4-2.3c0-0.8,0-1.4,0-1.5c0-0.2,0-0.8,0-1.7c0-0.4,0-0.6,0-0.6c0-0.2,0-0.4,0-0.6
			c0-0.4,0.2-0.6,0.2-1c0-0.2,0-0.6,0-1c0-0.6-0.2-1.1-0.2-1.5c0-0.6,0-1,0-1.5l0.2-3.5c-1,0-2.1,0-3.3,0.2
			c-1.1,0.2-2.1,0.4-2.9,0.8c-0.2,0.4-0.8,0.6-1.7,0.8c-1,0.2-1.5-0.2-1.9-1.1c-0.2-1.1-0.2-2.1,0-3.1c0.2-1,0.6-1.7,1-2.5
			c0.4-0.8,1-1.4,1.4-1.9c0.6-0.6,1-1,1.5-1.1c1-0.6,1.9-0.8,2.7-1c0.8-0.2,1.5-0.2,2.3-0.4h1l0.2-2.5c0-0.2,0-0.4,0-0.6
			c0-0.2,0-0.4,0-0.6v-2.1c0-0.6,0-1.1,0-1.7s0-1.1,0-1.7s0-1.1,0-1.7s0-1.1,0-1.7l-0.2-3.7v-9.9c0-0.4,0-0.6-0.2-0.8
			c-0.2-0.2,0-0.6,0-0.8c0-0.2,0-0.4,0-0.6c0-0.2,0-0.2,0-0.4c0-0.6,0-1-0.2-1.4c-0.2-0.4-0.4-0.6-0.4-0.8c-0.2-0.6-0.4-1.1-0.4-1.5
			c0-0.4,0-0.8,0.2-1c0.2-0.4,0.4-0.6,0.8-0.6c0,0,0.2,0,0.4,0c0.2,0,0.4,0,0.6,0c0.2,0,0.4,0.2,0.6,0.2h1.7c0.6,0,1.1,0,2.3,0
			c1,0,1.7,0,2.3,0c0.8,0,1.5,0,2.3,0s1.5,0,2.3,0c1.1,0.2,2.3,0.2,3.3,0h5.6c0.4,0,0.8,0,1.1,0c0.4,0,0.8,0,1.1,0
			c0.4,0,0.8,0.2,1.1,0.2c0.4,0,0.8,0,1.1,0c0.2,0,0.4,0,0.6,0s0.4,0,0.6,0c0.6,0,1.1,0,1.9,0s1.4,0,1.9,0c0,0,0.2,0.2,0.4,0.2h0.4
			c0.2,0,0.2,0,0.4,0c0.2,0,0.2,0.2,0.4,0.2c0.6,0.2,1,0.2,1,0.2l2.3,0.8c0.4,0,0.8,0.2,1.1,0.6l0.2,0.2c0.8,0.4,1.1,0.8,1.5,1.4
			c0.6,0.6,1,1.4,1.1,2.3c0.2,0.6,0.4,1.1,0.4,1.7c0.2,0.6,0.2,1.1,0.2,1.7s0,1,0,1.4s0,0.8,0,1.1v2.5c0,0.6,0,1.1-0.2,2.1
			s-0.2,1.7-0.2,2.3c0,0.4,0,1,0,1.9s0,2.1,0,3.3c0,1.1,0,2.3,0,3.3c0,1.1,0,1.9,0.2,2.5c-0.2,0.6-0.2,1.1-0.2,2.1s0,1.5,0,2.1
			c0,0.4,0,0.6,0,1s0,0.6-0.2,1v0.4c-0.2,0.4-0.4,0.8-0.4,1.1s-0.2,0.8-0.4,1.1c-0.4,0.6-0.8,1-1,1.1c-0.2,0-0.2,0.2-0.4,0.4
			c0,0.2-0.2,0.4-0.4,0.4c-1,0.8-1.9,1.4-2.9,1.7c-0.6,0.2-1,0.2-1.4,0.2c-0.4,0-0.6,0-0.6,0.2l-1.5,0.2H630l-2.7,0.4l-2.1-0.2
			l-1.9,0.4l-3.4-0.3c-0.4,0-0.8,0-1,0s-0.6,0-1.1,0c0,0-0.4-0.2-1-0.2c-0.8,0-1.1,0-1.5,0.2c-0.2-0.2-0.6-0.2-0.8,0.2
			c-0.2,0.2-0.4,0.6-0.4,0.8v0.8c0,0.2,0,0.2,0,0.4c0,0,0,0.2,0,0.4v0.2c0,0.4-0.2,0.8-0.2,1c0,0.4,0,0.8,0,1.1s0,0.6,0,1
			c0,0.2,0,0.6-0.2,1c0,0.2,0,0.4-0.2,0.6c0,0.2-0.2,0.4-0.2,0.6v2.9l0.2,0.2c0,0.2,0.2,0.2,0.2,0.4c0,0.2,0,0.2,0,0.4
			c-0.2,0.4-0.2,0.8-0.2,1.4c0,0.4,0,1,0,1.4v0.2v-0.2v0.4v0.6h0.2v0.4c0,0-0.2,0.2-0.2,0.4v1.5c0,0.8-0.2,1.5-0.2,2.3
			c0,0.8,0,1.5,0.2,2.3c0.2,0.8,0.2,1.1,0.4,1.5L614.7,124.8L614.7,124.8z M614.4,73.9c0,0.8-0.2,1.5-0.2,2.3
			c-0.2,1-0.2,1.7-0.2,2.3c0,0.2,0,0.4,0,0.8s0,0.8,0,1.1s0,0.8,0,1.1s0,0.6,0.2,0.6v1.4c0,0.6,0.2,1.1,0.2,1.5c0,0.6,0,1,0,1.5
			c-0.2,0.6-0.2,1.1,0,1.7s0.6,1,1.5,1.1c0.2,0,0.8,0,1.5,0.2c0,0.2,0.2,0.2,0.4,0c0.4,0,0.8-0.2,1.1-0.2c0.4,0,0.8,0,1.1,0
			c0.2,0,0.4,0,0.4,0c0.2,0,0.2,0,0.4,0c0.2,0,0.4,0,0.6,0c0.2,0,0.2,0.2,0.4,0.2l0.8,0.2c0.4,0,0.8-0.2,1-0.2c0.4,0,0.6-0.2,1-0.2
			c0.8,0,1.4-0.4,1.9-0.8c0.2-0.2,0.4-0.4,0.4-0.8c0.2-0.2,0.2-0.6,0.4-0.8c0.2-0.2,0.4-0.6,0.4-1s0-0.8,0-1V84
			c0-0.4,0.2-0.6,0.2-0.8c0-0.2,0-0.4,0-0.8c-0.2-2.5-0.2-4.5,0-5.8c0.2-1.4,0.2-2.1,0.2-2.3c0-0.2,0.2-0.6,0.2-1s0-0.6,0-1
			s0-0.6,0-1c0-0.2,0-0.6-0.2-1c0-0.6-0.4-1-1-1.7l-0.4-0.4c-0.2-0.2-0.4-0.2-0.8-0.4c-0.4,0-0.8-0.2-1.1-0.2c-0.4,0-0.8,0-1.1,0
			l-7.1-0.2c-1,0-1.5,0.2-1.7,0.6s-0.4,0.8-0.4,1.5L614.4,73.9L614.4,73.9L614.4,73.9z"/>
	</g>
	<path id="XMLID_1_" class="st0" d="M674.8,120.9c-0.8-0.2-1.5,0.2-1.7,1c-0.4,1-0.8,1.9-1.4,2.7c-0.2,0.6-0.8,1-1.1,1.4
		c-0.6,0.6-1.5,1-1.9,1.5c-2.3,4.5-2.9,9.1-5.6,12.9c-0.2,0.2-0.4,0.6-0.4,0.8l-0.2,3.5c5.6-6.9,9.2-14.5,12.6-23.3L674.8,120.9z"/>
</g>
</svg>
