<?xml version="1.0" encoding="utf-8"?>
<!-- Generator: Adobe Illustrator 24.0.1, SVG Export Plug-In . SVG Version: 6.00 Build 0)  -->
<svg version="1.1" id="Layer_1" xmlns="http://www.w3.org/2000/svg" xmlns:xlink="http://www.w3.org/1999/xlink" x="0px" y="0px"
	 viewBox="0 0 687.2 200.1" style="enable-background:new 0 0 687.2 200.1;" xml:space="preserve">
<style type="text/css">
	.st0{fill:#FFFFFF;}
</style>
<g>
	<path class="st0" d="M243.6,58.3c-9,0-16.4,7.3-16.4,16.4v117.7c0,2.4,1.9,4.3,4.3,4.3h24.2c2.4,0,4.3-1.9,4.3-4.3V74.7
		C260,65.6,252.7,58.3,243.6,58.3"/>
	<path class="st0" d="M156,58.4c-20.1,0-34,8.3-44.3,24.2C98,50.2,51.3,50.9,31.9,80.7C28.9,68,17.6,58.6,4.1,58.6H0
		c0,25.1,0,104.8,0,133.8c0,2.4,1.9,4.3,4.3,4.3h24.2c2.4,0,4.3-1.9,4.3-4.3V121c0-18,8.6-35.4,26.4-35.4
		c16.6,0,24.6,10.6,24.6,32.4v74.3c0,2.4,1.9,4.3,4.3,4.3h24.2c2.4,0,4.3-1.9,4.3-4.3V121c0-17.1,9.6-35.4,26.4-35.4
		c20.7,0,24.9,14,24.9,35v71.8c0,2.4,1.9,4.3,4.3,4.3h24.3c2.4,0,4.3-1.9,4.3-4.3v-78.8C200.7,80.2,188.9,58.4,156,58.4"/>
	<path class="st0" d="M316.1,64.5c-5.7-7.7-16.9-8.9-24.2-2.3c-6.3,5.8-6.8,15.6-1.7,22.5l32.9,44.1L290,173.3
		c-5.1,6.9-4.7,16.7,1.7,22.5c7.3,6.6,18.5,5.4,24.2-2.3l46.2-62.1c1.1-1.5,1.1-3.6,0-5.1L316.1,64.5z"/>
	<path class="st0" d="M417.5,64.5c5.7-7.7,16.9-8.9,24.2-2.3c6.3,5.8,6.8,15.6,1.7,22.5l-32.9,44.1l33.1,44.5
		c5.1,6.9,4.7,16.7-1.7,22.5c-7.3,6.6-18.5,5.4-24.2-2.3l-46.1-62.2c-1.1-1.5-1.1-3.6,0-5.1L417.5,64.5z"/>
	<path class="st0" d="M505.6,93.2c5.7-5.7,12.4-8.6,20.1-8.6c8.4,0,15,2.6,19.7,7.8c4.4,5,6.8,12.2,7,21.6h-57.3
		C496.7,105.6,500.3,98.6,505.6,93.2 M558.7,171.2c-1-1.3-2.7-1.8-4.2-1.3l0,0c-17.1,5.9-56.6,9.4-59.5-30.6h75.6
		c8.1,0,14.6-6.5,14.6-14.6c0-18.1-3.3-35.6-15.6-49.1c-30.1-33.3-108.2-20.7-108.2,54.8c0,78.3,73.2,76.6,106.4,61.4
		c2.5-1.1,3.2-4.3,1.6-6.4L558.7,171.2z"/>
	<path class="st0" d="M684.1,60.4L684.1,60.4c-5.8-1.6-15.2-1.2-18.2-0.6c-11.7,3.5-20.3,11.5-25.5,23.6
		c-1.8-14-13.8-24.8-28.3-24.8h-4.2c0,25.1,0,104.9,0,133.8c0,2.4,1.9,4.3,4.3,4.3h24.2c2.4,0,4.3-1.9,4.3-4.3v-64.8
		c0-26.8,15.1-45.6,40.7-36.1c2.8,1,5.8-1,5.8-4V64.6C687.3,62.7,685.9,60.9,684.1,60.4"/>
	<path class="st0" d="M226.1,17.5c0,9.7,7.9,17.5,17.6,17.5s17.5-7.9,17.5-17.5S253.3,0,243.6,0S226.1,7.9,226.1,17.5"/>
</g>
</svg>
