<?xml version="1.0" encoding="utf-8"?>
<!-- Generator: Adobe Illustrator 19.0.0, SVG Export Plug-In . SVG Version: 6.00 Build 0)  -->
<svg version="1.1" id="Layer_1" xmlns="http://www.w3.org/2000/svg" xmlns:xlink="http://www.w3.org/1999/xlink" x="0px" y="0px"
	 viewBox="0 0 534.3 464.7" style="enable-background:new 0 0 534.3 464.7;" xml:space="preserve">
<style type="text/css">
	.st0{fill:#FFFFFF;}
</style>
<g>
	<path class="st0" d="M533.9,181.6c-39.7,0-78.9,0-118.8,0c0-29.1,0-57.9,0-87.1c-6.7,0-12.8,0-19.5,0c-0.1,1.7-0.3,3.5-0.3,5.3
		c0,88.7,0,177.3-0.1,266c0,4.8,1.2,6.5,6.1,6c4.3-0.4,8.6-0.1,13.6-0.1c0-35.6,0-70.8,0-106.4c40,0,79.4,0,119.2,0
		c0.1,1.7,0.3,3.4,0.3,5c0,39.2,0.1,78.3-0.1,117.5c0,2.6-1.4,5.9-3.2,7.7c-22,22.3-44.2,44.4-66.5,66.4c-1.5,1.5-4.2,2.7-6.4,2.7
		c-37.3,0.2-74.7,0.2-112,0c-2.2,0-4.8-1.1-6.4-2.7c-22.4-22.1-44.7-44.4-66.8-66.8c-1.6-1.7-2.9-4.5-2.9-6.8
		c-0.1-104-0.1-208,0-312c0-2.3,1.2-5.2,2.9-6.8c22-22.3,44.2-44.4,66.5-66.4c1.7-1.6,4.5-2.9,6.8-2.9c37.2-0.2,74.3-0.2,111.5,0
		c2.5,0,5.5,1.3,7.3,3c22.3,22,44.4,44.2,66.5,66.4c1.4,1.4,2.7,3.6,2.7,5.5c0.2,34.7,0.1,69.3,0.1,104
		C534.2,179.7,534,180.4,533.9,181.6z"/>
	<path class="st0" d="M113,307.6c0,52.7,0,104.6,0,156.8c-37.8,0-75.2,0-113,0C0,309.7,0,155.2,0,0.1c1.9,0,3.7,0,5.5,0
		c56.2,0,112.3,0,168.5-0.1c3.3,0,5.6,1,7.9,3.3c22,22.1,44.1,44,66,66.2c1.7,1.8,3,4.8,3,7.3c0.2,51.5,0.2,103,0,154.5
		c0,2.3-1.2,5.2-2.8,6.9c-22,22.3-44.2,44.4-66.5,66.4c-1.8,1.7-4.8,2.9-7.3,3c-18.3,0.2-36.7,0.1-55,0.1
		C117.4,307.6,115.6,307.6,113,307.6z M133.5,216.9c0-41.6,0-82.6,0-123.5c-7,0-13.6,0-20.1,0c0,41.4,0,82.4,0,123.5
		C120.3,216.9,126.7,216.9,133.5,216.9z"/>
</g>
</svg>
