<?xml version="1.0" encoding="utf-8"?>
<!-- Generator: Adobe Illustrator 24.0.1, SVG Export Plug-In . SVG Version: 6.00 Build 0)  -->
<svg version="1.1" id="Layer_1" xmlns="http://www.w3.org/2000/svg" xmlns:xlink="http://www.w3.org/1999/xlink" x="0px" y="0px"
	 viewBox="0 0 807.7 193.7" style="enable-background:new 0 0 807.7 193.7;" xml:space="preserve">
<style type="text/css">
	.st0{fill:#FFFFFF;}
</style>
<path class="st0" d="M20.4,42.8v22.6c0,4.6,0,8.5,0.1,11.6c0,1.1,0.5,1.7,1.5,2l6.5,2.1l0.2,2.5c-4.6-0.1-9.3-0.2-13.9-0.2
	s-9.5,0.1-14.5,0.2L0,81l7.2-2.2c1-0.3,1.5-0.9,1.6-1.8c0.1-3.2,0.1-7,0.1-11.7V17.8c0-3.9,0-7.1-0.1-9.7c0-1-0.5-1.7-1.4-2L0.1,3.8
	L0,1.3c5,0.2,9.9,0.2,14.5,0.2c4.7,0,9.3-0.1,13.9-0.2l0.3,2.5l-6.7,2c-1,0.2-1.5,0.8-1.5,1.8c-0.1,2.8-0.1,6.1-0.1,9.9v19.9H63
	V17.6c0-3.8,0-7.1-0.1-9.9c0-1-0.5-1.6-1.5-1.8l-6.5-2.1l-0.1-2.5c4.8,0.2,9.5,0.2,14.1,0.2s9.4-0.1,14.3-0.2l0.2,2.5L76,6.1
	c-0.9,0.3-1.4,1-1.4,2c-0.1,2.6-0.1,5.8-0.1,9.7v47.5c0,4.6,0,8.5,0.1,11.7c0,0.9,0.6,1.5,1.6,1.8l7.1,2.2l0.1,2.5
	c-5.2-0.1-10.1-0.2-14.8-0.2c-4.6,0-9.2,0.1-13.7,0.2L54.7,81l6.6-2.1c1-0.3,1.5-0.9,1.5-2c0.1-3.1,0.1-7,0.1-11.6V42.7H20.4V42.8z"
	/>
<path class="st0" d="M112.5,65.3c0,2.3,0,4.5,0,6.4s0,3.7,0.1,5.2c0,1,0.7,1.6,2.1,2l6.6,2.1l0.1,2.5c-5-0.1-9.9-0.2-14.5-0.2
	c-4.7,0-9.6,0.1-14.5,0.2L92.2,81l7.2-2.2c1-0.3,1.5-0.9,1.6-1.8c0-1.6,0.1-3.3,0.1-5.2s0-4.1,0-6.4V17.8c0-2,0-3.8,0-5.4
	s0-3-0.1-4.3c0-1-0.5-1.7-1.4-2l-7.3-2.3l-0.1-2.5c5,0.2,9.9,0.2,14.5,0.2c4.7,0,9.5-0.1,14.5-0.2l0.2,2.5L114.1,6
	c-0.9,0.2-1.4,0.8-1.5,1.8c0,1.4-0.1,2.9-0.1,4.5s0,3.4,0,5.3L112.5,65.3L112.5,65.3z"/>
<path class="st0" d="M192.9,21.7l-2.3,0.4l-4-15.4c-4.8-1.2-9.2-1.9-13.4-1.9c-9.8,0-17.4,3.3-22.9,9.9s-8.2,15.8-8.2,27.4
	c0,11.8,3,21.1,8.9,28c6,6.9,14,10.4,24,10.4c3.4,0,6.7-0.4,10-1.3V63.6c0-2,0-3.7,0-5.3c0-1.6,0-3.1-0.1-4.4c0-1-0.5-1.7-1.4-1.9
	l-7.3-2.3l-0.1-2.5c5,0.1,9.9,0.2,14.5,0.2c4.7,0,9.2-0.1,13.6-0.2l0.3,2.5l-6.4,1.9c-0.9,0.3-1.4,0.9-1.5,1.8
	c0,1.6-0.1,3.2-0.1,4.8c0,1.6,0,3.4,0,5.2v18.8l-0.4,0.4c-8,1.9-15.3,2.9-22,2.9c-13.7,0-24.6-3.6-32.8-10.9
	c-8.1-7.3-12.2-17.4-12.2-30.4c0-13.8,4.2-24.7,12.7-32.5C150.2,3.9,161.7,0,176.3,0c6.3,0,12.9,0.8,19.8,2.4l0.4,0.5L192.9,21.7z"
	/>
<path class="st0" d="M229.6,42.6v22.6c0,4.6,0,8.5,0.1,11.6c0,1.1,0.5,1.7,1.5,2l6.5,2.1l0.2,2.5c-4.6-0.1-9.3-0.2-13.9-0.2
	c-4.6,0-9.5,0.1-14.5,0.2l-0.2-2.5l7.2-2.2c1-0.3,1.5-0.9,1.6-1.8c0.1-3.2,0.1-7,0.1-11.7V17.6c0-3.9,0-7.1-0.1-9.7
	c0-1-0.5-1.7-1.4-2l-7.3-2.3l-0.1-2.5c5,0.2,9.9,0.2,14.5,0.2c4.7,0,9.3-0.1,13.9-0.2l0.3,2.5l-6.7,2.1c-1,0.2-1.5,0.8-1.5,1.8
	c-0.1,2.8-0.1,6.1-0.1,9.9v19.9h42.7V17.4c0-3.8,0-7.1-0.1-9.9c0-1-0.5-1.6-1.5-1.8l-6.5-2.1l-0.1-2.5c4.8,0.2,9.5,0.2,14.1,0.2
	s9.4-0.1,14.3-0.2l0.2,2.5l-7.4,2.3c-0.9,0.3-1.4,1-1.4,2c-0.1,2.6-0.1,5.8-0.1,9.7v47.5c0,4.6,0,8.5,0.1,11.7
	c0,0.9,0.6,1.5,1.6,1.8l7.1,2.2l0.1,2.5c-5.2-0.1-10.1-0.2-14.8-0.2c-4.6,0-9.2,0.1-13.7,0.2l-0.2-2.5l6.6-2.1c1-0.3,1.5-0.9,1.5-2
	c0.1-3.1,0.1-7,0.1-11.6V42.5h-42.7V42.6z"/>
<path class="st0" d="M324.4,17.5v47.6c0,4.3,0,8.6,0.1,12.8H353l7.5-15.5l2.6-0.4l-1.3,21l-0.4,0.4c-10.1-0.1-19.5-0.2-28.1-0.2
	h-14.6c-4.7,0-9.6,0.1-14.5,0.2l-0.2-2.5l7.2-2.2c1-0.3,1.5-0.9,1.6-1.8c0-1.6,0.1-3.3,0.1-5.2s0-4.1,0-6.4V17.7c0-2,0-3.8,0-5.4
	s0-3-0.1-4.3c0-1-0.5-1.7-1.4-2l-7.3-2.3L304,1.2c5,0.2,9.9,0.2,14.5,0.2c4.7,0,9.5-0.1,14.5-0.2l0.2,2.5l-7.3,2.2
	c-0.9,0.2-1.4,0.8-1.5,1.8c0,1.4-0.1,3.4-0.1,6C324.4,16.3,324.4,17.5,324.4,17.5z"/>
<path class="st0" d="M390.6,65.3c0,2.3,0,4.5,0,6.4s0,3.7,0.1,5.2c0,1,0.7,1.6,2.1,2l6.6,2.1l0.1,2.5c-5-0.1-9.9-0.2-14.5-0.2
	c-4.7,0-9.6,0.1-14.5,0.2l-0.2-2.5l7.2-2.2c1-0.3,1.5-0.9,1.6-1.8c0-1.6,0.1-3.3,0.1-5.2s0-4.1,0-6.4V17.8c0-2,0-3.8,0-5.4
	s0-3-0.1-4.3c0-1-0.5-1.7-1.4-2l-7.3-2.3l-0.1-2.5c5,0.2,9.9,0.2,14.5,0.2c4.7,0,9.5-0.1,14.5-0.2l0.2,2.5L392.2,6
	c-0.9,0.2-1.4,0.8-1.5,1.8c0,1.4-0.1,2.9-0.1,4.5s0,3.4,0,5.3L390.6,65.3L390.6,65.3z"/>
<path class="st0" d="M472.6,21.7l-2.3,0.4l-4-15.4c-4.8-1.2-9.2-1.9-13.4-1.9c-9.8,0-17.4,3.3-22.9,9.9s-8.2,15.8-8.2,27.4
	c0,11.8,3,21.1,8.9,28c6,6.9,14,10.4,24,10.4c3.4,0,6.7-0.4,10-1.3V63.6c0-2,0-3.7,0-5.3c0-1.6,0-3.1-0.1-4.4c0-1-0.5-1.7-1.4-1.9
	l-7.3-2.3l-0.1-2.5c5,0.1,9.9,0.2,14.5,0.2c4.7,0,9.2-0.1,13.6-0.2l0.3,2.5l-6.4,1.9c-0.9,0.3-1.4,0.9-1.5,1.8
	c0,1.6-0.1,3.2-0.1,4.8c0,1.6,0,3.4,0,5.2v18.8l-0.4,0.4c-8,1.9-15.3,2.9-22,2.9c-13.7,0-24.6-3.6-32.8-10.9
	c-8.1-7.3-12.2-17.4-12.2-30.4c0-13.8,4.2-24.7,12.7-32.5C429.9,3.9,441.4,0,456,0c6.3,0,12.9,0.8,19.8,2.4l0.4,0.5L472.6,21.7z"/>
<path class="st0" d="M509.4,42.6v22.6c0,4.6,0,8.5,0.1,11.6c0,1.1,0.5,1.7,1.5,2l6.5,2.1l0.2,2.5c-4.6-0.1-9.3-0.2-13.9-0.2
	c-4.6,0-9.5,0.1-14.5,0.2l-0.2-2.5l7.2-2.2c1-0.3,1.5-0.9,1.6-1.8c0.1-3.2,0.1-7,0.1-11.7V17.6c0-3.9,0-7.1-0.1-9.7
	c0-1-0.5-1.7-1.4-2l-7.3-2.3l-0.1-2.5c5,0.2,9.9,0.2,14.5,0.2c4.7,0,9.3-0.1,13.9-0.2l0.3,2.5l-6.7,2.1c-1,0.2-1.5,0.8-1.5,1.8
	c-0.1,2.8-0.1,6.1-0.1,9.9v19.9h42.7V17.4c0-3.8,0-7.1-0.1-9.9c0-1-0.5-1.6-1.5-1.8l-6.5-2.1L544,1.1c4.8,0.2,9.5,0.2,14.1,0.2
	s9.4-0.1,14.3-0.2l0.2,2.5l-7.4,2.3c-0.9,0.3-1.4,1-1.4,2c-0.1,2.6-0.1,5.8-0.1,9.7v47.5c0,4.6,0,8.5,0.1,11.7
	c0,0.9,0.6,1.5,1.6,1.8l7.1,2.2l0.1,2.5c-5.2-0.1-10.1-0.2-14.8-0.2c-4.6,0-9.2,0.1-13.7,0.2l-0.2-2.5l6.6-2.1c1-0.3,1.5-0.9,1.5-2
	c0.1-3.1,0.1-7,0.1-11.6V42.5h-42.7V42.6z"/>
<path class="st0" d="M617.7,83.7c-4.8,0-10.1,0.1-15.9,0.2l-0.2-2.5l8.7-2.6c1-0.3,1.5-0.9,1.5-1.8c0.1-3,0.1-6.8,0.1-11.4V7.1
	h-20.7l-5.2,15.6l-2.3,0.4l-1.5-21l0.4-0.5c9.6,0.2,18.8,0.2,27.6,0.2h15.6c8.7,0,18-0.1,27.7-0.2l0.4,0.5l-3.7,20.6l-2.3,0.4
	l-3.8-16h-20.7v58.5c0,4.6,0,8.4,0.1,11.4c0,0.9,0.5,1.5,1.5,1.8l8.7,2.6l0.1,2.5C627.7,83.8,622.3,83.7,617.7,83.7z"/>
<path class="st0" d="M677,1.6h14.2c8.7,0,18-0.1,27.7-0.2l0.4,0.5l-3.4,18l-2.3,0.4l-3.7-13.5h-27.1V39h5.3c4.1,0,8.6,0,13.6-0.1
	c1,0,1.7-0.5,2-1.5l2.1-7.9l3.2-0.1c-0.1,5.5-0.2,9.5-0.2,12.1c0,2.5,0.1,6.5,0.2,12l-3.2,0.2l-2.1-8c-0.3-1-0.9-1.5-1.8-1.6
	c-5.1-0.1-9.7-0.1-13.8-0.1h-5.3v21.3c0,4.3,0,8.6,0.1,12.8H711l7.1-14.9l2.6-0.5l-1.3,20.4l-0.4,0.4c-10.1-0.1-19.5-0.2-28-0.2H677
	c-4.7,0-9.6,0.1-14.5,0.2l-0.2-2.5l7.2-2.2c1-0.3,1.5-0.9,1.6-1.8c0-1.6,0.1-3.3,0.1-5.2s0-4.1,0-6.4V17.9c0-2,0-3.8,0-5.4
	s0-3-0.1-4.3c0-1-0.5-1.7-1.4-2l-7.3-2.3l-0.1-2.5C667.5,1.5,672.3,1.6,677,1.6z"/>
<path class="st0" d="M744.1,83.8c-4.7,0-9.6,0.1-14.5,0.2l-0.2-2.5l7.2-2.2c1-0.3,1.5-0.9,1.6-1.8c0-1.6,0.1-3.3,0.1-5.2
	s0-4.1,0-6.4V18.3c0-2,0-3.8,0-5.4s0-3-0.1-4.3c0-1-0.5-1.7-1.4-2l-7.3-2.3l-0.1-2.5c5,0.2,9.9,0.2,14.7,0.2c3.9,0,7.7-0.1,11.3-0.3
	c3.6-0.2,7.4-0.3,11.2-0.3c13.7,0,23.9,3.1,30.8,9.3c6.9,6.2,10.3,15.5,10.3,27.7c0,14.5-3.8,25.7-11.4,33.7c-7.6,8-18.3,12-32.1,12
	c-3.8,0-7.2-0.1-10.1-0.2C751,83.9,747.7,83.8,744.1,83.8z M749.7,78.6c2.3,0.3,4.6,0.5,6.8,0.6s4.4,0.1,6.7,0.1
	c10.3,0,18.2-3,23.6-9.1c5.4-6.1,8.1-15.4,8.1-27.9c0-12.2-2.6-21.2-7.7-27.1c-5.1-5.9-13.2-8.8-24.3-8.8c-1.8,0-3.7,0-5.8,0.1
	s-4.5,0.2-7.2,0.4v71.7H749.7z"/>
<path class="st0" d="M154.8,116c-4.1-1.4-7.8-2.2-11.3-2.3c-5.2-0.1-9.3,1.1-12.4,3.5c-3.1,2.4-4.7,5.9-4.8,10.3
	c0,2.5,0.5,4.8,1.5,6.7s2.5,3.6,4.2,5.1c1.8,1.5,3.8,2.8,6.1,4c2.3,1.2,4.6,2.3,7.1,3.5c2.7,1.2,5.3,2.5,7.8,3.9s4.8,2.9,6.8,4.7
	c2,1.8,3.6,3.9,4.8,6.4s1.7,5.4,1.7,8.6c-0.1,7.8-3.3,13.7-9.4,17.6c-6.1,4-14,5.9-23.7,5.7c-6.2-0.1-13.1-1.3-20.6-3.5l-0.3-0.5
	l3.2-19.9l2.6-0.4l3.8,16.7c4.1,1.7,8.3,2.6,12.7,2.7c5.8,0.1,10.4-1.1,13.7-3.6s5-6.2,5.1-10.9c0-2.5-0.4-4.7-1.5-6.6
	c-1-1.9-2.4-3.6-4.2-5s-3.8-2.7-6-3.8c-2.2-1.2-4.6-2.3-7-3.4c-2.7-1.2-5.3-2.5-7.9-4c-2.6-1.4-4.9-3-6.9-4.9
	c-2.1-1.9-3.7-4.1-4.9-6.8c-1.2-2.7-1.8-5.7-1.7-9.3c0.1-7.1,3.2-12.5,9.2-16.2c6-3.7,13.4-5.6,22.1-5.4c6.2,0.1,12.6,1,19.4,2.5
	l0.4,0.4l-3.8,18.2l-2.4,0.4L154.8,116z"/>
<path class="st0" d="M207.3,192.4c-4.8,0-10.1,0.1-15.9,0.2l-0.2-2.5l8.7-2.6c1-0.3,1.5-0.9,1.5-1.8c0.1-3,0.1-6.8,0.1-11.4v-58.5
	h-20.7l-5.2,15.6l-2.3,0.4l-1.5-21l0.4-0.5c9.6,0.2,18.8,0.2,27.6,0.2h15.6c8.7,0,18-0.1,27.7-0.2l0.4,0.5l-3.7,20.6l-2.3,0.4
	l-3.8-16H213v58.5c0,4.6,0,8.4,0.1,11.4c0,0.9,0.5,1.5,1.5,1.8l8.7,2.6l0.1,2.5C217.3,192.5,212,192.4,207.3,192.4z"/>
<path class="st0" d="M272.8,174.4c0,2.3,0,4.5,0,6.3c0,1.9,0,3.6,0.1,5.1c0,1.2,0.5,2,1.5,2.3l6.5,1.9l0.2,2.5
	c-4.6-0.1-9.3-0.2-13.9-0.2c-4.7,0-9.6,0.1-14.5,0.2l-0.2-2.5l7.2-2.2c1-0.3,1.5-0.9,1.6-1.8c0-1.6,0.1-3.3,0.1-5.2s0-4.1,0-6.4
	v-47.5c0-2,0-3.8,0-5.4c0-1.6,0-3-0.1-4.3c0-1-0.5-1.7-1.4-2l-7.3-2.3l-0.1-2.5c5,0.2,10,0.2,14.8,0.2c0.9,0,2.2,0,3.6-0.1
	s3.2-0.1,5.3-0.2c2.1-0.1,3.9-0.1,5.3-0.2c1.4,0,2.5-0.1,3.4-0.1c9,0,15.8,1.7,20.3,5c4.5,3.4,6.8,8.3,6.8,14.7
	c0,5.8-1.5,10.5-4.6,14.2c-3.1,3.6-7.8,6.4-14.1,8.3c2.5,3.8,4.8,7.4,6.9,10.9s4,6.7,5.9,9.6c1.8,2.9,3.5,5.5,5,7.7
	c1.5,2.2,2.9,4,4.2,5.3c0.7,0.7,1.3,1.2,2,1.7s1.4,0.9,2.1,1.2c0.7,0.3,1.5,0.6,2.3,0.8c0.8,0.2,1.7,0.5,2.7,0.7l0.2,2.6
	c-2.8,0.4-5.2,0.5-7.1,0.5c-1.6,0-3,0-4.2-0.1s-2.3-0.2-3.2-0.5s-1.8-0.5-2.6-0.9c-0.8-0.4-1.5-0.8-2.3-1.4c-1.6-1.2-3.2-3-4.8-5.2
	s-3.2-4.9-4.9-7.8c-1.7-2.9-3.4-6-5.3-9.2c-1.8-3.3-3.7-6.5-5.8-9.6c-0.6-0.9-1.1-1.7-1.5-2.2s-0.9-1-1.4-1.3
	c-0.5-0.3-1.1-0.5-1.7-0.6s-1.5-0.2-2.5-0.2l-4.1-0.1v20.3H272.8z M272.8,149.7c2.4,0.1,4.6,0.2,6.6,0.2c6.8,0,11.7-1.4,14.9-4.3
	c3.1-2.9,4.7-7.4,4.7-13.5c0-5.9-1.5-10.3-4.5-13s-7.7-4.1-14.1-4.1c-1.1,0-2.3,0-3.5,0.1c-1.3,0.1-2.6,0.2-4,0.4v34.2H272.8z"/>
<path class="st0" d="M345.3,110.6h14.2c8.8,0,18-0.1,27.7-0.2l0.4,0.5l-3.4,18.1l-2.3,0.4l-3.6-13.5h-27.1v32.2h5.3
	c4.1,0,8.6,0,13.6-0.1c1,0,1.7-0.5,2-1.5l2.1-7.9l3.2-0.1c-0.1,5.5-0.2,9.5-0.2,12.1c0,2.5,0.1,6.5,0.2,12l-3.2,0.2l-2.1-8
	c-0.3-1-0.9-1.5-1.8-1.6c-5.1-0.1-9.7-0.1-13.8-0.1h-5.3v21.3c0,4.3,0,8.6,0.1,12.8h28.1l7.1-14.9l2.6-0.5l-1.3,20.4l-0.4,0.4
	c-10.1-0.1-19.5-0.2-28-0.2h-13.9c-4.7,0-9.6,0.1-14.5,0.2l-0.2-2.5l7.2-2.2c1-0.3,1.5-0.9,1.6-1.8c0-1.6,0.1-3.3,0.1-5.2
	s0-4.1,0-6.4V127c0-2,0-3.8,0-5.4c0-1.6,0-3-0.1-4.3c0-1-0.5-1.7-1.4-2l-7.3-2.3l-0.1-2.5C335.8,110.5,340.7,110.6,345.3,110.6z"/>
<path class="st0" d="M442.1,109.2l26,71.7c1,2.7,1.9,4.5,2.7,5.5c0.8,1,1.9,1.7,3.4,2.1l5.5,1.6l0.1,2.5c-5.1-0.1-9.9-0.2-14.2-0.2
	c-4.5,0-9.7,0.1-15.8,0.2l-0.2-2.5l5.6-1.6c0.8-0.3,1.3-0.6,1.7-0.9c0.3-0.3,0.5-0.8,0.5-1.6c0-0.8-0.2-1.8-0.6-3.1
	c-0.4-1.3-1-3-1.7-5.1l-5.5-15.7h-28.2l-6.2,15.6c-0.8,2.2-1.5,3.9-1.9,5.2c-0.4,1.3-0.7,2.3-0.7,3s0.2,1.2,0.6,1.5s0.9,0.6,1.7,0.8
	l5.4,1.6l0.1,2.6c-5.5-0.1-10.1-0.2-13.6-0.2s-7.4,0.1-11.8,0.2l-0.3-2.5l5.9-1.8c1.5-0.5,2.6-1.2,3.3-2.2c0.7-1,1.5-2.5,2.3-4.6
	l29.9-71.5L442.1,109.2z M423.4,156.8h24.2l-11.4-32.3L423.4,156.8z"/>
<path class="st0" d="M562.6,110.4c3.7,0.2,7,0.2,10,0.2c2.9,0,6.8-0.1,11.7-0.2l0.2,2.5l-7.4,2.3c-0.9,0.3-1.4,1-1.4,2
	c-0.1,2.6-0.1,5.8-0.1,9.7v47.5c0,4.6,0,8.5,0.1,11.7c0,0.9,0.6,1.5,1.6,1.8l7,2.2l0.1,2.5c-5.2-0.1-10.1-0.2-14.8-0.2
	c-4.6,0-9.2,0.1-13.7,0.2l-0.2-2.5l6.7-2.1c0.9-0.3,1.4-1,1.5-2.1c0.1-3.1,0.1-6.9,0.1-11.5v-50.7l-29.1,68.7l-4.3,0.5l-29.2-69.2
	v50.7c0,4.6,0,8.5,0.1,11.5c0,1.1,0.5,1.8,1.5,2.1l6.6,2.1l0.1,2.5c-4.6-0.1-8.5-0.2-11.7-0.2c-3,0-7.1,0.1-12.1,0.2l-0.2-2.5
	l7.2-2.2c1-0.3,1.5-0.9,1.6-1.8c0.1-3.2,0.1-7,0.1-11.7v-47.5c0-3.9,0-7.1-0.1-9.7c0-1-0.5-1.7-1.4-2l-7.3-2.3l-0.1-2.5
	c5,0.2,9,0.2,12,0.2c3.4,0,6.9-0.1,10.5-0.2l27.2,64.3L562.6,110.4z"/>
<path class="st0" d="M606.6,110.6h14.2c8.8,0,18-0.1,27.7-0.2l0.4,0.5l-3.4,18.1l-2.3,0.4l-3.6-13.5h-27.1v32.2h5.3
	c4.1,0,8.6,0,13.6-0.1c1,0,1.7-0.5,2-1.5l2.1-7.9l3.2-0.1c-0.1,5.5-0.2,9.5-0.2,12.1c0,2.5,0.1,6.5,0.2,12l-3.2,0.2l-2.1-8
	c-0.3-1-0.9-1.5-1.8-1.6c-5.1-0.1-9.7-0.1-13.8-0.1h-5.3v21.3c0,4.3,0,8.6,0.1,12.8h28.1l7.1-14.9l2.6-0.5l-1.3,20.4l-0.4,0.4
	c-10.1-0.1-19.5-0.2-28-0.2h-13.9c-4.7,0-9.6,0.1-14.5,0.2l-0.2-2.5l7.2-2.2c1-0.3,1.5-0.9,1.6-1.8c0-1.6,0.1-3.3,0.1-5.2
	s0-4.1,0-6.4V127c0-2,0-3.8,0-5.4c0-1.6,0-3-0.1-4.3c0-1-0.5-1.7-1.4-2l-7.3-2.3l-0.1-2.5C597.1,110.5,601.9,110.6,606.6,110.6z"/>
<path class="st0" d="M677.6,174.4c0,2.3,0,4.5,0,6.3c0,1.9,0,3.6,0.1,5.1c0,1.2,0.5,2,1.5,2.3l6.5,1.9l0.2,2.5
	c-4.6-0.1-9.3-0.2-13.9-0.2c-4.7,0-9.6,0.1-14.5,0.2l-0.2-2.5l7.2-2.2c1-0.3,1.5-0.9,1.6-1.8c0-1.6,0.1-3.3,0.1-5.2s0-4.1,0-6.4
	v-47.5c0-2,0-3.8,0-5.4c0-1.6,0-3-0.1-4.3c0-1-0.5-1.7-1.4-2l-7.3-2.3l-0.1-2.5c5,0.2,10,0.2,14.8,0.2c0.9,0,2.2,0,3.6-0.1
	s3.2-0.1,5.3-0.2c2.1-0.1,3.9-0.1,5.3-0.2c1.4,0,2.5-0.1,3.4-0.1c9,0,15.8,1.7,20.3,5c4.5,3.4,6.8,8.3,6.8,14.7
	c0,5.8-1.5,10.5-4.6,14.2c-3.1,3.6-7.8,6.4-14.1,8.3c2.5,3.8,4.8,7.4,6.9,10.9c2.1,3.5,4,6.7,5.9,9.6c1.8,2.9,3.5,5.5,5,7.7
	c1.5,2.2,2.9,4,4.2,5.3c0.7,0.7,1.3,1.2,2,1.7s1.4,0.9,2.1,1.2c0.7,0.3,1.5,0.6,2.3,0.8c0.8,0.2,1.7,0.5,2.7,0.7l0.2,2.6
	c-2.8,0.4-5.2,0.5-7.1,0.5c-1.6,0-3,0-4.2-0.1s-2.3-0.2-3.2-0.5s-1.8-0.5-2.6-0.9s-1.5-0.8-2.3-1.4c-1.6-1.2-3.2-3-4.8-5.2
	s-3.2-4.9-4.9-7.8c-1.7-2.9-3.4-6-5.3-9.2c-1.8-3.3-3.7-6.5-5.8-9.6c-0.6-0.9-1.1-1.7-1.5-2.2s-0.9-1-1.4-1.3
	c-0.5-0.3-1.1-0.5-1.7-0.6s-1.5-0.2-2.5-0.2l-4.1-0.1v20.3H677.6z M677.6,149.7c2.4,0.1,4.6,0.2,6.6,0.2c6.8,0,11.7-1.4,14.9-4.3
	c3.1-2.9,4.7-7.4,4.7-13.5c0-5.9-1.5-10.3-4.5-13s-7.7-4.1-14.1-4.1c-1.1,0-2.3,0-3.5,0.1c-1.3,0.1-2.6,0.2-4,0.4v34.2H677.6z"/>
</svg>
