<?xml version="1.0" encoding="utf-8"?>
<!-- Generator: Adobe Illustrator 24.0.1, SVG Export Plug-In . SVG Version: 6.00 Build 0)  -->
<svg version="1.1" id="Layer_1" xmlns="http://www.w3.org/2000/svg" xmlns:xlink="http://www.w3.org/1999/xlink" x="0px" y="0px"
	 viewBox="0 0 629.6 194.4" style="enable-background:new 0 0 629.6 194.4;" xml:space="preserve">
<style type="text/css">
	.st0{fill:#FFFFFF;}
</style>
<path class="st0" d="M186.5,149.4c0,13.5-3.8,24.4-11.5,32.6c-7.7,8.2-18.4,12.3-32.2,12.3c-13.1,0-23.2-3.8-30.4-11.4
	c-7.2-7.6-10.7-17.9-10.7-30.8c0-13.5,3.9-24.2,11.6-32.1c7.7-7.9,18.4-11.8,32.1-11.8c13.1,0,23.3,3.7,30.4,11
	C182.9,126.6,186.5,136.7,186.5,149.4z M114.5,150.2c0,12.7,2.6,22.5,7.7,29.3c5.2,6.8,12.7,10.2,22.7,10.2c9.8,0,17-3.1,21.7-9.2
	c4.7-6.2,7-15.8,7-29c0-12.3-2.5-21.8-7.4-28.5c-5-6.6-12.6-10-23-10c-10,0-17.3,3.1-21.9,9.2C116.8,128.4,114.5,137.7,114.5,150.2z
	"/>
<path class="st0" d="M221.1,174.2c0,2.3,0,4.5,0,6.3c0,1.9,0,3.6,0.1,5c0,0.9,0.5,1.5,1.5,1.8l8.1,2.5l0.1,2.5
	c-5.7-0.1-10.8-0.2-15.5-0.2c-4.7,0-9.6,0.1-14.5,0.2l-0.2-2.5l7.2-2.2c1-0.3,1.5-0.9,1.6-1.8c0-1.6,0.1-3.3,0.1-5.2
	c0-1.9,0-4.1,0-6.4v-47.5c0-2,0-3.8,0-5.4c0-1.6,0-3-0.1-4.3c0-1-0.5-1.7-1.4-2l-7.3-2.3l-0.1-2.5c5,0.2,10,0.2,14.8,0.2
	c3.2,0,6.3-0.1,9.4-0.2c3-0.2,5.8-0.2,8.2-0.2c9.3,0,16.3,1.8,21,5.4c4.7,3.6,7.1,9,7.1,16.1c0,8.4-2.7,14.9-8.2,19.6
	c-5.5,4.6-13.2,7-23.1,7c-2.7,0-5.6-0.2-8.8-0.5V174.2z M221.1,152.6c2.7,0.5,5.4,0.7,8.1,0.7c6.2,0,11-1.6,14.3-4.8
	c3.3-3.2,4.9-8.2,4.9-14.8c0-6.4-1.6-11.1-4.7-14.2c-3.1-3.1-8-4.7-14.7-4.7c-2.6,0-5.3,0.2-7.9,0.5V152.6z"/>
<path class="st0" d="M304.3,192.2c-4.8,0-10.1,0.1-15.9,0.2l-0.2-2.5l8.7-2.6c1-0.3,1.5-0.9,1.5-1.8c0.1-3,0.1-6.8,0.1-11.4v-58.5
	h-20.7l-5.2,15.6l-2.3,0.4l-1.5-21l0.4-0.5c9.6,0.2,18.8,0.2,27.6,0.2h15.6c8.8,0,18-0.1,27.7-0.2l0.4,0.5l-3.7,20.6l-2.3,0.4
	l-3.8-16h-20.7v58.5c0,4.6,0,8.4,0.1,11.4c0,0.9,0.5,1.5,1.5,1.8l8.7,2.6l0.1,2.5C314.3,192.2,309,192.2,304.3,192.2z"/>
<path class="st0" d="M343,159.3h32.6v7.6H343V159.3z"/>
<path class="st0" d="M409.7,174.2c0,2.3,0,4.5,0,6.4c0,1.9,0,3.7,0.1,5.2c0,1,0.7,1.6,2.1,2l6.6,2.1l0.1,2.5
	c-5-0.1-9.9-0.2-14.5-0.2c-4.7,0-9.6,0.1-14.5,0.2l-0.2-2.5l7.2-2.2c1-0.3,1.5-0.9,1.6-1.8c0-1.6,0.1-3.3,0.1-5.2c0-1.9,0-4.1,0-6.4
	v-47.5c0-2,0-3.8,0-5.4c0-1.6,0-3-0.1-4.3c0-1-0.5-1.7-1.4-2l-7.3-2.3l-0.1-2.5c5,0.2,9.9,0.2,14.5,0.2c4.7,0,9.5-0.1,14.5-0.2
	l0.2,2.5l-7.3,2.2c-0.9,0.2-1.4,0.8-1.5,1.8c0,1.4-0.1,2.9-0.1,4.5c0,1.6,0,3.4,0,5.3V174.2z"/>
<path class="st0" d="M446.9,126.9v47.3c0,4.6,0,8.4,0.1,11.5c0,1.1,0.5,1.8,1.5,2l7,2.1l0.1,2.6c-4.9-0.1-8.9-0.2-12-0.2
	c-3,0-7.1,0.1-12.1,0.2l-0.2-2.5l7.2-2.2c1-0.3,1.5-0.9,1.6-1.8c0.1-3.2,0.1-7.1,0.1-11.7v-47.5c0-3.9,0-7.1-0.1-9.7
	c0-1-0.5-1.7-1.4-2l-7.3-2.3l-0.1-2.5c5,0.2,9,0.2,12,0.2c1.8,0,3.5-0.1,5.3-0.2l49.2,61.5v-45.2c0-3.8,0-7-0.1-9.8
	c0-0.9-0.5-1.5-1.5-1.8l-6.9-2l-0.1-2.7c5,0.2,9,0.2,12.1,0.2c3.1,0,7.1-0.1,12-0.2l0.2,2.5l-7.4,2.3c-0.9,0.3-1.4,1-1.4,2
	c-0.1,2.6-0.1,5.8-0.1,9.7v65.5l-4.9,0.5L446.9,126.9z"/>
<path class="st0" d="M42.5,6.9c-4.1-1.4-7.8-2.2-11.3-2.3c-5.2-0.1-9.3,1.1-12.4,3.5c-3.1,2.4-4.7,5.9-4.8,10.3
	c0,2.5,0.5,4.8,1.5,6.7c1,1.9,2.5,3.6,4.2,5.1c1.8,1.5,3.8,2.8,6.1,4c2.3,1.2,4.6,2.3,7.1,3.5c2.7,1.2,5.3,2.5,7.8,3.9
	c2.5,1.4,4.8,2.9,6.8,4.7s3.6,3.9,4.8,6.4c1.2,2.5,1.7,5.4,1.7,8.6c-0.1,7.8-3.3,13.7-9.4,17.6s-14,5.9-23.7,5.7
	c-6.2-0.1-13.1-1.3-20.6-3.5L0,80.8l3.2-19.9l2.6-0.4l3.8,16.7c4.1,1.7,8.3,2.6,12.7,2.7c5.8,0.1,10.4-1.1,13.7-3.6
	c3.3-2.5,5-6.2,5.1-10.9c0-2.5-0.4-4.7-1.5-6.6c-1-1.9-2.4-3.6-4.2-5c-1.8-1.4-3.8-2.7-6-3.8c-2.2-1.2-4.6-2.3-7-3.4
	c-2.7-1.2-5.3-2.5-7.9-4c-2.6-1.4-4.9-3-6.9-4.9c-2.1-1.9-3.7-4.1-4.9-6.8s-1.8-5.7-1.7-9.3c0.1-7.1,3.2-12.5,9.2-16.2
	S23.7-0.1,32.4,0C38.6,0.1,45,1,51.8,2.5l0.4,0.4l-3.8,18.2L46,21.5L42.5,6.9z"/>
<path class="st0" d="M95,83.3c-4.8,0-10.1,0.1-15.9,0.2L78.8,81l8.7-2.6c1-0.3,1.5-0.9,1.5-1.8c0.1-3,0.1-6.8,0.1-11.4V6.7H68.4
	l-5.2,15.6l-2.3,0.4l-1.5-21l0.4-0.5c9.6,0.2,18.8,0.2,27.6,0.2H103c8.7,0,18-0.1,27.7-0.2l0.4,0.5l-3.7,20.6l-2.3,0.4l-3.8-16
	h-20.7v58.5c0,4.6,0,8.4,0.1,11.4c0,0.9,0.5,1.5,1.5,1.8l8.7,2.6l0.1,2.5C105,83.4,99.6,83.3,95,83.3z"/>
<path class="st0" d="M160.4,65.3c0,2.3,0,4.5,0,6.3c0,1.9,0,3.6,0.1,5.1c0,1.2,0.5,2,1.5,2.3l6.5,1.9l0.2,2.5
	c-4.6-0.1-9.3-0.2-13.9-0.2c-4.7,0-9.6,0.1-14.5,0.2L140,81l7.2-2.2c1-0.3,1.5-0.9,1.6-1.8c0-1.6,0.1-3.3,0.1-5.2c0-1.9,0-4.1,0-6.4
	V17.8c0-2,0-3.8,0-5.4c0-1.6,0-3-0.1-4.3c0-1-0.5-1.7-1.4-2l-7.3-2.3L140,1.3c5,0.2,10,0.2,14.8,0.2c0.9,0,2.2,0,3.6-0.1
	s3.2-0.1,5.3-0.2c2.1-0.1,3.9-0.1,5.3-0.2c1.4,0,2.5-0.1,3.4-0.1c9,0,15.8,1.7,20.3,5c4.5,3.4,6.8,8.3,6.8,14.7
	c0,5.8-1.5,10.5-4.6,14.2c-3.1,3.6-7.8,6.4-14.1,8.3c2.5,3.8,4.8,7.4,6.9,10.9c2.1,3.5,4,6.7,5.9,9.6c1.8,2.9,3.5,5.5,5,7.7
	c1.5,2.2,2.9,4,4.2,5.3c0.7,0.7,1.3,1.2,2,1.7c0.7,0.5,1.4,0.9,2.1,1.2c0.7,0.3,1.5,0.6,2.3,0.8c0.8,0.2,1.7,0.5,2.7,0.7l0.2,2.6
	c-2.8,0.4-5.2,0.5-7.1,0.5c-1.6,0-3,0-4.2-0.1c-1.2-0.1-2.3-0.2-3.2-0.5s-1.8-0.5-2.6-0.9c-0.8-0.4-1.5-0.8-2.3-1.4
	c-1.6-1.2-3.2-3-4.8-5.2s-3.2-4.9-4.9-7.8c-1.7-2.9-3.4-6-5.3-9.2c-1.8-3.3-3.7-6.5-5.8-9.6c-0.6-0.9-1.1-1.7-1.5-2.2
	c-0.4-0.5-0.9-1-1.4-1.3c-0.5-0.3-1.1-0.5-1.7-0.6s-1.5-0.2-2.5-0.2l-4.1-0.1V65.3z M160.4,40.6c2.4,0.1,4.6,0.2,6.6,0.2
	c6.8,0,11.7-1.4,14.9-4.3c3.1-2.9,4.7-7.4,4.7-13.5c0-5.9-1.5-10.3-4.5-13c-3-2.7-7.7-4.1-14.1-4.1c-1.1,0-2.3,0-3.5,0.1
	c-1.3,0.1-2.6,0.2-4,0.4V40.6z"/>
<path class="st0" d="M233,1.5h14.2c8.8,0,18-0.1,27.7-0.2l0.4,0.5l-3.4,18.1l-2.3,0.4l-3.6-13.5h-27.1V39h5.3c4.1,0,8.6,0,13.6-0.1
	c1,0,1.7-0.5,2-1.5l2.1-7.9l3.2-0.1c-0.1,5.5-0.2,9.5-0.2,12.1c0,2.5,0.1,6.5,0.2,12l-3.2,0.2l-2.1-8c-0.3-1-0.9-1.5-1.8-1.6
	c-5.1-0.1-9.7-0.1-13.8-0.1h-5.3v21.3c0,4.3,0,8.6,0.1,12.8h28.1l7.1-14.9l2.6-0.5l-1.3,20.4l-0.4,0.4c-10.1-0.1-19.5-0.2-28-0.2
	h-13.9c-4.7,0-9.6,0.1-14.5,0.2l-0.2-2.5l7.2-2.2c1-0.3,1.5-0.9,1.6-1.8c0-1.6,0.1-3.3,0.1-5.2c0-1.9,0-4.1,0-6.4V17.8
	c0-2,0-3.8,0-5.4c0-1.6,0-3-0.1-4.3c0-1-0.5-1.7-1.4-2l-7.3-2.3l-0.1-2.5C223.5,1.4,228.3,1.5,233,1.5z"/>
<path class="st0" d="M329.2,0l26,71.7c1,2.7,1.9,4.5,2.7,5.5c0.8,1,1.9,1.7,3.4,2.1l5.5,1.6l0.1,2.5c-5.1-0.1-9.9-0.2-14.2-0.2
	c-4.5,0-9.7,0.1-15.8,0.2l-0.2-2.5l5.6-1.6c0.8-0.3,1.3-0.6,1.7-0.9c0.3-0.3,0.5-0.8,0.5-1.6c0-0.8-0.2-1.8-0.6-3.1
	c-0.4-1.3-1-3-1.7-5.1L336.6,53h-28.2l-6.2,15.6c-0.8,2.2-1.5,3.9-1.9,5.2s-0.7,2.3-0.7,3c0,0.7,0.2,1.2,0.6,1.5
	c0.4,0.3,0.9,0.6,1.7,0.8l5.4,1.6l0.1,2.6c-5.5-0.1-10.1-0.2-13.6-0.2s-7.4,0.1-11.8,0.2l-0.3-2.5l5.9-1.8c1.5-0.5,2.6-1.2,3.3-2.2
	c0.7-1,1.5-2.5,2.3-4.6l29.9-71.5L329.2,0z M310.5,47.7h24.1l-11.4-32.3L310.5,47.7z"/>
<path class="st0" d="M449.7,1.3c3.7,0.2,7,0.2,10,0.2c2.9,0,6.8-0.1,11.7-0.2l0.2,2.5l-7.4,2.3c-0.9,0.3-1.4,1-1.4,2
	c-0.1,2.6-0.1,5.8-0.1,9.7v47.5c0,4.6,0,8.5,0.1,11.7c0,0.9,0.6,1.5,1.6,1.8l7,2.2l0.1,2.5c-5.2-0.1-10.1-0.2-14.8-0.2
	c-4.6,0-9.2,0.1-13.7,0.2l-0.2-2.5l6.7-2.1c0.9-0.3,1.4-1,1.5-2.1c0.1-3.1,0.1-6.9,0.1-11.5V14.6l-29.1,68.7l-4.3,0.5l-29.2-69.2
	v50.7c0,4.6,0,8.5,0.1,11.5c0,1.1,0.5,1.8,1.5,2.1l6.6,2.1l0.1,2.5c-4.6-0.1-8.5-0.2-11.7-0.2c-3,0-7.1,0.1-12.1,0.2l-0.2-2.5
	l7.2-2.2c1-0.3,1.5-0.9,1.6-1.8c0.1-3.2,0.1-7,0.1-11.7V17.8c0-3.9,0-7.1-0.1-9.7c0-1-0.5-1.7-1.4-2L373,3.8l-0.1-2.5
	c5,0.2,9,0.2,12,0.2c3.4,0,6.9-0.1,10.5-0.2l27.2,64.3L449.7,1.3z"/>
<path class="st0" d="M500.1,1.5h14.2c8.8,0,18-0.1,27.7-0.2l0.4,0.5L539,19.9l-2.3,0.4L533,6.7H506V39h5.3c4.1,0,8.6,0,13.6-0.1
	c1,0,1.7-0.5,2-1.5l2.1-7.9l3.2-0.1c-0.1,5.5-0.2,9.5-0.2,12.1c0,2.5,0.1,6.5,0.2,12l-3.2,0.2l-2.1-8c-0.3-1-0.9-1.5-1.8-1.6
	c-5.1-0.1-9.7-0.1-13.8-0.1H506v21.3c0,4.3,0,8.6,0.1,12.8h28.1l7.1-14.9l2.6-0.5l-1.3,20.4l-0.4,0.4c-10.1-0.1-19.5-0.2-28-0.2
	h-13.9c-4.7,0-9.6,0.1-14.5,0.2l-0.2-2.5l7.2-2.2c1-0.3,1.5-0.9,1.6-1.8c0-1.6,0.1-3.3,0.1-5.2c0-1.9,0-4.1,0-6.4V17.8
	c0-2,0-3.8,0-5.4c0-1.6,0-3-0.1-4.3c0-1-0.5-1.7-1.4-2l-7.3-2.3l-0.1-2.5C490.6,1.4,495.5,1.5,500.1,1.5z"/>
<path class="st0" d="M578.3,65.3c0,2.3,0,4.5,0,6.3c0,1.9,0,3.6,0.1,5.1c0,1.2,0.5,2,1.5,2.3l6.5,1.9l0.2,2.5
	c-4.6-0.1-9.3-0.2-13.9-0.2c-4.7,0-9.6,0.1-14.5,0.2l-0.2-2.5l7.2-2.2c1-0.3,1.5-0.9,1.6-1.8c0-1.6,0.1-3.3,0.1-5.2
	c0-1.9,0-4.1,0-6.4V17.8c0-2,0-3.8,0-5.4c0-1.6,0-3-0.1-4.3c0-1-0.5-1.7-1.4-2L558,3.8l-0.1-2.5c5,0.2,10,0.2,14.8,0.2
	c0.9,0,2.2,0,3.6-0.1s3.2-0.1,5.3-0.2c2.1-0.1,3.9-0.1,5.3-0.2c1.4,0,2.5-0.1,3.4-0.1c9,0,15.8,1.7,20.3,5c4.5,3.4,6.8,8.3,6.8,14.7
	c0,5.8-1.5,10.5-4.6,14.2c-3.1,3.6-7.8,6.4-14.1,8.3c2.5,3.8,4.8,7.4,6.9,10.9c2.1,3.5,4,6.7,5.9,9.6c1.8,2.9,3.5,5.5,5,7.7
	c1.5,2.2,2.9,4,4.2,5.3c0.7,0.7,1.3,1.2,2,1.7c0.7,0.5,1.4,0.9,2.1,1.2c0.7,0.3,1.5,0.6,2.3,0.8c0.8,0.2,1.7,0.5,2.7,0.7l0.2,2.6
	c-2.8,0.4-5.2,0.5-7.1,0.5c-1.6,0-3,0-4.2-0.1c-1.2-0.1-2.3-0.2-3.2-0.5s-1.8-0.5-2.6-0.9c-0.8-0.4-1.5-0.8-2.3-1.4
	c-1.6-1.2-3.2-3-4.8-5.2s-3.2-4.9-4.9-7.8c-1.7-2.9-3.4-6-5.3-9.2c-1.8-3.3-3.7-6.5-5.8-9.6c-0.6-0.9-1.1-1.7-1.5-2.2
	c-0.4-0.5-0.9-1-1.4-1.3c-0.5-0.3-1.1-0.5-1.7-0.6s-1.5-0.2-2.5-0.2l-4.1-0.1V65.3z M578.3,40.6c2.4,0.1,4.6,0.2,6.6,0.2
	c6.8,0,11.7-1.4,14.9-4.3c3.1-2.9,4.7-7.4,4.7-13.5c0-5.9-1.5-10.3-4.5-13c-3-2.7-7.7-4.1-14.1-4.1c-1.1,0-2.3,0-3.5,0.1
	c-1.3,0.1-2.6,0.2-4,0.4V40.6z"/>
</svg>
