<?xml version="1.0" encoding="utf-8"?>
<!-- Generator: Adobe Illustrator 24.0.1, SVG Export Plug-In . SVG Version: 6.00 Build 0)  -->
<svg version="1.1"
	 id="svg3355" xmlns:cc="http://creativecommons.org/ns#" xmlns:dc="http://purl.org/dc/elements/1.1/" xmlns:rdf="http://www.w3.org/1999/02/22-rdf-syntax-ns#" xmlns:svg="http://www.w3.org/2000/svg"
	 xmlns="http://www.w3.org/2000/svg" xmlns:xlink="http://www.w3.org/1999/xlink" x="0px" y="0px" viewBox="0 0 454.9 150.8"
	 style="enable-background:new 0 0 454.9 150.8;" xml:space="preserve">
<style type="text/css">
	.st0{fill-rule:evenodd;clip-rule:evenodd;fill:#FFFFFF;}
</style>
<g id="g3363" transform="matrix(1.3333333,0,0,-1.3333333,-180.53426,935.79824)">
	<g id="g3371" transform="translate(468.8057,565.3643)">
		<path id="path3373" class="st0" d="M0,97.5l-13.6,13.6H-39v17.6h-21.5V48.7H-39v40.9h17.5V48.7H0L0,97.5z M-68.2,111.1h-33.1
			L-115,97.5V62.4l13.6-13.7h33.1v21.4h-25.4v19.5h25.4C-68.2,89.7-68.2,111.1-68.2,111.1z M-122.8,111.1h-17.5v17.6h-21.5V62.4
			l13.6-13.7h25.3v21.4h-17.5v19.5h17.5L-122.8,111.1L-122.8,111.1z M-169.6,128.7h-21.4v-9.8h21.4V128.7z M-169.6,111.1h-21.4V48.7
			h21.4V111.1z M-198.9,111.1h-21.4V70.2h-7.8v40.9h-21.4V70.2h-7.8v40.9h-21.5V48.7h66.3l13.6,13.7L-198.9,111.1L-198.9,111.1z
			 M-286.6,111.1h-17.5v17.6h-21.4V62.4l13.6-13.7h25.3v21.4h-17.5v19.5h17.5L-286.6,111.1L-286.6,111.1z M7.8,101.4V42.9
			l-29.2-19.5h-19.5v9.8l-13.6-9.8h-17.5v9.8l-9.7-9.8h-31.2l-9.8,9.8l-2-9.8h-27.3l-11.2,9.8l-0.6-9.8h-30.9l-1.1,9.8l-8.4-9.8
			h-47.3l-9.8,3.9v-3.9h-25.3L-315.9,41l-17.5,17.5v78h37l17.5-17.5h79.9v17.5h66.3v-17.5h17.5v-9.7l9.8,9.7h19.5l17.6,17.5h37
			v-17.5h21.4L7.8,101.4z"/>
	</g>
</g>
</svg>
