<?xml version="1.0" encoding="utf-8"?>
<!-- Generator: Adobe Illustrator 24.0.1, SVG Export Plug-In . SVG Version: 6.00 Build 0)  -->
<svg version="1.1" id="Layer_1" xmlns="http://www.w3.org/2000/svg" xmlns:xlink="http://www.w3.org/1999/xlink" x="0px" y="0px"
	 viewBox="0 0 59 59" style="enable-background:new 0 0 59 59;" xml:space="preserve">
<style type="text/css">
	.st0{fill:#E4B85D;}
</style>
<g>
	<g>
		<path class="st0" d="M41.7,32.8c0.1,0.1,0.2,0.1,0.4,0.2c-0.7,2.7-2.1,5.1-4,6.9c-0.6-0.5-1.4-0.7-2.2-0.7c-2.1,0-3.8,1.7-3.8,3.8
			c0,0.1,0,0.3,0,0.4c-1.3,0.4-2.6,0.6-4,0.6s-2.7-0.2-4-0.6c0.1-0.8-0.1-1.6-0.5-2.3c-1-1.8-3.4-2.4-5.2-1.4
			c-0.1,0.1-0.2,0.1-0.3,0.2c-1.9-1.9-3.3-4.2-4-6.9c0.7-0.3,1.3-0.8,1.7-1.6c1-1.8,0.4-4.1-1.4-5.2c-0.1-0.1-0.2-0.1-0.4-0.2
			c0.7-2.7,2.1-5.1,4-6.9c0.6,0.5,1.4,0.7,2.2,0.7c2.1,0,3.8-1.7,3.8-3.8c0-0.1,0-0.3,0-0.4c1.3-0.4,2.6-0.6,4-0.6
			c1.4,0,2.7,0.2,4,0.6c-0.1,0.8,0.1,1.6,0.5,2.3c1,1.8,3.4,2.4,5.2,1.4c0.1-0.1,0.2-0.1,0.3-0.2c1.9,1.9,3.3,4.2,4,6.9
			c-0.7,0.3-1.3,0.8-1.7,1.6C39.3,29.4,39.9,31.7,41.7,32.8z M37.4,28.4c1.8-1,2.4-3.3,1.4-5.1c-1-1.8-3.3-2.4-5.1-1.4
			s-2.4,3.3-1.4,5.1S35.6,29.4,37.4,28.4z M38.8,35.7c1-1.8,0.4-4.1-1.4-5.1s-4.1-0.4-5.1,1.4s-0.4,4.1,1.4,5.1S37.7,37.5,38.8,35.7
			z M31.8,20.8c0-2.1-1.7-3.7-3.7-3.7c-2.1,0-3.7,1.7-3.7,3.7c0,2.1,1.7,3.7,3.7,3.7C30.1,24.6,31.8,22.9,31.8,20.8z M31.8,38.2
			c0-2.1-1.7-3.7-3.7-3.7c-2.1,0-3.7,1.7-3.7,3.7s1.7,3.7,3.7,3.7S31.8,40.2,31.8,38.2z M30.5,29.5c0-1.3-1.1-2.4-2.4-2.4
			s-2.4,1.1-2.4,2.4s1.1,2.4,2.4,2.4S30.5,30.8,30.5,29.5z M23.8,27c1-1.8,0.4-4.1-1.4-5.1s-4.1-0.4-5.1,1.4s-0.4,4.1,1.4,5.1
			S22.7,28.8,23.8,27z M22.4,37.1c1.8-1,2.4-3.3,1.4-5.1s-3.3-2.4-5.1-1.4s-2.4,3.3-1.4,5.1C18.3,37.5,20.6,38.1,22.4,37.1z"/>
	</g>
</g>
</svg>
