<?xml version="1.0" encoding="utf-8"?>
<!-- Generator: Adobe Illustrator 24.0.1, SVG Export Plug-In . SVG Version: 6.00 Build 0)  -->
<svg version="1.1" id="Layer_1" xmlns="http://www.w3.org/2000/svg" xmlns:xlink="http://www.w3.org/1999/xlink" x="0px" y="0px"
	 viewBox="0 0 134 110.5" style="enable-background:new 0 0 134 110.5;" xml:space="preserve">
<style type="text/css">
	.st0{fill:#FFFFFF;}
</style>
<path class="st0" d="M1.5,55.3c0-10,0-19.9,0-29.9c0-4.1,1-7.8,3.3-11.2c1.8-2.7,4.2-4.9,7.1-6.5c2-1.1,4.2-1.9,6.5-2.3
	c2.4-0.4,4.9-0.9,7.3-1.3c2.2-0.4,4.3-0.7,6.5-1c2-0.3,3.9-0.5,5.9-0.8c1.7-0.2,3.3-0.5,5-0.7c1.6-0.2,3.3-0.3,4.9-0.5
	c2-0.2,3.9-0.4,5.9-0.6c1.2-0.1,2.4-0.2,3.5-0.2C60,0.2,62.6,0.1,65.1,0c1.7,0,3.4,0,5.1,0c0.2,0,0.3,0,0.5,0c2,0.1,4.1,0.1,6.1,0.2
	c1.8,0.1,3.6,0.2,5.4,0.4c2.1,0.2,4.1,0.4,6.1,0.6C90.6,1.5,92.8,1.7,95,2c2.2,0.3,4.5,0.6,6.7,0.9c1.8,0.3,3.6,0.5,5.4,0.8
	c2.2,0.3,4.4,0.7,6.6,1.1c1.7,0.3,3.5,0.6,5.2,1.1c3,0.8,5.6,2.3,7.9,4.4c3.2,2.8,5.2,6.3,6.2,10.4c0.3,1.4,0.5,3,0.5,4.5
	c0,20.1,0,40.1,0,60.2c0,4-1.1,7.7-3.3,11c-3.1,4.6-7.3,7.5-12.8,8.6c-2.7,0.6-5.4,1-8.1,1.4c-2.5,0.4-5,0.8-7.5,1.1
	c-2,0.3-4,0.6-6,0.8c-1.7,0.2-3.5,0.4-5.2,0.6c-1.7,0.2-3.4,0.4-5,0.6c-1.3,0.1-2.6,0.2-3.9,0.3c-1.6,0.1-3.2,0.2-4.8,0.4
	c-0.7,0-1.3,0.1-2,0.1c-0.7,0-1.4,0.1-2.2,0.1c-2.4,0-4.7,0.1-7.1,0.1c-1.9,0-3.7-0.1-5.6-0.2c-2-0.1-4.1-0.2-6.1-0.4
	c-1.8-0.1-3.6-0.3-5.4-0.5c-2.1-0.2-4.2-0.4-6.3-0.7c-2-0.2-4-0.5-6-0.8c-2.3-0.3-4.7-0.7-7-1c-2.8-0.4-5.6-0.9-8.4-1.3
	c-2-0.4-4.1-0.7-6.1-1.4c-2.5-0.9-4.7-2.2-6.6-3.9c-2-1.7-3.5-3.8-4.7-6.1c-1-2-1.7-4.1-1.9-6.3c-0.1-1.2-0.2-2.5-0.2-3.7
	C1.5,74.6,1.5,64.9,1.5,55.3z M52.3,78.3c13.5-7.7,27-15.4,40.5-23.1c-13.5-7.7-27-15.4-40.5-23.1C52.3,47.6,52.3,62.9,52.3,78.3z"
	/>
</svg>
