<?xml version="1.0" encoding="utf-8"?>
<!-- Generator: Adobe Illustrator 23.0.1, SVG Export Plug-In . SVG Version: 6.00 Build 0)  -->
<svg version="1.1" id="Layer_1" xmlns="http://www.w3.org/2000/svg" xmlns:xlink="http://www.w3.org/1999/xlink" x="0px" y="0px"
	 viewBox="0 0 110.3 110.3" style="enable-background:new 0 0 110.3 110.3;" xml:space="preserve">
<style type="text/css">
	.st0{fill:#FFFFFF;}
</style>
<path id="XMLID_15_" class="st0" d="M92.2,0H18.1C11.9,0,6.8,5.1,6.8,11.4v74.7c0,6.3,5.1,11.4,11.3,11.4h62.7l-2.9-10.2l7.1,6.6
	l6.7,6.2l11.9,10.5V11.4C103.5,5.1,98.4,0,92.2,0z M70.8,72.2c0,0-2-2.4-3.6-4.5c7.2-2,10-6.6,10-6.6c-2.3,1.5-4.4,2.5-6.4,3.3
	c-2.8,1.2-5.4,1.9-8,2.4c-5.3,1-10.2,0.7-14.3-0.1c-3.2-0.6-5.9-1.5-8.1-2.4c-1.3-0.5-2.7-1.1-4-1.9c-0.2-0.1-0.3-0.2-0.5-0.3
	c-0.1-0.1-0.2-0.1-0.2-0.2c-1-0.6-1.5-0.9-1.5-0.9s2.7,4.4,9.7,6.5c-1.7,2.1-3.7,4.6-3.7,4.6c-12.2-0.4-16.9-8.4-16.9-8.4
	c0-17.8,8-32.2,8-32.2c8-6,15.5-5.8,15.5-5.8l0.6,0.7c-9.9,2.9-14.5,7.2-14.5,7.2s1.2-0.7,3.3-1.6c5.9-2.6,10.6-3.3,12.5-3.5
	c0.3-0.1,0.6-0.1,0.9-0.1c3.7-0.5,7.5-0.5,11.2-0.1c5.3,0.6,10.9,2.2,16.6,5.3c0,0-4.4-4.1-13.8-7l0.8-0.9c0,0,7.6-0.2,15.5,5.8
	c0,0,8,14.4,8,32.2C87.8,63.8,83.1,71.8,70.8,72.2L70.8,72.2z M45.1,46.4c-3.2,0-5.6,2.8-5.6,6.1c0,3.4,2.5,6.1,5.6,6.1
	c3.2,0,5.6-2.8,5.6-6.1C50.8,49.1,48.3,46.4,45.1,46.4 M65.3,46.4c-3.2,0-5.6,2.8-5.6,6.1c0,3.4,2.5,6.1,5.6,6.1
	c3.2,0,5.6-2.8,5.6-6.1C71,49.1,68.5,46.4,65.3,46.4"/>
</svg>
