<?xml version="1.0" encoding="utf-8"?>
<!-- Generator: Adobe Illustrator 19.0.0, SVG Export Plug-In . SVG Version: 6.00 Build 0)  -->
<svg version="1.1" id="Layer_1" xmlns="http://www.w3.org/2000/svg" xmlns:xlink="http://www.w3.org/1999/xlink" x="0px" y="0px"
	 viewBox="-234 365.3 134 110.5" style="enable-background:new -234 365.3 134 110.5;" xml:space="preserve">
<style type="text/css">
	.st0{fill:#FFFFFF;}
</style>
<path id="XMLID_1_" class="st0" d="M-100,378.4c-5,2.2-10.3,3.7-15.7,4.4c5.7-3.5,10-8.9,12-15.4c-5.3,3.2-11.2,5.5-17.4,6.8
	c-5-5.5-12.2-8.9-20.1-8.9c-17.8,0-30.8,16.8-26.7,34.3c-22.9-1.2-43.1-12.3-56.7-29.2c-7.2,12.5-3.7,29,8.5,37.3
	c-4.5-0.1-8.8-1.4-12.5-3.5c-0.3,12.9,8.9,25,22.1,27.7c-3.9,1.1-8.1,1.3-12.5,0.5c3.5,11.1,13.6,19.2,25.7,19.4
	c-11.4,9.2-26,13.3-40.6,11.5c12.2,7.9,26.6,12.5,42.2,12.5c51,0,79.9-43.8,78.2-83C-108.3,388.9-103.7,384-100,378.4z"/>
</svg>
